<svg width="14" height="9" viewBox="0 0 14 9" fill="none" xmlns="http://www.w3.org/2000/svg">
<path fill-rule="evenodd" clip-rule="evenodd" d="M0 4.5C0 4.00294 0.391751 3.6 0.875 3.6H11.0119L9.00628 1.5364C8.69086 1.21196 8.66659 0.701453 8.93349 0.34839L9.00628 0.263604C9.3217 -0.0608317 9.81803 -0.0857882 10.1613 0.188734L10.2437 0.263604L13.7437 3.8636L13.7799 3.90317L13.8282 3.96422L13.8909 4.06434L13.9377 4.1658L13.9686 4.26061L13.994 4.39427L14 4.5L13.9976 4.56771L13.9823 4.68065L13.9565 4.78093L13.918 4.8809L13.8723 4.96864L13.8138 5.05508C13.792 5.08362 13.7686 5.11078 13.7437 5.1364L10.2437 8.7364C9.90201 9.08787 9.34799 9.08787 9.00628 8.7364C8.69086 8.41196 8.66659 7.90145 8.93349 7.54839L9.00628 7.4636L11.0119 5.4H0.875C0.391751 5.4 0 4.99706 0 4.5Z" fill="#7170FF"/>
</svg>
