<svg width="213" height="258" viewBox="0 0 213 258" fill="none" xmlns="http://www.w3.org/2000/svg">
<path d="M121 139.499C121 163.8 95.1583 176.999 74.9999 176.999C54.8415 176.999 38.5 157.299 38.5 132.999C28.4998 33.499 58.8415 66.9987 78.9999 66.9987C173 83.499 121 115.198 121 139.499Z" fill="white"/>
<path d="M137 210.499C131 218.499 103.658 228.499 83.5 228.499C63.3416 228.499 43.5 220.225 43.5 195.924C92 185.499 37 171.999 80.4688 177C89.9929 178.671 101.291 166.423 108.5 168C115 184.499 109.795 178.188 118 187.499C119.091 188.737 147.986 196.909 149 197.999C152.397 201.65 135.73 209.371 137 210.499Z" fill="white"/>
<path d="M191.501 212.5C185.501 220.5 197.001 224.5 192.001 228.5C171.843 228.5 163.501 230.64 166.001 199.5C164.501 170.14 184.501 164 176.001 135C186.501 135 192.001 154 186.501 168C194.001 172.5 199.796 167.689 208.001 177C211.001 190 210.001 199.5 203.501 210C206.898 213.65 190.231 211.371 191.501 212.5Z" fill="white"/>
<path d="M135.499 36.5009C123.315 19.2702 113.244 18.8081 92.7299 13.8931C78.0528 10.3905 57.3691 11.0326 46.9988 22.5009C37.9319 23.4048 34.0216 33.9486 27.3914 39.5415C27.3914 57.0009 20.6755 61.5922 22.9989 79.5009C27.419 113.341 0.988048 123.052 35.499 130.001C41.1081 131.131 32.2343 97.0009 33.999 89.5009C37.5284 74.5009 41.6665 57.6073 49.499 57.0009C60.2925 56.1652 52.0764 60.1048 66.499 68.0009C70.0069 69.9213 89.2538 65.9734 92.7299 68.0009C99.3163 71.8425 110.528 74.6078 116.499 78.0009C120.782 80.4348 126.822 93.2793 130.499 95.0009C136.999 109.001 132.808 110.291 134.499 111.001C131.363 117.273 129.499 123.001 122.999 126.501C119.498 136.763 121.476 148.399 122.499 148.501C124.326 148.682 140.401 145.024 140.999 143.501C141.645 141.854 157.697 118.494 156.499 114.001C156.611 112.135 159.499 97.5009 152.999 91.5009C147.499 70.5009 146.301 51.7657 135.499 36.5009Z" fill="#7170FF"/>
<path d="M139.523 96.9513C142.15 103.997 141.752 111.695 139.26 118.723C137.068 124.912 131.206 132.882 123.737 131.029C122.659 130.761 122.192 132.13 123.021 132.732C129.204 137.263 137.063 127.563 139.432 122.864C143.432 114.93 143.921 104.88 140.542 96.6703C140.288 96.0541 139.283 96.3033 139.523 96.9513Z" fill="#3C4145"/>
<path d="M146.436 110.658C145.983 122.928 133.803 133.712 122.932 137.563C121.953 137.908 122.338 139.398 123.385 139.131C135.049 136.064 147.311 123.187 147.138 110.658C147.129 110.574 147.089 110.497 147.026 110.441C146.962 110.385 146.881 110.354 146.796 110.354C146.712 110.354 146.63 110.385 146.567 110.441C146.504 110.497 146.464 110.574 146.454 110.658H146.436Z" fill="#3C4145"/>
<path d="M122.849 59.8432C135.759 68.3523 138.775 85.9688 134.595 99.9921C134.323 100.898 135.695 101.261 136.012 100.382C141.24 86.0639 136.669 67.2151 123.452 58.8146C122.799 58.3978 122.21 59.4218 122.849 59.8432Z" fill="#3C4145"/>
<path d="M130.928 58.3037C141.967 68.9832 142.17 85.9426 134.348 98.4753C133.845 99.2818 135.045 99.9161 135.584 99.2002C144.807 86.9666 142.687 67.9365 131.575 57.6557C131.123 57.2525 130.502 57.8913 130.928 58.3037Z" fill="#3C4145"/>
<path d="M108.533 25.9288C113.969 27.1114 119.214 28.6881 123.934 31.6876C128.581 34.6282 131.829 39.123 134.384 43.8986C139.367 53.2052 141.727 64.4964 140.232 74.9811C140.087 76.0006 141.564 76.4763 141.822 75.4342C144.431 64.7819 140.775 52.5075 135.815 43.074C133.362 38.2844 129.788 34.1589 125.397 31.0488C120.514 27.646 114.503 26.2459 108.741 25.2083C108.261 25.1222 108.053 25.8381 108.538 25.9424L108.533 25.9288Z" fill="#3C4145"/>
<path d="M97.496 54.9631C101.903 55.4524 105.622 58.5425 108.906 61.2793C111.718 63.6562 114.375 66.2109 116.86 68.9275C122.418 74.9175 128.601 83.1593 127.025 91.8497C127.02 92.0534 127.083 92.2529 127.205 92.416C127.328 92.5792 127.501 92.6964 127.698 92.7487C127.895 92.8011 128.103 92.7856 128.29 92.7047C128.477 92.6238 128.632 92.4822 128.728 92.3028C131.541 83.404 124.42 74.3285 118.727 68.2252C113.44 62.5479 105.745 54.5734 97.496 54.2291C97.043 54.2064 97.043 54.8996 97.496 54.9495V54.9631Z" fill="#3C4145"/>
<path d="M142.899 84.6148C147.256 90.2694 149.204 95.5752 147.451 102.702C147.415 102.878 147.448 103.06 147.541 103.213C147.635 103.366 147.783 103.477 147.955 103.525C148.128 103.573 148.312 103.553 148.471 103.47C148.629 103.388 148.751 103.247 148.81 103.079C151.039 95.539 148.647 89.771 143.827 83.9034C143.406 83.3914 142.5 84.0892 142.922 84.6148H142.899Z" fill="#3C4145"/>
<path d="M46.2629 55.6665C41.5973 54.2709 37.2035 64.2255 35.9126 67.379C32.4293 75.8565 31.6864 86.024 35.0066 94.6646C35.071 94.8445 35.201 94.9935 35.3707 95.0815C35.5403 95.1694 35.7369 95.19 35.921 95.1389C36.1051 95.0878 36.2631 94.969 36.3632 94.8062C36.4633 94.6434 36.4981 94.4487 36.4607 94.2613C34.6261 86.3593 34.2592 78.5207 36.5377 70.6685C37.7833 66.3958 41.2395 57.1889 46.281 56.2691C46.5981 56.2102 46.5573 55.748 46.281 55.6665H46.2629Z" fill="#3C4145"/>
<path d="M41.2842 44.5148C26.8843 54.5282 22.2912 80.3095 36.7545 92.3845C37.6378 93.1186 38.8517 91.9632 38.0318 91.1068C31.731 84.5369 29.1265 76.508 29.8603 67.4461C30.5624 58.8372 34.8429 50.3733 41.6964 45.0495C41.9999 44.8138 41.5967 44.2928 41.2842 44.5148Z" fill="#3C4145"/>
<path d="M25.4093 93.3675L26.1477 92.8691L25.4954 92.2167C20.173 104.183 26.048 120.232 36.6067 127.314C37.5987 127.98 38.4594 126.407 37.5127 125.737C27.1216 118.12 23.2985 104.79 26.356 92.5837C26.3829 92.4727 26.3694 92.3558 26.318 92.254C26.2665 92.1521 26.1804 92.0718 26.0752 92.0277C25.97 91.9835 25.8525 91.9782 25.7437 92.0129C25.635 92.0475 25.5421 92.1198 25.4818 92.2167L24.97 92.9416C24.7888 93.1954 25.1421 93.5352 25.3957 93.3675H25.4093Z" fill="#3C4145"/>
<path d="M65.8309 22.028C63.2309 25.7298 63.6476 30.4057 64.3406 34.6467C65.1437 39.6987 66.7397 44.5921 69.0696 49.1458C71.3119 53.5092 74.5448 57.2865 78.5093 60.1749C82.4738 63.0634 87.0596 64.9827 91.8993 65.7791C92.8052 65.9331 93.2084 64.5648 92.2843 64.379C83.2566 62.5666 75.9004 57.7547 71.0219 49.907C68.6438 46.0784 67.1219 41.7513 66.0393 37.4197C64.8344 32.6667 63.5525 26.7538 66.3835 22.3497C66.6055 22.0098 66.0755 21.7153 65.849 22.037L65.8309 22.028Z" fill="#3C4145"/>
<path d="M80.1719 46.2819C82.7583 57.274 91.6999 64.4556 102.367 67.1652C102.56 67.206 102.761 67.1716 102.93 67.0692C103.098 66.9667 103.222 66.8038 103.274 66.6137C103.327 66.4236 103.305 66.2206 103.213 66.0461C103.121 65.8715 102.966 65.7386 102.78 65.6745C92.6331 62.8653 83.9632 56.5536 81.0733 46.0372C81.0572 45.9792 81.0299 45.9249 80.9929 45.8775C80.9558 45.83 80.9098 45.7903 80.8574 45.7607C80.8051 45.731 80.7474 45.712 80.6877 45.7046C80.6279 45.6973 80.5673 45.7017 80.5093 45.7178C80.4513 45.7339 80.3971 45.7612 80.3496 45.7982C80.3022 45.8353 80.2625 45.8813 80.2329 45.9337C80.2032 45.9861 80.1842 46.0438 80.1768 46.1035C80.1695 46.1633 80.1739 46.2239 80.19 46.2819H80.1719Z" fill="#3C4145"/>
<path d="M125.865 113.693C125.666 110.522 126.282 107.019 128.859 104.849H127.604C128.99 106.598 128.904 110.087 128.963 112.171C129.022 114.255 129.049 118.859 126.046 118.193C125.512 118.075 125 118.768 125.471 119.176C128.488 121.768 130.571 117.925 130.906 115.266C131.31 111.849 131.359 106.358 128.918 103.576C128.748 103.408 128.52 103.314 128.281 103.314C128.043 103.314 127.815 103.408 127.645 103.576C125.317 105.76 123.229 110.952 125.272 113.87C125.453 114.133 125.946 114.069 125.924 113.693H125.865Z" fill="#A1A0A0"/>
<path d="M78.8555 115.385C79.4126 125.761 97.1735 121.035 102.337 117.515C102.519 117.383 102.645 117.188 102.691 116.969C102.737 116.749 102.7 116.52 102.588 116.326C102.475 116.132 102.294 115.987 102.081 115.919C101.867 115.85 101.636 115.864 101.431 115.956C96.5077 118.675 81.5461 123.6 79.6889 115.276C79.6604 115.183 79.5995 115.102 79.5172 115.05C79.4349 114.997 79.3365 114.975 79.2396 114.988C79.1427 115.001 79.0536 115.048 78.9882 115.121C78.9228 115.194 78.8854 115.287 78.8826 115.385H78.8555Z" fill="#A1A0A0"/>
<path d="M42.3829 113.812C44.009 122.625 57.5302 114.265 61.163 111.451C62.0689 110.749 61.249 109.186 60.2344 109.861C56.7918 112.126 45.7937 120.037 43.2299 113.581C43.1803 113.493 43.1029 113.424 43.0099 113.386C42.917 113.347 42.8138 113.34 42.7166 113.367C42.6194 113.393 42.5339 113.452 42.4735 113.532C42.413 113.613 42.3811 113.711 42.3829 113.812Z" fill="#A1A0A0"/>
<path d="M62.0499 136.178C64.0112 139.431 68.3054 138.697 71.3267 137.591C72.0605 137.319 71.7796 136.159 71.0005 136.4C68.4141 137.22 64.6952 138.026 62.6614 135.706C62.367 135.371 61.8234 135.806 62.0499 136.159V136.178Z" fill="#A1A0A0"/>
<path d="M68.681 172.565C80.1049 176.298 93.7574 172.61 103.6 166.326C116.342 158.17 119.219 142.932 121.352 129.063C121.466 128.333 120.392 127.998 120.22 128.755C117.266 141.763 114.811 155.787 103.292 164.164C94.0246 170.906 80.191 174.586 68.9211 171.699C68.8125 171.684 68.7021 171.709 68.6104 171.77C68.5187 171.83 68.4521 171.921 68.4227 172.027C68.3934 172.133 68.4034 172.245 68.4509 172.344C68.4984 172.443 68.5802 172.522 68.681 172.565Z" fill="#A1A0A0"/>
<path d="M75.6445 180.303C85.4785 185.455 99.0676 178.908 107.062 172.882C107.968 172.206 107.198 170.779 106.157 171.341C97.4187 176.058 86.321 183.498 76.016 179.406C75.495 179.202 75.1553 180.045 75.64 180.312L75.6445 180.303Z" fill="#A1A0A0"/>
<path d="M88.04 184.699C95.3282 185.179 107.676 181.654 109.388 173.335C109.556 172.515 108.328 171.872 107.957 172.733C104.786 180.005 95.6227 183.87 88.0264 183.838C87.9357 183.868 87.8568 183.926 87.8009 184.003C87.745 184.08 87.7148 184.173 87.7148 184.269C87.7148 184.364 87.745 184.457 87.8009 184.534C87.8568 184.612 87.9357 184.669 88.0264 184.699H88.04Z" fill="#A1A0A0"/>
<path d="M111.296 183.087C109.828 179.974 107.586 177.333 107.351 173.771C107.247 172.176 107.378 170.146 105.992 169.1C105.226 168.52 104.348 169.942 105.226 170.4C106.449 171.044 106.44 175.783 106.988 177.169C107.894 179.435 109.561 181.306 110.716 183.431C110.929 183.821 111.491 183.477 111.305 183.087H111.296Z" fill="#A1A0A0"/>
<path d="M104.792 193.407C108.557 191.486 113.399 188.998 114.998 184.798C115.265 184.082 114.196 183.711 113.816 184.3C111.374 188.092 108.253 190.475 104.376 192.714C104.293 192.774 104.236 192.863 104.215 192.963C104.195 193.064 104.212 193.168 104.264 193.256C104.316 193.344 104.399 193.41 104.497 193.44C104.594 193.471 104.7 193.464 104.792 193.421V193.407Z" fill="#A1A0A0"/>
<path d="M159.865 213.144C157.279 205.441 149.075 201.526 142.426 197.892C133.742 193.148 125.521 186.189 115.048 186.515C113.549 186.565 113.649 188.586 115.048 188.78C120.073 189.491 124.947 191.021 129.475 193.311C133.262 195.187 136.723 197.666 140.446 199.655C147.241 203.28 155.032 206.401 158.742 213.628C158.818 213.756 158.938 213.851 159.079 213.897C159.22 213.943 159.373 213.936 159.51 213.878C159.647 213.82 159.758 213.715 159.823 213.582C159.888 213.448 159.903 213.296 159.865 213.153V213.144Z" fill="#A1A0A0"/>
<path d="M98.714 210.743C104.471 216.021 114.844 208.663 119.428 204.853C120.248 204.173 119.152 202.746 118.287 203.375C114.056 206.47 104.775 213.475 99.5203 209.719C98.8997 209.266 98.1614 210.258 98.714 210.765V210.743Z" fill="#A1A0A0"/>
<path d="M122.137 203.172C125.344 203.172 126.721 199.774 128.026 197.377C128.099 197.252 128.12 197.102 128.083 196.962C128.046 196.821 127.954 196.701 127.829 196.628C127.703 196.554 127.554 196.534 127.413 196.571C127.273 196.608 127.153 196.699 127.079 196.825C126.01 198.637 124.688 202.506 122.151 202.511C122.063 202.511 121.979 202.546 121.917 202.608C121.855 202.67 121.82 202.754 121.82 202.842C121.82 202.929 121.855 203.014 121.917 203.076C121.979 203.138 122.063 203.172 122.151 203.172H122.137Z" fill="#A1A0A0"/>
<path d="M168.175 239.465C167.482 234.553 167.573 229.583 166.957 224.671C166.812 223.516 165.041 223.443 165.095 224.671C165.252 229.767 165.821 234.842 166.798 239.845C166.988 240.752 168.302 240.348 168.157 239.465H168.175Z" fill="#A1A0A0"/>
<path d="M188.301 214.391C182.784 213.988 178.676 212.157 175.681 207.341C174.97 206.195 173.29 207.196 173.87 208.392C175.145 211.018 177.283 213.127 179.927 214.364C182.571 215.601 185.559 215.892 188.392 215.189C188.484 215.158 188.563 215.095 188.615 215.012C188.667 214.929 188.688 214.831 188.675 214.734C188.662 214.637 188.616 214.547 188.545 214.481C188.473 214.414 188.381 214.374 188.283 214.369L188.301 214.391Z" fill="#A1A0A0"/>
<path d="M179.141 189.596C178.765 196.733 181.473 203.312 183.802 209.927C184.178 210.987 185.817 210.566 185.505 209.474C183.63 202.786 180.672 196.61 179.942 189.614C179.932 189.515 179.885 189.424 179.811 189.357C179.737 189.291 179.641 189.254 179.542 189.254C179.442 189.254 179.346 189.291 179.272 189.357C179.198 189.424 179.151 189.515 179.141 189.614V189.596Z" fill="#A1A0A0"/>
<path d="M174.414 197.636C174.554 202.96 176.91 209.181 182.001 211.587C183.061 212.085 183.981 210.59 182.907 209.992C178.45 207.454 175.959 202.47 175.166 197.536C175.098 197.106 174.41 197.214 174.419 197.636H174.414Z" fill="#A1A0A0"/>
<path d="M204.573 208.327C198.861 209.292 193.547 209.718 187.894 208.182C186.413 207.779 185.788 210.058 187.265 210.448C193.389 212.165 198.924 211.354 204.931 209.573C205.099 209.527 205.242 209.416 205.328 209.264C205.414 209.113 205.437 208.933 205.39 208.765C205.344 208.596 205.233 208.453 205.081 208.367C204.93 208.281 204.75 208.258 204.582 208.305L204.573 208.327Z" fill="#A1A0A0"/>
<path d="M188.948 225.536C188.228 221.685 190.362 217.38 188.853 213.669C188.807 213.51 188.705 213.372 188.566 213.281C188.427 213.19 188.26 213.152 188.096 213.174C187.931 213.196 187.78 213.276 187.669 213.401C187.559 213.525 187.497 213.684 187.494 213.85C187.281 216.284 187.494 218.835 187.463 221.299C187.426 222.835 187.345 224.525 188.319 225.799C188.36 225.87 188.427 225.924 188.505 225.95C188.583 225.976 188.668 225.972 188.744 225.94C188.821 225.908 188.882 225.849 188.918 225.775C188.954 225.7 188.961 225.615 188.939 225.536H188.948Z" fill="#A1A0A0"/>
<path d="M185.541 223.231C185.357 221.742 185.305 220.239 185.387 218.741C185.446 217.381 185.818 216.054 185.754 214.713C185.746 214.542 185.679 214.38 185.563 214.254C185.448 214.128 185.292 214.047 185.122 214.024C184.953 214.001 184.781 214.039 184.637 214.13C184.492 214.221 184.385 214.36 184.332 214.522C183.399 217.178 183.96 220.811 184.785 223.43C184.814 223.524 184.879 223.603 184.965 223.65C185.052 223.697 185.153 223.709 185.248 223.683C185.342 223.658 185.424 223.596 185.474 223.512C185.525 223.428 185.541 223.327 185.519 223.231H185.541Z" fill="#A1A0A0"/>
<path d="M182.207 219.022C182.166 218.2 182.203 217.376 182.316 216.561C182.42 215.986 181.582 215.737 181.41 216.316C181.207 217.208 181.148 218.125 181.233 219.035C181.245 219.154 181.3 219.264 181.389 219.344C181.477 219.424 181.592 219.469 181.711 219.469C181.83 219.469 181.945 219.424 182.034 219.344C182.122 219.264 182.177 219.154 182.189 219.035L182.207 219.022Z" fill="#A1A0A0"/>
<path d="M186.282 154.25C186.631 158.211 185.835 162.188 183.99 165.709C182.468 168.641 179.211 170.041 177.607 172.873C177.154 173.675 178.083 174.712 178.907 174.173C185.172 170.095 189.403 161.545 186.934 154.164C186.821 153.829 186.245 153.861 186.282 154.25Z" fill="#A1A0A0"/>
<path d="M177.885 173.951C177.672 174.137 177.464 174.373 177.559 174.681C177.588 174.779 177.647 174.866 177.728 174.929C177.81 174.992 177.909 175.027 178.012 175.03C178.098 175.03 178.183 175.012 178.262 174.976C178.34 174.94 178.409 174.887 178.465 174.821C178.535 174.75 178.58 174.656 178.592 174.556C178.604 174.456 178.582 174.355 178.53 174.269C178.478 174.183 178.399 174.116 178.305 174.08C178.211 174.044 178.108 174.04 178.012 174.069C177.977 174.087 177.938 174.096 177.899 174.096H178.125L178.41 174.318L178.474 174.558C178.474 174.722 178.474 174.391 178.474 174.432C178.474 174.368 178.474 174.3 178.474 174.237C178.51 173.883 178.057 173.784 177.84 173.974L177.885 173.951Z" fill="#A1A0A0"/>
<path d="M183.506 171.437C181.694 171.731 180.045 173.498 179.221 175.062C178.654 176.122 180.127 176.906 180.797 175.968C181.784 174.64 182.609 173.154 183.845 172.021C184.126 171.763 183.845 171.383 183.506 171.437Z" fill="#A1A0A0"/>
<path d="M179.693 173.167C178.062 174.023 176.804 175.451 176.16 177.177C175.838 177.947 177.143 178.486 177.519 177.743C178.221 176.307 178.986 174.866 180.169 173.765C180.495 173.457 180.078 172.981 179.716 173.167H179.693Z" fill="#A1A0A0"/>
<path d="M75.4415 93.7975C80.3109 93.5392 84.6594 94.5224 89.3386 95.7277C91.502 96.2614 93.6219 96.9581 95.6801 97.8119C97.6868 98.6728 99.3039 100.132 101.333 100.916C102.538 101.369 103.571 99.8146 102.95 98.8087C100.522 94.8532 94.3439 93.6253 90.1403 92.7599C85.3706 91.7812 79.7221 90.6439 75.2513 93.145C75.1872 93.1853 75.1377 93.2451 75.1102 93.3156C75.0826 93.3861 75.0784 93.4635 75.0982 93.5366C75.118 93.6097 75.1607 93.6744 75.2201 93.7214C75.2794 93.7684 75.3523 93.795 75.4279 93.7975H75.4415Z" fill="#3C4145"/>
<path d="M75.406 92.9635C71.3293 95.5915 71.7596 102.456 72.7743 106.556C74.4321 113.226 79.4284 117.091 85.9104 118.563C91.346 119.805 98.5437 120.738 102.303 115.641C104.84 112.202 108.192 103.543 103.091 100.689C102.859 100.561 102.59 100.512 102.327 100.549C102.064 100.587 101.82 100.709 101.632 100.897C101.445 101.085 101.323 101.329 101.285 101.592C101.248 101.855 101.297 102.123 101.425 102.356C103.422 106.52 101.973 110.512 98.9332 113.888C95.9799 117.163 89.8738 115.727 86.164 114.921C81.3082 113.874 77.9336 111.237 76.0945 106.57C74.7854 103.24 73.6032 96.8692 76.0945 93.8561C76.475 93.403 75.9858 92.6191 75.4196 92.9816L75.406 92.9635Z" fill="#3C4145"/>
<path d="M39.3611 95.3334C42.1604 94.6809 44.9054 93.8336 47.7319 93.2854C51.5097 92.5468 54.1641 92.9229 57.7924 93.7974C58.0844 93.8751 58.3937 93.8552 58.6734 93.7407C58.953 93.6263 59.1876 93.4236 59.3415 93.1635C59.4954 92.9034 59.56 92.6001 59.5257 92.2999C59.4914 91.9996 59.3599 91.7188 59.1513 91.5002C56.8457 89.058 52.5424 89.6198 49.5664 90.0865C45.8566 90.671 42.1015 92.2161 38.8447 94.0647C38.705 94.1529 38.6011 94.2879 38.5516 94.4456C38.5021 94.6032 38.5101 94.7734 38.5743 94.9257C38.6384 95.078 38.7546 95.2025 38.902 95.2772C39.0494 95.3519 39.2185 95.3718 39.3792 95.3334H39.3611Z" fill="#3C4145"/>
<path d="M57.6757 93.2007C59.1479 94.7412 58.935 98.9686 59.1388 100.903C59.4378 103.749 60.3573 107.84 57.6078 109.63C54.3328 111.76 48.9153 112.031 45.201 111.234C42.311 110.613 40.9567 106.766 40.0734 104.333C39.1176 101.714 39.403 99.0774 39.0044 96.3905C38.8866 95.5885 37.5277 95.5976 37.4009 96.3905C36.4949 102.118 37.1789 111.084 43.2623 113.925C47.9233 116.1 55.6736 114.832 59.8817 112.176C64.0173 109.558 62.5995 103.826 61.9291 99.8386C61.7751 98.8961 59.9768 90.7041 57.6757 92.7204C57.6121 92.7841 57.5764 92.8705 57.5764 92.9606C57.5764 93.0506 57.6121 93.137 57.6757 93.2007Z" fill="#3C4145"/>
<path d="M60.788 96.9371C62.9894 95.8723 65.4627 96.3254 67.7185 96.9371C69.2631 97.3404 70.7307 98.0563 72.3297 97.7119C72.54 97.6514 72.728 97.5307 72.8707 97.3648C73.0134 97.1989 73.1045 96.9948 73.1329 96.7778C73.1613 96.5608 73.1257 96.3402 73.0305 96.1431C72.9353 95.946 72.7846 95.781 72.5969 95.6684C70.8938 94.7622 68.5519 94.7622 66.6358 94.5765C65.5344 94.4366 64.4162 94.5172 63.3461 94.8136C62.2761 95.1099 61.2757 95.6161 60.403 96.3028C60.3159 96.3539 60.2527 96.4374 60.2272 96.5352C60.2017 96.6329 60.2161 96.7367 60.2671 96.8238C60.3182 96.911 60.4017 96.9742 60.4994 96.9997C60.5971 97.0252 60.7009 97.0109 60.788 96.9598V96.9371Z" fill="#3C4145"/>
<path d="M60.0617 93.7848C64.7318 90.7037 68.9535 95.0625 73.1706 96.5668C74.3257 96.9836 75.2226 95.3389 74.3529 94.5324C71.0824 91.5057 62.8837 89.2085 59.5861 93.1731C59.3188 93.4903 59.6676 94.0431 60.0617 93.7848Z" fill="#3C4145"/>
<path d="M105.763 104.283C107.235 104.696 108.567 105.389 110.062 105.697C111.556 106.005 113.382 105.403 114.813 105.031C116.915 104.478 118.958 103.699 121.028 103.042C123.03 102.408 125.173 102.39 127.111 101.642C127.352 101.566 127.563 101.416 127.713 101.212C127.862 101.008 127.943 100.762 127.943 100.509C127.943 100.256 127.862 100.01 127.713 99.8064C127.563 99.6027 127.352 99.452 127.111 99.3764C123.968 98.3297 120.086 100.201 117.146 101.252C115.456 101.85 113.799 102.462 112.068 102.933C110.025 103.491 107.951 103.264 105.872 103.54C105.78 103.541 105.691 103.574 105.622 103.635C105.552 103.696 105.508 103.779 105.496 103.871C105.483 103.962 105.505 104.054 105.555 104.131C105.606 104.208 105.683 104.264 105.772 104.288L105.763 104.283Z" fill="#3C4145"/>
<path d="M105.059 108.371C107.061 110.636 110.332 109.299 112.678 108.33C117.208 106.463 122.336 105.262 126.625 102.924C127.789 102.29 126.951 100.681 125.769 100.899C122.028 101.592 118.277 103.726 114.785 105.226C112.47 106.218 108.262 109.789 105.694 107.736C105.606 107.671 105.498 107.639 105.39 107.647C105.281 107.654 105.179 107.701 105.101 107.778C105.024 107.855 104.978 107.958 104.97 108.067C104.962 108.175 104.994 108.283 105.059 108.371Z" fill="#3C4145"/>
<path d="M123.108 106.611C124.436 104.451 126.067 102.492 127.95 100.794C128.856 99.9871 130.722 98.6958 131.257 100.531C131.614 101.754 131.583 103.1 131.619 104.364C131.714 107.776 131.845 111.161 131.207 114.541C130.595 117.767 127.701 123.507 123.606 121.455C122.134 120.716 120.933 122.425 121.916 123.648C125.255 127.803 130.69 123.245 132.647 120.023C135.65 115.121 134.953 108.578 134.658 103.123C134.473 99.7107 133.145 95.3882 128.869 97.1553C126.016 98.3379 121.549 103.132 122.161 106.466C122.247 106.92 122.886 106.92 123.108 106.589V106.611Z" fill="#3C4145"/>
<path d="M34.113 106.606C35.5489 108.618 34.6973 113.43 34.8196 115.859C35.0687 120.621 34.8604 125.401 34.9827 130.163C35.191 138.319 36.5862 146.651 39.6482 154.236C44.5358 166.338 54.5147 175.532 67.379 178.323C75.7635 180.135 84.1796 178.508 92.2198 175.976C99.2635 173.756 106.203 170.824 111.607 165.659C116.911 160.588 120.213 153.561 122.111 146.57C124.009 139.578 124.92 131.318 123.955 124.123C123.783 122.823 121.631 122.188 121.409 123.779C120.481 130.43 120.539 137.064 119.004 143.661C117.337 150.86 113.994 157.557 108.848 162.895C103.703 168.232 95.8934 170.819 88.9177 172.94C80.9817 175.355 72.9188 176.112 64.8831 173.719C52.508 170.058 44.5539 159.012 41.1159 147.082C38.7468 138.853 38.2712 130.317 37.8137 121.821C37.628 118.378 37.175 114.984 36.7266 111.568C36.4865 109.692 36.2736 107.431 34.9147 105.99C34.5252 105.573 33.7778 106.131 34.1175 106.606H34.113Z" fill="#3C4145"/>
<path d="M55.4283 144.871C60.1482 149.782 66.5306 150.834 73.0669 151.074C78.2353 151.264 86.0309 152.066 89.94 147.875C90.1952 147.601 90.3447 147.244 90.3618 146.87C90.379 146.496 90.2627 146.128 90.0337 145.831C89.8047 145.534 89.4778 145.329 89.1114 145.251C88.745 145.173 88.3628 145.228 88.033 145.405C83.2089 148.011 78.4029 147.73 73.085 147.802C69.5626 147.858 66.0466 147.479 62.6169 146.674C60.2207 146.108 58.2639 144.15 55.7454 144.15C55.6627 144.152 55.5823 144.178 55.5139 144.224C55.4456 144.271 55.3924 144.337 55.3607 144.413C55.329 144.489 55.3202 144.573 55.3354 144.655C55.3506 144.736 55.3892 144.811 55.4464 144.871H55.4283Z" fill="#3C4145"/>
<path d="M57.1001 147.191C58.8304 150.095 58.3684 153.937 61.1315 156.216C64.3385 158.867 69.1581 158.767 73.0717 158.776C79.0011 158.776 90.0445 156.57 89.9856 148.704C89.9856 147.472 88.4772 147.222 87.8249 148.115C85.7594 150.965 84.5273 153.149 81.0304 154.458C77.9774 155.609 74.6662 155.673 71.4501 155.65C67.6497 155.618 63.2967 155.342 61.281 151.654C60.3207 149.896 59.7771 147.123 57.5304 146.615C57.4574 146.597 57.3806 146.6 57.3094 146.625C57.2383 146.65 57.176 146.695 57.1302 146.754C57.0844 146.814 57.0571 146.886 57.0518 146.961C57.0464 147.036 57.0632 147.111 57.1001 147.177V147.191Z" fill="#3C4145"/>
<path d="M60.7707 151.944C63.7467 154.278 67.2345 155.057 70.9307 155.451C72.9836 155.631 75.0442 155.707 77.1047 155.678C79.211 155.678 81.4577 156.086 83.4961 155.51C84.2526 155.297 84.5515 154.065 83.7317 153.698C80.8508 152.42 77.1092 153.109 74.0109 153.122C69.6647 153.197 65.3361 152.551 61.201 151.21C60.7978 151.079 60.4219 151.663 60.7707 151.944Z" fill="#3C4145"/>
<path d="M65.3722 161.236C67.6099 162.061 69.3629 162.935 71.7772 163.162C73.9962 163.334 76.2286 163.143 78.386 162.595C79.4686 162.346 79.2466 160.484 78.1187 160.629C76.017 160.905 73.9016 161.141 71.7772 161.218C69.6528 161.295 67.5872 160.461 65.4628 160.561C65.3827 160.565 65.3066 160.597 65.2477 160.652C65.1887 160.706 65.1506 160.779 65.1398 160.859C65.1291 160.938 65.1464 161.019 65.1889 161.087C65.2313 161.155 65.2961 161.206 65.3722 161.232V161.236Z" fill="#3C4145"/>
<path d="M85.3809 136.58C89.5799 141.804 92.0803 147.287 94.8388 153.322C95.2918 154.319 96.7685 153.589 96.542 152.602C95.0608 146.204 90.9161 140.214 85.9335 136.014C85.8584 135.939 85.7566 135.896 85.6504 135.896C85.5442 135.896 85.4423 135.939 85.3673 136.014C85.2922 136.089 85.25 136.191 85.25 136.297C85.25 136.403 85.2922 136.505 85.3673 136.58H85.3809Z" fill="#3C4145"/>
<path d="M57.809 137.159C53.9724 141.576 50.2128 147.498 53.2114 153.325C53.7006 154.277 55.2588 153.615 54.9327 152.6C53.1208 146.932 56.1331 142.632 58.5927 137.761C58.8373 137.281 58.1986 136.71 57.809 137.159Z" fill="#3C4145"/>
<path d="M59.2813 122.175C59.8837 127.376 58.0537 131.857 62.5109 135.808C65.8674 138.785 71.5703 139.311 75.7331 138.074C76.9923 137.698 76.6073 136.085 75.4432 135.935C71.2985 135.4 67.2399 136.121 63.7249 133.303C60.2098 130.484 61.5869 125.686 59.9154 122.002C59.878 121.937 59.82 121.886 59.7507 121.858C59.6813 121.829 59.6044 121.824 59.532 121.844C59.4595 121.864 59.3957 121.907 59.3503 121.966C59.305 122.026 59.2807 122.099 59.2813 122.175Z" fill="#3C4145"/>
<path d="M52.5443 98.2839C51.9101 99.0587 51.96 100.35 52.0596 101.302C52.1955 102.661 52.1049 104.161 53.2917 105.031C54.0345 105.574 55.1851 105.157 55.6154 104.419C56.2224 103.368 55.6154 101.945 55.3255 100.857C55.1036 100.019 54.6596 98.524 53.8035 98.1389C53.6046 98.025 53.3738 97.9793 53.1465 98.0087C52.9191 98.0382 52.7077 98.1412 52.5443 98.302V98.2839Z" fill="#3C4145"/>
<path d="M47.8468 112.044C51.0901 112.565 56.1316 110.231 57.3139 107.005C57.5856 106.267 56.5529 105.995 56.1497 106.516C54.3379 108.895 51.0991 111.405 47.9374 111.355C47.5524 111.355 47.4482 111.98 47.8468 112.044Z" fill="#3C4145"/>
<path d="M89.5267 99.6894C89.4316 99.6305 89.8121 99.0506 89.4724 99.4357C89.3229 99.6033 89.3229 99.8072 89.2051 99.9794C88.8382 100.519 88.8246 101.447 88.8699 102.068C88.9651 103.332 89.0602 104.596 89.1417 105.861C89.2912 108.126 92.9149 108.049 92.6341 105.861C92.4303 104.27 92.308 102.503 91.6693 101.022C91.3955 100.409 90.9867 99.8672 90.4734 99.4357C90.371 99.3308 90.2483 99.2477 90.1128 99.1917C89.9774 99.1356 89.8319 99.1076 89.6853 99.1095C89.6174 99.1102 89.5515 99.1331 89.4978 99.1746C89.444 99.2162 89.4052 99.2741 89.3873 99.3396C89.3694 99.4052 89.3733 99.4748 89.3985 99.5379C89.4236 99.601 89.4686 99.6542 89.5267 99.6894Z" fill="#3C4145"/>
<path d="M80.838 109.375C82.5275 110.281 83.7913 111.496 85.6576 112.094C87.5238 112.692 89.5938 112.361 91.5054 112.094C92.5472 111.944 92.2618 110.304 91.2653 110.304C89.3492 110.304 87.406 110.435 85.5126 110.105C83.9046 109.828 82.6906 108.655 81.0418 108.623C80.9544 108.624 80.8697 108.654 80.8006 108.708C80.7315 108.761 80.6817 108.836 80.6587 108.92C80.6357 109.005 80.6408 109.094 80.6731 109.175C80.7054 109.257 80.7633 109.325 80.838 109.371V109.375Z" fill="#3C4145"/>
<path d="M81.5253 83.6305C84.4832 83.8706 87.1693 84.0201 90.0501 84.8992C93.6739 86.0092 95.6262 88.5239 98.4754 90.7079C99.5761 91.5597 101.361 90.146 100.858 88.8955C99.2771 84.9082 94.915 82.6473 90.938 81.6958C88.2654 81.0569 82.857 80.128 81.1719 83.055C81.1379 83.1176 81.1204 83.1879 81.1211 83.2591C81.1219 83.3303 81.1409 83.4002 81.1763 83.462C81.2118 83.5238 81.2624 83.5755 81.3235 83.6121C81.3846 83.6488 81.4541 83.6691 81.5253 83.6713V83.6305Z" fill="#3C4145"/>
<path d="M42.1967 88.7013C44.1399 88.4249 45.15 86.4358 46.6267 85.3166C48.8553 83.6311 51.9264 83.2868 54.5582 83.8305C54.9383 83.922 55.3386 83.8754 55.6876 83.699C56.0366 83.5226 56.3115 83.2279 56.4634 82.8675C56.6153 82.5071 56.6341 82.1045 56.5166 81.7314C56.3991 81.3584 56.1529 81.0392 55.822 80.831C53.1947 78.9325 49.5393 80.2148 46.8985 81.4653C45.5845 82.1336 44.4377 83.089 43.543 84.2608C42.6484 85.4326 42.0288 86.7907 41.7301 88.2346C41.7177 88.2968 41.7208 88.361 41.7392 88.4217C41.7576 88.4823 41.7906 88.5375 41.8354 88.5823C41.8802 88.6272 41.9354 88.6602 41.9961 88.6786C42.0567 88.697 42.1209 88.7001 42.1831 88.6877L42.1967 88.7013Z" fill="#3C4145"/>
<path d="M45.1211 41.4513C45.7462 43.8844 45.4835 46.4354 45.9002 48.9002C47.2156 55.6409 50.9783 61.6562 56.4634 65.7872C63.7109 71.0295 73.9027 72.5338 82.328 69.5071C83.5102 69.0812 83.4196 67.1011 82.0154 67.1918C73.6808 67.731 66.2657 68.3879 58.8053 63.8207C54.8962 61.4238 51.9428 57.7855 49.7459 53.8254C48.669 51.8188 47.84 49.6888 47.2772 47.482C46.702 45.3479 46.7427 43.3045 45.9183 41.2247C45.8901 41.1226 45.8225 41.0359 45.7303 40.9836C45.6381 40.9313 45.529 40.9178 45.4268 40.9461C45.3247 40.9743 45.238 41.042 45.1858 41.1342C45.1335 41.2264 45.12 41.3356 45.1483 41.4377L45.1211 41.4513Z" fill="#3C4145"/>
<path d="M64.9216 51.986C68.0924 57.9261 71.9245 62.4797 77.6636 66.1272C84.5397 70.495 93.282 70.9209 101.105 72.1805C102.876 72.4615 103.678 69.9151 101.861 69.4302C95.1754 67.7175 88.1951 67.7402 81.6769 65.2889C75.1587 62.8377 69.1342 57.5047 65.5105 51.6416C65.4648 51.5635 65.39 51.5067 65.3025 51.4838C65.215 51.4609 65.122 51.4736 65.0439 51.5193C64.9658 51.565 64.9091 51.6398 64.8861 51.7273C64.8632 51.8148 64.876 51.9079 64.9216 51.986Z" fill="#3C4145"/>
<path d="M93.344 62.0093C97.3845 69.2589 103.844 73.7898 110.765 78.0671C114.357 80.2872 117.777 82.5029 120.78 85.4979C124.209 88.9097 125.79 92.6341 126.8 97.2784C127.122 98.76 129.355 98.6966 129.717 97.2784C131.683 89.5757 123.552 82.4984 117.94 78.6742C109.692 73.0286 100.274 69.9068 94.028 61.6151C93.9733 61.5214 93.8837 61.4532 93.7788 61.4256C93.6738 61.398 93.5623 61.4132 93.4686 61.4678C93.3749 61.5225 93.3067 61.6122 93.2791 61.7171C93.2515 61.8221 93.2667 61.9337 93.3213 62.0274L93.344 62.0093Z" fill="#3C4145"/>
<path d="M115.039 82.0759C117.463 84.9805 119.315 88.3183 120.497 91.9126C121.593 95.0617 121.756 98.3421 122.562 101.536C122.866 102.746 124.782 102.497 124.741 101.242C124.487 93.9924 121.068 86.2897 115.682 81.4461C115.595 81.3806 115.487 81.3489 115.378 81.3566C115.269 81.3643 115.167 81.4111 115.09 81.4882C115.013 81.5653 114.966 81.6677 114.958 81.7764C114.95 81.8852 114.982 81.9932 115.048 82.0804L115.039 82.0759Z" fill="#3C4145"/>
<path d="M144.969 50.3058C147.569 56.0601 148.239 62.9925 148.742 69.2317C149.198 75.5023 148.843 81.8056 147.687 87.9854C147.392 89.6211 149.748 90.3279 150.205 88.6832C153.539 76.6398 151.723 60.8539 145.621 49.9207C145.381 49.4676 144.77 49.8663 144.969 50.3058Z" fill="#3C4145"/>
<path d="M148.69 80.5847C153.51 91.0784 156.97 102.832 155.122 114.436C153.614 123.892 149.184 132.31 140.043 136.125C138.349 136.832 138.956 139.211 140.809 138.889C151.059 137.122 156.287 126.116 158.094 116.932C160.667 103.842 156.219 91.2053 149.687 80.0047C149.302 79.3477 148.382 79.9231 148.69 80.5847Z" fill="#3C4145"/>
<path d="M149.58 109.366C152.611 120.272 144.503 131.984 134.564 136.067C133.418 136.542 133.867 138.414 135.094 137.979C146.015 134.132 154.024 120.498 150.26 109.175C150.231 109.09 150.17 109.019 150.09 108.976C150.01 108.934 149.917 108.924 149.83 108.949C149.743 108.973 149.669 109.03 149.622 109.107C149.576 109.185 149.561 109.277 149.58 109.366Z" fill="#3C4145"/>
<path d="M121.077 147.948C123.794 152.244 130.358 150.436 134.33 149.308C139.829 147.749 144.649 144.07 146.108 138.365C146.488 136.897 144.296 135.864 143.594 137.305C141.537 141.605 138.851 144.586 134.394 146.453C130.806 147.953 125.049 150.001 121.629 147.359C121.285 147.097 120.846 147.595 121.054 147.93L121.077 147.948Z" fill="#3C4145"/>
<path d="M123.32 141.233C130.382 146.711 139.468 143.498 145.715 138.179C146.543 137.472 145.479 136.163 144.573 136.697C138.34 140.395 130.93 145.379 123.854 140.54C123.447 140.259 122.926 140.925 123.32 141.233Z" fill="#3C4145"/>
<path d="M43.6231 27.3245C41.091 27.7459 39.3697 29.5085 37.6258 31.2755C35.1435 33.7902 32.6431 36.2596 30.4327 39.019C26.2472 44.1843 23.4071 50.0927 21.4775 56.427C17.8537 68.4295 17.1879 82.9513 25.6493 93.0962C26.7999 94.4554 29.0964 92.6748 28.118 91.1932C21.4548 81.071 21.5047 69.6348 24.3493 58.2122C25.7756 52.5314 28.1492 47.1318 31.3703 42.2405C33.1988 39.5279 35.2503 36.9727 37.5035 34.6013C39.4603 32.4853 41.2043 29.7259 43.9719 28.5887C44.1298 28.5342 44.2611 28.4216 44.339 28.2737C44.4168 28.1258 44.4354 27.9539 44.391 27.7928C44.3465 27.6317 44.2424 27.4936 44.0997 27.4066C43.9571 27.3196 43.7866 27.2902 43.6231 27.3245Z" fill="#3C4145"/>
<path d="M47.1319 57.3284C41.6962 64.8453 37.5063 72.8153 35.2641 81.8455C33.0536 90.7398 30.4762 101.823 32.8996 110.88C33.3163 112.439 35.9164 112.167 35.7759 110.49C34.9742 101.016 36.3331 91.9405 38.2174 82.6611C39.9976 73.9073 44.0607 65.7923 48.2643 57.9899C48.3402 57.8405 48.3562 57.6677 48.309 57.5069C48.2617 57.346 48.1548 57.2094 48.0101 57.1248C47.8653 57.0403 47.6938 57.0143 47.5305 57.0521C47.3673 57.09 47.2246 57.1888 47.1319 57.3284Z" fill="#3C4145"/>
<path d="M22.3476 88.9044C19.4984 94.038 16.6719 98.4195 15.2722 104.233C13.9457 109.516 14.0301 115.055 15.5168 120.295C17.9946 128.859 25.994 138.478 35.7691 137.708C37.291 137.59 37.7802 135.324 36.145 134.93C31.8916 133.911 28.2135 132.583 24.9386 129.574C21.7678 126.657 19.6253 122.692 18.3388 118.623C16.8259 113.843 17.0479 108.696 17.9447 103.829C18.4317 101.347 19.0978 98.9028 19.9378 96.5165C20.7984 93.9973 22.5695 91.8133 22.9365 89.1491C22.9817 88.8138 22.5378 88.5555 22.3476 88.9044Z" fill="#3C4145"/>
<path d="M25.1587 114.626C24.7374 121.789 30.4312 131.622 37.9052 132.99C39.3049 133.248 39.9209 131.178 38.5031 130.833C31.7539 129.229 26.427 121.341 25.9378 114.626C25.9378 114.523 25.8967 114.424 25.8237 114.35C25.7506 114.277 25.6515 114.236 25.5482 114.236C25.4449 114.236 25.3458 114.277 25.2728 114.35C25.1997 114.424 25.1587 114.523 25.1587 114.626Z" fill="#3C4145"/>
<path d="M61.1805 12.5895C58.6982 13.3734 55.7449 13.2374 53.172 13.8129C50.6681 14.4124 48.224 15.2389 45.8701 16.2823C40.9962 18.362 36.616 21.7194 32.8654 25.4303C25.858 32.3446 21.36 42.6027 22.284 52.5482C22.3017 52.8203 22.4223 53.0756 22.6213 53.262C22.8202 53.4485 23.0827 53.5523 23.3553 53.5523C23.628 53.5523 23.8904 53.4485 24.0894 53.262C24.2883 53.0756 24.4089 52.8203 24.4266 52.5482C24.8796 48.1259 25.1242 43.8804 26.5284 39.6213C28.1002 34.8457 31.0898 30.6908 34.5051 27.0705C38.0632 23.339 42.2566 20.2705 46.8893 18.0086C49.3837 16.802 51.9921 15.8473 54.6759 15.1586C56.8999 14.5559 59.3686 14.5106 61.4704 13.6271C62.091 13.3643 61.8645 12.372 61.185 12.5895H61.1805Z" fill="#3C4145"/>
<path d="M48.8622 12.4628C60.9746 6.42753 73.9748 7.98165 85.5935 14.3069C85.847 14.4463 86.145 14.4811 86.4239 14.404C86.7027 14.3268 86.9405 14.1437 87.0863 13.8938C87.2323 13.6439 87.2748 13.3468 87.2049 13.066C87.1351 12.7851 86.9583 12.5427 86.7123 12.3903C75.2341 5.21322 60.114 4.75106 48.4772 11.8058C48.3901 11.8569 48.3269 11.9405 48.3014 12.0382C48.2759 12.1359 48.2903 12.2397 48.3413 12.3269C48.3924 12.414 48.476 12.4772 48.5736 12.5027C48.6713 12.5282 48.7751 12.5139 48.8622 12.4628Z" fill="#3C4145"/>
<path d="M69.2401 0.872145C72.8782 2.17416 76.3579 3.88257 79.6131 5.96496C83.4135 8.4434 85.8414 11.7782 88.2195 15.5525C88.9171 16.6626 90.4254 15.702 89.9317 14.5512C86.4257 6.3954 77.4524 2.3583 69.4802 0.0203216C68.9276 -0.138262 68.7192 0.677314 69.2446 0.872145H69.2401Z" fill="#3C4145"/>
<path d="M110.12 3.66369C101.169 0.106878 89.8673 8.48465 85.1201 15.5666C84.5449 16.4229 85.8902 17.4741 86.5515 16.6721C91.7607 10.3288 101.114 2.87077 109.884 4.53364C109.995 4.55153 110.108 4.52782 110.202 4.46709C110.296 4.40637 110.364 4.31292 110.394 4.2048C110.423 4.09668 110.411 3.98155 110.36 3.88162C110.31 3.78169 110.224 3.70405 110.12 3.66369Z" fill="#3C4145"/>
<path d="M93.3049 12.4892C95.837 11.6963 98.4779 12.3487 101.005 12.8698C103.533 13.3908 106.219 13.7035 108.815 14.1747C114.671 15.2395 120.18 17.2059 125.04 20.6902C129.678 24.016 133.261 28.7418 136.55 33.3317C139.925 38.0348 141.166 43.6849 143.761 48.7732C144.391 50.0057 146.352 49.1448 145.972 47.867C144.219 41.9133 142.144 36.0865 138.475 31.0209C134.806 25.9552 130.657 21.3608 125.52 17.8085C120.497 14.3333 114.246 12.9287 108.307 12.0769C105.657 11.6963 102.976 11.5966 100.326 11.2432C97.7667 10.9033 95.3841 10.6405 93.0241 11.8367C92.9498 11.8838 92.8947 11.9557 92.8685 12.0397C92.8422 12.1236 92.8466 12.2142 92.8809 12.2952C92.9151 12.3762 92.977 12.4424 93.0555 12.4821C93.134 12.5218 93.224 12.5323 93.3095 12.5118L93.3049 12.4892Z" fill="#3C4145"/>
<path d="M60.076 173.923C60.7056 176.501 61.6659 178.876 62.1234 181.522C62.5764 184.24 62.5764 187.158 63.7133 189.714C64.198 190.815 65.9419 190.23 65.9102 189.12C65.8332 186.37 65.0586 183.551 64.4517 180.878C63.89 178.404 63.0429 175.06 60.9729 173.402C60.8894 173.316 60.7796 173.26 60.6608 173.244C60.5421 173.227 60.4212 173.25 60.3172 173.31C60.2133 173.37 60.1322 173.463 60.0869 173.574C60.0415 173.685 60.0345 173.808 60.0669 173.923H60.076Z" fill="#3C4145"/>
<path d="M108.997 165.265C108.965 168.437 110.007 171.609 110.809 174.64C111.715 177.957 112.145 181.663 113.458 184.821C113.952 186.013 115.827 185.963 115.827 184.499C115.827 181.328 114.469 178.115 113.477 175.12C112.371 171.767 111.484 168.188 109.957 165.007C109.726 164.522 108.997 164.781 108.992 165.265H108.997Z" fill="#3C4145"/>
<path d="M73.7029 194.798C75.5148 197.603 77.3267 200.235 80.6424 201.314C83.5595 202.261 87.1425 201.119 90.0551 200.688C91.1785 200.521 90.6983 198.826 89.6021 198.985C87.1833 199.338 84.7871 199.868 82.3546 199.814C78.8124 199.732 76.7016 196.769 74.8263 194.164C74.3733 193.52 73.2953 194.109 73.7437 194.798H73.7029Z" fill="#3C4145"/>
<path d="M61.3903 187.97C55.1756 189.066 49.4999 192.501 43.8513 195.156C37.5171 198.114 31.3869 201.491 25.5016 205.264C19.9436 208.848 14.6756 212.686 9.42118 216.692C5.53471 219.659 1.53046 222.817 0.0583144 227.675C-0.394654 229.242 1.91549 230.23 2.69912 228.789C5.19498 224.186 8.78702 221.34 12.8547 218.187C17.7875 214.358 22.8608 210.833 28.088 207.417C33.3169 204.051 38.7259 200.975 44.2907 198.201C50.0842 195.269 55.6376 191.504 61.7481 189.27C61.9131 189.216 62.051 189.101 62.1332 188.948C62.2154 188.795 62.2356 188.616 62.1895 188.449C62.1435 188.282 62.0347 188.139 61.8859 188.049C61.7371 187.96 61.5596 187.931 61.3903 187.97Z" fill="#3C4145"/>
<path d="M114.92 187.063C119.028 188.694 123.549 189.369 127.775 190.688C132.606 192.223 137.338 194.054 141.944 196.17C150.224 199.94 158.292 204.607 164.321 211.485C165.788 213.162 168.076 211.032 167.224 209.22C165.34 205.282 161.109 202.586 157.581 200.253C153.223 197.431 148.652 194.953 143.91 192.84C139.34 190.771 134.615 189.065 129.777 187.738C127.462 187.043 125.1 186.509 122.711 186.139C120.333 185.826 117.244 184.961 114.943 185.758C114.805 185.8 114.685 185.885 114.6 186.001C114.515 186.116 114.469 186.256 114.469 186.399C114.469 186.543 114.515 186.683 114.6 186.798C114.685 186.913 114.805 186.998 114.943 187.041L114.92 187.063Z" fill="#3C4145"/>
<path d="M42.2687 197.648C41.0728 207.48 46.7485 217.693 54.6302 223.234C63.7983 229.682 76.572 230.796 87.407 230.103C99.7504 229.315 111.867 224.965 123.35 220.588C132.772 216.995 148.621 212.314 150.401 200.479C150.641 198.871 148.558 197.72 147.638 199.31C144.812 204.186 142.062 207.376 137.089 210.221C132.115 213.067 126.534 215.069 121.185 217.126C110.681 221.159 99.6327 224.965 88.3854 226.107C78.4201 227.117 67.8342 226.079 58.7432 221.666C49.0995 216.968 45.0137 207.53 43.3513 197.485C43.238 196.809 42.323 197.063 42.2551 197.634L42.2687 197.648Z" fill="#3C4145"/>
<path d="M83.9062 207.298C81.4194 206.084 79.6845 208.708 79.5622 210.923C79.5139 212.179 79.9534 213.404 80.7886 214.343C81.6238 215.281 82.7898 215.86 84.042 215.957C86.2389 216.107 88.0689 214.118 88.5717 212.142C89.1923 209.632 87.4031 206.705 84.7034 206.678C83.4079 206.678 83.2358 208.227 84.1009 208.893C85.102 209.659 86.1393 209.99 86.0623 211.426C86.0117 211.915 85.8133 212.376 85.4936 212.748C85.1738 213.121 84.748 213.387 84.2731 213.51C83.0365 213.805 81.981 212.351 81.7455 211.34C81.6455 210.983 81.621 210.608 81.6734 210.241C81.7259 209.873 81.8541 209.521 82.05 209.205C82.246 208.89 82.5053 208.619 82.8116 208.409C83.1179 208.199 83.4644 208.056 83.8291 207.987C83.9007 207.967 83.9647 207.926 84.0133 207.87C84.0619 207.813 84.0929 207.744 84.1025 207.67C84.1122 207.597 84.1 207.522 84.0675 207.455C84.035 207.388 83.9837 207.332 83.9197 207.294L83.9062 207.298Z" fill="#3C4145"/>
<path d="M94.7326 207.053C93.7859 204.448 90.9005 206.759 90.2029 208.272C88.9301 210.991 90.144 213.936 93.2106 214.43C94.3495 214.614 95.5155 214.356 96.4708 213.709C97.4262 213.063 98.099 212.076 98.3519 210.95C99.0222 207.874 96.2274 205.821 93.4643 205.64C91.9967 205.545 91.8246 207.697 93.1291 208.109C94.2706 208.472 95.8062 208.947 95.7971 210.27C95.7503 210.707 95.5598 211.115 95.2555 211.431C94.9513 211.746 94.5506 211.952 94.1166 212.015C90.3887 212.418 92.0103 206.46 94.2751 207.416C94.5061 207.516 94.8549 207.352 94.7281 207.053H94.7326Z" fill="#3C4145"/>
<path d="M104.44 204.154C104.041 203.311 103.294 202.704 102.32 202.849C101.346 202.994 100.657 203.877 100.254 204.661C99.998 205.174 99.8508 205.734 99.8217 206.307C99.7927 206.88 99.8825 207.452 100.085 207.989C100.288 208.525 100.6 209.013 101.001 209.423C101.402 209.833 101.883 210.155 102.415 210.37C104.227 211.095 106.342 209.953 107.094 208.218C108.113 205.848 106.831 203.42 104.471 202.581C103.361 202.187 102.469 203.778 103.325 204.552C103.81 204.946 104.239 205.403 104.603 205.912C104.795 206.216 104.858 206.584 104.779 206.936C104.715 207.252 104.546 207.538 104.3 207.747C104.053 207.956 103.743 208.076 103.42 208.086C103.065 208.025 102.744 207.838 102.514 207.561C102.327 207.364 102.189 207.125 102.11 206.865C102.031 206.604 102.015 206.329 102.061 206.061C102.1 205.602 102.267 205.162 102.542 204.792C102.877 204.385 103.13 204.539 103.475 204.879C103.581 204.975 103.718 205.031 103.862 205.036C104.005 205.041 104.146 204.996 104.26 204.908C104.373 204.82 104.452 204.695 104.482 204.554C104.513 204.414 104.493 204.267 104.426 204.14L104.44 204.154Z" fill="#3C4145"/>
<path d="M112.739 201.056C112.709 200.799 112.629 200.55 112.503 200.323C112.377 200.097 112.208 199.898 112.004 199.738C111.801 199.578 111.567 199.46 111.318 199.391C111.068 199.321 110.808 199.302 110.551 199.334C109.916 199.415 109.314 199.665 108.809 200.057C108.303 200.449 107.911 200.969 107.674 201.564C106.864 203.625 108.073 206.235 110.333 206.584C111.308 206.722 112.301 206.582 113.2 206.182C114.099 205.781 114.867 205.135 115.416 204.318C116.802 202.248 115.416 199.651 113.337 198.727C113.087 198.593 112.801 198.541 112.52 198.578C112.239 198.614 111.977 198.738 111.769 198.931C111.532 199.173 111.4 199.499 111.4 199.837C111.4 200.176 111.532 200.501 111.769 200.743C112.292 201.121 112.751 201.58 113.128 202.103C113.323 202.452 113.051 201.863 113.178 202.216C113.203 202.289 113.224 202.363 113.241 202.438C113.241 202.252 113.219 202.239 113.241 202.397C113.241 202.47 113.214 202.823 113.241 202.461C113.218 202.601 113.182 202.739 113.133 202.873C113.241 202.565 113.133 202.873 113.083 202.941C113.047 203.005 113.008 203.067 112.965 203.127C113.069 203.004 113.069 203 112.965 203.127C112.891 203.214 112.813 203.297 112.73 203.376C112.675 203.43 112.616 203.48 112.557 203.53C112.671 203.448 112.671 203.448 112.557 203.53C112.331 203.691 112.088 203.828 111.833 203.938C112.086 203.825 111.728 203.965 111.701 203.974C111.553 204.022 111.401 204.061 111.248 204.092C110.881 204.164 111.502 204.092 111.131 204.092C110.98 204.103 110.828 204.103 110.678 204.092C110.972 204.115 110.632 204.092 110.582 204.065C110.512 204.047 110.442 204.024 110.374 203.997C110.505 204.056 110.505 204.056 110.374 203.997C110.021 203.815 109.885 203.643 109.731 203.091C109.647 202.753 109.656 202.398 109.756 202.065C109.856 201.732 110.045 201.432 110.302 201.197C110.936 200.553 111.615 200.743 112.236 201.265C112.412 201.414 112.784 201.337 112.752 201.052L112.739 201.056Z" fill="#3C4145"/>
<path d="M119.777 196.506C120.017 195.6 119.908 194.852 118.871 194.517C117.834 194.182 116.579 195.047 115.931 195.79C114.323 197.643 114.758 200.987 117.027 202.133C118.88 203.062 121.226 202.21 122.463 200.665C124.13 198.599 123.632 195.967 121.58 194.399C120.619 193.665 119.165 195.119 119.899 196.08C120.303 196.562 120.611 197.117 120.805 197.716C120.876 198.06 120.821 198.418 120.651 198.726C120.445 199.112 120.142 199.437 119.772 199.67C119.402 199.903 118.977 200.035 118.54 200.054C118.375 200.054 118.212 200.019 118.063 199.949C117.913 199.879 117.781 199.777 117.675 199.65C117.482 199.413 117.339 199.139 117.255 198.844C117.171 198.55 117.148 198.241 117.186 197.938C117.286 197.362 118.735 195.219 119.22 196.529C119.237 196.59 119.274 196.644 119.326 196.683C119.377 196.721 119.439 196.742 119.503 196.742C119.567 196.742 119.629 196.721 119.68 196.683C119.731 196.644 119.768 196.59 119.786 196.529L119.777 196.506Z" fill="#3C4145"/>
<path d="M126.834 190.995C126.762 190.716 126.635 190.454 126.46 190.224C126.285 189.995 126.066 189.803 125.815 189.66C125.565 189.518 125.288 189.427 125.002 189.393C124.715 189.359 124.425 189.383 124.148 189.464C123.483 189.653 122.885 190.026 122.423 190.54C121.961 191.054 121.653 191.687 121.534 192.368C121.176 194.366 121.987 196.446 124.252 196.514C125.112 196.487 125.949 196.232 126.678 195.775C127.407 195.318 128.002 194.676 128.401 193.913C128.641 193.409 128.766 192.857 128.765 192.299C128.764 191.74 128.638 191.189 128.397 190.686C128.155 190.182 127.804 189.739 127.369 189.389C126.934 189.039 126.426 188.79 125.883 188.662C124.719 188.363 123.754 189.858 124.682 190.728C124.986 191.018 125.235 191.222 125.493 191.462C125.593 191.553 125.693 191.643 125.788 191.743L125.951 191.929C125.851 191.802 125.847 191.802 125.951 191.929C126.055 192.056 126.132 192.314 126.001 191.983C126.032 192.069 126.114 192.509 126.064 192.101C126.075 192.228 126.075 192.355 126.064 192.482C126.091 192.083 126.064 192.482 126.019 192.586C125.928 192.903 126.155 192.318 126.019 192.618C125.96 192.737 125.894 192.852 125.819 192.962C125.788 193.016 125.579 193.279 125.792 193.016C125.706 193.121 125.614 193.221 125.516 193.315C125.443 193.388 125.366 193.456 125.289 193.519C125.543 193.302 125.199 193.578 125.144 193.614C125.031 193.688 124.913 193.754 124.791 193.814C124.592 193.918 125 193.75 124.651 193.873C124.562 193.904 124.471 193.929 124.379 193.95C124.017 194.04 124.492 193.95 124.275 193.95C124.189 193.954 124.103 193.954 124.017 193.95C124.383 193.95 124.053 193.95 123.949 193.913C124.261 194.009 124.048 193.95 123.949 193.913C123.849 193.877 124.116 194.086 123.89 193.832C124.162 194.135 123.79 193.564 123.926 193.891C123.871 193.754 123.831 193.611 123.808 193.465C123.731 193.093 123.808 193.691 123.781 193.274C123.77 193.074 123.77 192.873 123.781 192.672C123.813 192.296 123.973 191.943 124.234 191.671C124.796 191.036 125.643 190.61 126.336 191.276C126.382 191.32 126.441 191.347 126.503 191.355C126.566 191.363 126.63 191.35 126.685 191.318C126.74 191.286 126.783 191.238 126.808 191.18C126.834 191.122 126.839 191.057 126.825 190.995H126.834Z" fill="#3C4145"/>
<path d="M129.686 188.129C129.084 187.277 128.042 186.579 126.969 187.01C126.621 187.124 126.318 187.344 126.104 187.641C125.889 187.937 125.773 188.293 125.773 188.659C125.773 189.025 125.889 189.381 126.104 189.678C126.318 189.974 126.621 190.195 126.969 190.308C127.178 190.425 127.42 190.472 127.658 190.442C127.896 190.412 128.118 190.306 128.291 190.141C128.461 189.97 128.57 189.747 128.6 189.508C128.631 189.268 128.581 189.026 128.459 188.818C128.4 188.736 128.187 188.306 128.319 188.641C128.252 188.454 128.169 188.274 128.069 188.102C128.121 188.173 128.155 188.257 128.167 188.345C128.179 188.432 128.169 188.522 128.137 188.605L128.06 188.781C128.115 188.686 128.087 188.718 127.974 188.872C128.024 188.813 128.178 188.7 127.933 188.872L128.038 188.809C128.232 188.695 127.82 188.881 128.038 188.809C128.151 188.772 128.264 188.736 128.382 188.709H128.617C128.735 188.738 128.848 188.784 128.953 188.845C129.406 189.103 129.99 188.568 129.673 188.124L129.686 188.129Z" fill="#3C4145"/>
<path d="M60.0528 190.712C60.0708 190.382 59.9623 190.058 59.7494 189.805C59.3652 189.46 58.8664 189.269 58.3497 189.271C57.1584 189.166 55.8629 189.828 54.9116 190.485C53.1994 191.672 52.3841 194.11 53.9604 195.754C55.1744 197.023 57.412 197.141 58.9431 196.529C59.89 196.19 60.6817 195.519 61.1717 194.64C61.7152 193.607 61.9327 191.835 60.7187 191.192C60.4788 191.053 60.1998 190.997 59.9248 191.032C59.6498 191.067 59.3939 191.192 59.1967 191.387C58.6532 191.976 58.7755 192.778 58.6577 193.253C58.5943 193.521 58.4493 193.657 58.1323 193.851C57.8002 194.034 57.4321 194.141 57.054 194.166C56.6759 194.19 56.2971 194.131 55.9444 193.992C55.6681 193.856 55.8131 193.947 55.6092 193.725C55.7179 193.847 55.6092 193.575 55.6092 193.725C55.5913 193.52 55.6167 193.313 55.6838 193.119C55.7509 192.925 55.8582 192.747 55.9988 192.596C56.4987 192.084 57.1048 191.688 57.7744 191.436C58.0609 191.297 58.366 191.199 58.6804 191.146C58.8153 191.11 58.9576 191.11 59.0926 191.146C59.3643 191.228 59.3689 191.237 59.2556 191.146C59.3273 191.217 59.4204 191.262 59.5203 191.274C59.6203 191.286 59.7213 191.264 59.8075 191.212C59.8938 191.16 59.9602 191.081 59.9964 190.987C60.0326 190.893 60.0366 190.79 60.0075 190.693L60.0528 190.712Z" fill="#3C4145"/>
<path d="M63.0774 196.913C62.6697 193.742 59.0278 194.729 57.3473 196.288C55.6668 197.847 55.2999 201.168 57.2114 202.631C58.7424 203.791 61.0163 203.202 62.3934 202.101C64.2052 200.647 64.2052 197.906 62.1216 196.718C61.0933 196.134 60.2191 197.258 60.6313 198.209C60.7174 198.413 60.7672 198.631 60.8442 198.844C60.8895 198.975 60.9439 199.102 60.9846 199.242C61.0934 199.632 60.9846 199.002 60.9846 199.387C60.9846 199.455 60.9212 199.809 60.9846 199.496C60.9846 199.55 60.8352 199.89 60.962 199.618C60.7989 199.967 60.8759 199.813 60.663 200.026C60.4073 200.25 60.1077 200.419 59.7833 200.521C59.4589 200.623 59.1167 200.657 58.7787 200.62C58.4978 200.556 58.4525 200.493 58.3982 200.352C58.1626 199.759 58.3529 199.07 58.525 198.463C58.9417 196.99 61.4603 195.364 62.5202 197.076C62.6606 197.298 63.1045 197.235 63.0638 196.927L63.0774 196.913Z" fill="#3C4145"/>
<path d="M68.3389 200.855C66.2416 198.485 62.5726 200.166 61.5443 202.749C60.7018 204.865 61.0914 207.783 63.4106 208.762C64.3352 209.129 65.3456 209.223 66.3224 209.035C67.2992 208.846 68.2017 208.382 68.9232 207.697C70.6943 206.034 70.2459 203.383 68.511 201.902C67.5235 201.059 65.8158 202.155 66.6131 203.365C66.9635 203.857 67.2228 204.408 67.3786 204.992C67.3954 205.254 67.3184 205.515 67.1612 205.726C66.8716 206.059 66.5045 206.316 66.0921 206.474C65.6798 206.632 65.2349 206.687 64.7967 206.632C63.7231 206.455 63.3834 205.535 63.3879 204.457C63.3879 201.929 65.8702 200.76 68.0716 201.335C68.1276 201.344 68.1849 201.336 68.2362 201.311C68.2875 201.287 68.3304 201.249 68.3596 201.2C68.3887 201.151 68.4027 201.095 68.3999 201.039C68.397 200.982 68.3773 200.928 68.3434 200.882L68.3389 200.855Z" fill="#3C4145"/>
<path d="M74.834 205.821C74.5758 205.051 74.0051 204.375 73.1127 204.484C72.0799 204.611 71.3325 205.39 70.7799 206.215C69.5433 208.027 69.421 210.479 71.1559 212.037C72.6462 213.397 74.8431 213.116 76.2971 211.888C78.0501 210.411 77.4159 207.896 75.4455 207.031C74.4716 206.605 73.457 207.71 74.2678 208.558C74.6026 208.874 74.8439 209.277 74.9654 209.722C74.9065 209.473 74.9654 209.776 74.9654 209.835C74.9654 209.572 74.9336 209.881 74.9201 209.935C74.9563 209.817 74.757 210.157 74.7525 210.166C74.5011 210.453 74.1589 210.645 73.783 210.71C73.4071 210.776 73.0202 210.71 72.6869 210.524C71.6134 209.908 71.6859 208.653 72.0392 207.66C72.3472 206.804 73.2486 205.164 74.2134 206.192C74.273 206.251 74.3504 206.289 74.4334 206.299C74.5165 206.309 74.6007 206.292 74.6729 206.25C74.7451 206.207 74.8014 206.143 74.833 206.065C74.8646 205.987 74.8697 205.902 74.8476 205.821H74.834Z" fill="#3C4145"/>
<path d="M80.243 208.541C79.8683 208.273 79.4256 208.116 78.9656 208.088C78.7309 208.096 78.5003 208.151 78.2877 208.251C78.0751 208.35 77.885 208.492 77.729 208.668C77.5454 208.872 77.4161 209.12 77.3528 209.387C77.2895 209.655 77.2942 209.934 77.3666 210.199C77.4652 210.5 77.631 210.774 77.8513 211.001C78.0046 211.178 78.1959 211.317 78.4109 211.409C78.6259 211.501 78.8589 211.543 79.0924 211.531C79.8715 211.495 80.4513 210.458 79.781 209.873C79.5706 209.673 79.3206 209.518 79.0471 209.42C79.2872 209.497 79.0924 209.42 79.0471 209.42C78.8524 209.307 79.2011 209.565 79.0471 209.42C78.8931 209.275 79.1649 209.601 79.0471 209.42C79.0064 209.357 78.9656 209.212 79.0471 209.447C79.0245 209.379 79.0245 209.23 79.0471 209.447C79.0471 209.393 79.0743 209.23 79.0471 209.447C79.058 209.395 79.0716 209.344 79.0879 209.293C79.029 209.47 79.0879 209.316 79.1151 209.293C79.2057 209.148 79.029 209.384 79.1513 209.257C79.2736 209.13 79.0653 209.302 79.2102 209.202C79.3099 209.132 79.4278 209.091 79.5498 209.086C79.6719 209.08 79.7929 209.11 79.8987 209.171C79.9782 209.206 80.0679 209.211 80.1507 209.184C80.2334 209.157 80.3033 209.101 80.3471 209.025C80.3908 208.95 80.4053 208.862 80.3878 208.776C80.3702 208.691 80.3219 208.615 80.252 208.564L80.243 208.541Z" fill="#3C4145"/>
<path d="M56.1073 190.447C55.9498 190.309 55.8206 190.141 55.7268 189.954C55.6589 189.781 55.6906 189.872 55.6906 189.777C55.6906 190.008 55.7721 189.573 55.6906 189.809C55.8083 189.523 55.917 189.469 56.2794 189.355C56.3338 189.355 56.7324 189.283 56.4334 189.315C56.5571 189.306 56.6812 189.306 56.8049 189.315C57.1446 189.315 56.7596 189.287 56.9543 189.315C57.0268 189.315 57.4073 189.473 57.1038 189.346C57.1718 189.374 57.4888 189.605 57.2442 189.41C57.3462 189.495 57.4374 189.593 57.516 189.7C57.6066 189.809 57.6066 189.804 57.516 189.7C57.5568 189.759 57.5976 189.827 57.6338 189.89C57.67 189.954 57.7017 190.031 57.6564 189.926C57.6881 190.012 57.7153 190.094 57.738 190.18C57.8361 190.474 58.0432 190.719 58.3165 190.865C58.5898 191.01 58.9086 191.045 59.2071 190.963C59.5057 190.88 59.7612 190.686 59.921 190.421C60.0808 190.156 60.1328 189.839 60.0662 189.537C59.722 187.244 57.285 186.41 55.3689 187.439C54.9915 187.629 54.6668 187.909 54.4234 188.254C54.1801 188.599 54.0256 189 53.9738 189.419C53.8923 190.393 54.8118 191.046 55.5954 191.354C56.1209 191.558 56.4742 190.81 56.1209 190.447H56.1073Z" fill="#3C4145"/>
<path d="M186.109 170.721C192.152 164.001 191.998 151.238 189.212 143.218C187.887 139.34 185.309 136.014 181.883 133.766C179.405 132.112 175.677 132.044 174.522 135.302C173.209 139.008 174.473 143.408 174.808 147.21C175.419 154.187 175.741 160.182 171.922 166.367C168.797 171.423 165.694 175.882 164.394 181.804C163.28 186.896 163.488 192.71 165.572 197.521C166.111 198.763 168.258 198.151 168.131 196.824C167.678 192.012 166.881 187.567 167.755 182.732C168.629 177.898 170.958 173.806 173.607 169.81C175.945 166.285 177.924 162.56 178.291 158.274C178.681 153.702 178.051 149.122 177.566 144.582C177.39 142.923 175.51 134.944 178.875 135.579C182.499 136.267 185.194 140.943 186.435 143.983C189.443 151.369 188.727 162.742 184.909 169.81C184.51 170.553 185.511 171.405 186.109 170.716V170.721Z" fill="#3C4145"/>
<path d="M187.471 169.217V169.294L186.742 169.847C191.43 171.206 196.177 172.284 200.784 173.902C203.692 174.917 207.035 176.466 207.058 179.996C207.058 182.262 206.881 183.938 207.628 186.136C208.579 188.927 210.305 191.21 208.987 194.205C208.237 195.849 207.627 197.552 207.162 199.298C206.043 203.657 205.273 206.865 202.088 210.218C200.956 211.409 202.378 213.122 203.792 212.424C208.027 210.331 209.037 205.098 209.979 200.925C210.541 198.442 211.596 196.235 212.439 193.852C213.458 190.97 211.655 187.88 210.627 185.302C209.499 182.533 210.627 179.692 209.635 176.915C208.761 174.473 206.22 173 204.027 171.931C201.26 170.594 198.197 169.937 195.24 169.158C192.354 168.397 189.464 167.504 186.633 168.768C186.537 168.825 186.459 168.909 186.41 169.01C186.36 169.11 186.342 169.223 186.356 169.334C186.371 169.445 186.418 169.55 186.491 169.634C186.564 169.719 186.661 169.78 186.769 169.81C186.882 169.846 187.003 169.853 187.12 169.829C187.236 169.805 187.345 169.752 187.435 169.674C187.475 169.65 187.509 169.616 187.535 169.577C187.561 169.537 187.577 169.492 187.583 169.445C187.59 169.398 187.585 169.35 187.57 169.305C187.556 169.26 187.531 169.219 187.498 169.185L187.471 169.217Z" fill="#3C4145"/>
<path d="M201.589 175.899C199.297 175.595 196.973 175.799 194.677 176.03C192.552 176.248 190.075 176.397 188.195 177.449C187.996 177.572 187.842 177.756 187.756 177.974C187.67 178.191 187.656 178.431 187.717 178.657C187.778 178.883 187.911 179.083 188.095 179.228C188.279 179.373 188.504 179.454 188.738 179.46C190.817 179.46 192.933 178.622 194.976 178.233C197.241 177.779 199.505 177.557 201.77 177.113C202.513 176.964 202.223 175.981 201.603 175.899H201.589Z" fill="#3C4145"/>
<path d="M189.856 177.897C185.471 176.424 180.878 174.227 176.208 175.731C173.114 176.728 170.527 180.484 173.223 183.284C176.108 186.275 180.923 187.544 184.819 188.459C188.959 189.437 195.717 189.07 199.259 186.442C199.471 186.319 199.625 186.117 199.687 185.881C199.749 185.644 199.715 185.392 199.592 185.181C199.469 184.969 199.267 184.815 199.03 184.753C198.794 184.69 198.542 184.724 198.331 184.848C191.926 187.607 184.334 186.094 178.319 183.035C177.212 182.546 176.24 181.795 175.487 180.847C174.251 179.084 179.22 178.223 180.017 178.183C183.247 178.01 186.431 179.265 189.674 179.261C189.837 179.253 189.992 179.188 190.112 179.078C190.232 178.968 190.31 178.82 190.332 178.658C190.354 178.497 190.319 178.333 190.233 178.195C190.147 178.057 190.015 177.953 189.86 177.902L189.856 177.897Z" fill="#3C4145"/>
<path d="M203.19 194.766C200.648 193.946 198.08 194.897 195.516 195.174C191.793 195.572 187.734 195.627 184.192 194.372C181.939 193.533 179.817 192.379 177.887 190.946C175.577 189.292 174.544 187.706 175.432 184.997C175.483 184.793 175.474 184.578 175.405 184.379C175.336 184.179 175.21 184.005 175.042 183.877C174.875 183.749 174.674 183.672 174.464 183.657C174.254 183.642 174.044 183.689 173.86 183.792C168.229 187.453 176.301 193.443 179.391 195.169C182.348 196.886 185.677 197.864 189.093 198.019C193.958 198.182 198.347 195.898 203.081 195.559C203.179 195.556 203.272 195.518 203.345 195.453C203.418 195.388 203.465 195.299 203.478 195.202C203.491 195.105 203.469 195.006 203.416 194.924C203.363 194.842 203.283 194.781 203.19 194.752V194.766Z" fill="#3C4145"/>
<path d="M201.724 202.043C200.772 199.846 193.394 202.306 191.826 202.614C188.357 203.294 185.453 201.939 182.436 200.349C179.098 198.577 178.115 196.334 176.883 192.968C176.797 192.688 176.615 192.448 176.369 192.29C176.123 192.133 175.829 192.068 175.539 192.107C175.25 192.146 174.984 192.287 174.788 192.504C174.593 192.722 174.481 193.002 174.473 193.294C173.984 199.787 181.132 203.194 186.164 205.074C188.882 206.103 191.781 205.156 194.413 204.404C196.759 203.738 199.169 203.248 201.502 202.591C201.556 202.575 201.606 202.548 201.647 202.51C201.689 202.472 201.722 202.425 201.743 202.373C201.765 202.321 201.774 202.264 201.771 202.208C201.767 202.152 201.751 202.097 201.724 202.048V202.043Z" fill="#3C4145"/>
<path d="M166.108 196.579C164.296 199.787 164.704 203.752 164.6 207.322C164.478 211.464 164.147 215.931 165.547 219.905C166 221.183 168.038 221.051 167.997 219.574C167.784 212.025 166.756 204.409 167.091 196.842C167.089 196.728 167.049 196.617 166.978 196.527C166.907 196.437 166.809 196.372 166.698 196.342C166.587 196.313 166.47 196.32 166.364 196.362C166.257 196.405 166.168 196.481 166.108 196.579Z" fill="#3C4145"/>
<path d="M194.492 225.378C195.316 227.163 191.013 228.345 189.962 228.44C186.945 228.717 183.879 228.028 180.989 227.24C178.071 226.378 175.215 225.318 172.441 224.068C171.386 223.615 170.331 223.162 169.316 222.636C168.179 222.029 167.531 220.928 166.535 220.149C165.28 219.175 163.491 220.847 164.723 221.961C165.955 223.076 166.503 224.263 167.839 225.133C169.393 226.175 171.508 226.71 173.234 227.367C177.628 229.043 182.162 230.402 186.878 230.67C189.627 230.824 192.399 230.475 194.515 228.572C195.593 227.602 197.069 225.622 195.094 224.743C195.007 224.686 194.903 224.661 194.799 224.672C194.696 224.683 194.599 224.729 194.525 224.803C194.452 224.877 194.406 224.974 194.396 225.078C194.386 225.182 194.412 225.286 194.469 225.373L194.492 225.378Z" fill="#3C4145"/>
<path d="M163.544 216.387C162.675 227.312 162.847 238.277 162.879 249.223C162.879 250.628 165.053 250.628 165.057 249.223C165.057 238.277 165.139 227.334 165.134 216.387C165.134 215.35 163.626 215.382 163.544 216.387Z" fill="#3C4145"/>
<path d="M195.922 226.511C193.236 226.579 194.64 231.314 194.966 232.854C196.602 240.684 196.239 249.057 197.118 257C197.263 258.309 199.265 258.359 199.215 257C198.998 250.516 198.495 244.069 197.643 237.639C197.571 237.118 195.261 227.336 195.999 227.096C196.068 227.074 196.126 227.03 196.165 226.97C196.204 226.909 196.22 226.837 196.211 226.766C196.202 226.695 196.168 226.63 196.115 226.581C196.062 226.533 195.994 226.505 195.922 226.502V226.511Z" fill="#3C4145"/>
<path d="M190.595 224.725C191.832 225.045 193.007 225.567 194.073 226.271C195.038 226.86 195.913 225.364 194.952 224.766C193.711 223.93 192.276 223.426 190.785 223.303C190.61 223.304 190.442 223.369 190.312 223.484C190.181 223.6 190.096 223.759 190.073 223.932C190.05 224.105 190.09 224.28 190.186 224.426C190.281 224.572 190.427 224.678 190.595 224.725Z" fill="#3C4145"/>
<path d="M204.098 210.122C198.599 212.841 192.058 208.795 186.368 209.47C185.218 209.606 184.747 211.368 186.069 211.649C189.648 212.401 193.421 212.401 197.063 212.705C199.781 212.932 202.544 212.755 204.582 210.748C204.922 210.417 204.496 209.923 204.098 210.122Z" fill="#3C4145"/>
<path d="M177.488 200.516C177.348 201.54 177.787 202.65 177.941 203.688C178.117 205.161 178.729 206.548 179.699 207.671C181.61 209.773 184.659 212.519 187.716 211.563C187.975 211.486 188.203 211.327 188.364 211.11C188.526 210.893 188.613 210.63 188.613 210.36C188.613 210.089 188.526 209.826 188.364 209.61C188.203 209.393 187.975 209.234 187.716 209.157C184.986 208.454 182.573 206.849 180.867 204.603C179.961 203.389 179.934 200.489 178.172 200.136C177.914 200.086 177.543 200.208 177.502 200.521L177.488 200.516Z" fill="#3C4145"/>
<path d="M191.504 211.676C188.307 210.57 184.656 210.951 181.353 209.977C177.009 208.699 175.465 205.269 173.698 201.522C173.291 200.643 171.941 201.11 171.945 201.975C171.977 211.014 184.135 215.056 191.504 212.578C191.596 212.543 191.675 212.48 191.731 212.4C191.787 212.319 191.817 212.223 191.817 212.124C191.817 212.026 191.787 211.93 191.731 211.849C191.675 211.768 191.596 211.706 191.504 211.671V211.676Z" fill="#3C4145"/>
<path d="M191.157 212.316C189.373 213.249 189.717 216.779 189.731 218.405C189.731 221.219 190.265 224.001 190.261 226.806C190.259 227.024 190.315 227.24 190.424 227.429C190.533 227.619 190.691 227.776 190.881 227.884C191.08 227.976 191.293 228.033 191.511 228.052C191.783 228.056 192.049 227.969 192.267 227.805C192.484 227.641 192.641 227.409 192.711 227.145C193.105 224.88 192.308 222.574 192.041 220.349C191.725 217.818 191.651 215.263 191.819 212.719C191.815 212.643 191.793 212.569 191.753 212.504C191.713 212.439 191.658 212.385 191.592 212.347C191.526 212.31 191.452 212.289 191.376 212.287C191.3 212.286 191.225 212.303 191.157 212.338V212.316Z" fill="#3C4145"/>
<path d="M122.763 186.552C122.849 186.077 123.216 184.658 123.863 184.622C124.511 184.586 125.313 185.143 125.875 185.528C127.354 186.619 128.589 188.008 129.498 189.606C130.051 190.562 131.618 189.923 131.31 188.849C130.558 186.385 127.945 184.155 125.644 183.168C124.715 182.769 123.614 182.556 122.735 183.195C121.544 184.06 121.884 185.347 122.165 186.561C122.184 186.625 122.224 186.682 122.278 186.721C122.332 186.761 122.397 186.783 122.464 186.783C122.531 186.783 122.596 186.761 122.65 186.721C122.704 186.682 122.743 186.625 122.763 186.561V186.552Z" fill="#3C4145"/>
</svg>
