<svg width="20" height="20" viewBox="0 0 20 20" fill="none" xmlns="http://www.w3.org/2000/svg">
<path fill-rule="evenodd" clip-rule="evenodd" d="M12.0199 10L19.5811 2.43884C20.1396 1.88029 20.1396 0.977465 19.5811 0.418914C19.0225 -0.139638 18.1197 -0.139638 17.5612 0.418914L10 7.98007L2.43884 0.418914C1.88029 -0.139638 0.977465 -0.139638 0.418914 0.418914C-0.139638 0.977465 -0.139638 1.88029 0.418914 2.43884L7.98007 10L0.418914 17.5612C-0.139638 18.1197 -0.139638 19.0225 0.418914 19.5811C0.697475 19.8596 1.06318 19.9996 1.42888 19.9996C1.79458 19.9996 2.16028 19.8596 2.43884 19.5811L10 12.0199L17.5612 19.5811C17.8397 19.8596 18.2054 19.9996 18.5711 19.9996C18.9368 19.9996 19.3025 19.8596 19.5811 19.5811C20.1396 19.0225 20.1396 18.1197 19.5811 17.5612L12.0199 10Z" fill="white"/>
</svg>
