<svg width="210" height="216" viewBox="0 0 210 216" fill="none" xmlns="http://www.w3.org/2000/svg">
<rect width="210" height="197" rx="10" transform="matrix(1 0 0 -1 0 216)" fill="#2C3135"/>
<path d="M176 19H195V0L176 19Z" fill="#2C3135"/>
<path d="M30.985 38.9V48H30.062V40.72L26.487 46.843H26.032L22.457 40.759V48H21.534V38.9H22.327L26.279 45.647L30.192 38.9H30.985ZM36.9636 43.58C37.8216 43.5887 38.4759 43.7793 38.9266 44.152C39.3772 44.5247 39.6026 45.062 39.6026 45.764C39.6026 46.492 39.3599 47.051 38.8746 47.441C38.3892 47.831 37.6959 48.0217 36.7946 48.013L34.0906 48V41.162H35.0136V43.554L36.9636 43.58ZM40.7466 41.162H41.6696V48H40.7466V41.162ZM36.7426 47.311C37.3752 47.3197 37.8519 47.194 38.1726 46.934C38.5019 46.6653 38.6666 46.2753 38.6666 45.764C38.6666 45.2613 38.5062 44.8887 38.1856 44.646C37.8649 44.4033 37.3839 44.2777 36.7426 44.269L35.0136 44.243V47.285L36.7426 47.311ZM55.864 41.162V48H55.019V42.592L52.25 47.168H51.834L49.065 42.579V48H48.22V41.162H49.156L52.055 46.089L55.006 41.162H55.864ZM58.7505 41.162H59.6735V46.596L64.2365 41.162H65.0555V48H64.1325V42.566L59.5825 48H58.7505V41.162ZM67.9607 41.162H68.8837V44.191H73.1867V41.162H74.1097V48H73.1867V44.984H68.8837V48H67.9607V41.162ZM76.9931 41.162H77.9161V46.596L82.4791 41.162H83.2981V48H82.3751V42.566L77.8251 48H76.9931V41.162ZM93.8473 41.162V48H93.0023V42.592L90.2333 47.168H89.8173L87.0483 42.579V48H86.2033V41.162H87.1393L90.0383 46.089L92.9893 41.162H93.8473ZM96.7338 41.162H97.6568V46.596L102.22 41.162H103.039V48H102.116V42.566L97.5658 48H96.7338V41.162ZM109.132 44.438C109.618 44.5507 109.99 44.7457 110.25 45.023C110.519 45.3003 110.653 45.6383 110.653 46.037C110.653 46.4357 110.515 46.791 110.237 47.103C109.969 47.415 109.6 47.6577 109.132 47.831C108.664 47.9957 108.149 48.078 107.585 48.078C107.091 48.078 106.606 48.0087 106.129 47.87C105.653 47.7227 105.237 47.5103 104.881 47.233L105.193 46.544C105.505 46.778 105.869 46.96 106.285 47.09C106.701 47.22 107.122 47.285 107.546 47.285C108.179 47.285 108.695 47.168 109.093 46.934C109.501 46.6913 109.704 46.3663 109.704 45.959C109.704 45.595 109.54 45.3133 109.21 45.114C108.881 44.906 108.43 44.802 107.858 44.802H106.688V44.126H107.806C108.318 44.126 108.729 44.0307 109.041 43.84C109.353 43.6407 109.509 43.3763 109.509 43.047C109.509 42.683 109.332 42.397 108.976 42.189C108.63 41.981 108.175 41.877 107.611 41.877C106.875 41.877 106.147 42.0633 105.427 42.436L105.167 41.721C105.982 41.2963 106.827 41.084 107.702 41.084C108.222 41.084 108.69 41.162 109.106 41.318C109.531 41.4653 109.86 41.6777 110.094 41.955C110.337 42.2323 110.458 42.553 110.458 42.917C110.458 43.2637 110.337 43.5713 110.094 43.84C109.86 44.1087 109.54 44.308 109.132 44.438ZM113.009 41.162H113.932V46.596L118.495 41.162H119.314V48H118.391V42.566L113.841 48H113.009V41.162ZM125.742 41.11C126.383 41.11 126.964 41.2573 127.484 41.552C128.004 41.838 128.411 42.2453 128.706 42.774C129.001 43.3027 129.148 43.905 129.148 44.581C129.148 45.2657 129.001 45.8723 128.706 46.401C128.411 46.9297 128.004 47.3413 127.484 47.636C126.973 47.922 126.392 48.065 125.742 48.065C125.187 48.065 124.685 47.9523 124.234 47.727C123.792 47.493 123.428 47.155 123.142 46.713V50.522H122.219V41.162H123.103V42.514C123.38 42.0633 123.744 41.7167 124.195 41.474C124.654 41.2313 125.17 41.11 125.742 41.11ZM125.677 47.246C126.154 47.246 126.587 47.1377 126.977 46.921C127.367 46.6957 127.67 46.3793 127.887 45.972C128.112 45.5647 128.225 45.101 128.225 44.581C128.225 44.061 128.112 43.6017 127.887 43.203C127.67 42.7957 127.367 42.4793 126.977 42.254C126.587 42.0287 126.154 41.916 125.677 41.916C125.192 41.916 124.754 42.0287 124.364 42.254C123.983 42.4793 123.679 42.7957 123.454 43.203C123.237 43.6017 123.129 44.061 123.129 44.581C123.129 45.101 123.237 45.5647 123.454 45.972C123.679 46.3793 123.983 46.6957 124.364 46.921C124.754 47.1377 125.192 47.246 125.677 47.246ZM137.012 41.162L133.593 48.819C133.315 49.4603 132.995 49.9153 132.631 50.184C132.267 50.4527 131.829 50.587 131.318 50.587C130.988 50.587 130.681 50.535 130.395 50.431C130.109 50.327 129.862 50.171 129.654 49.963L130.083 49.274C130.429 49.6207 130.845 49.794 131.331 49.794C131.643 49.794 131.907 49.7073 132.124 49.534C132.349 49.3607 132.557 49.066 132.748 48.65L133.047 47.987L129.992 41.162H130.954L133.528 46.973L136.102 41.162H137.012ZM144.499 44.867H138.779C138.831 45.5777 139.104 46.154 139.598 46.596C140.092 47.0293 140.716 47.246 141.47 47.246C141.895 47.246 142.285 47.1723 142.64 47.025C142.996 46.869 143.303 46.6437 143.563 46.349L144.083 46.947C143.78 47.311 143.399 47.5883 142.939 47.779C142.489 47.9697 141.99 48.065 141.444 48.065C140.742 48.065 140.118 47.9177 139.572 47.623C139.035 47.3197 138.615 46.9037 138.311 46.375C138.008 45.8463 137.856 45.2483 137.856 44.581C137.856 43.9137 137.999 43.3157 138.285 42.787C138.58 42.2583 138.979 41.8467 139.481 41.552C139.993 41.2573 140.565 41.11 141.197 41.11C141.83 41.11 142.398 41.2573 142.9 41.552C143.403 41.8467 143.797 42.2583 144.083 42.787C144.369 43.307 144.512 43.905 144.512 44.581L144.499 44.867ZM141.197 41.903C140.539 41.903 139.984 42.1153 139.533 42.54C139.091 42.956 138.84 43.502 138.779 44.178H143.628C143.568 43.502 143.312 42.956 142.861 42.54C142.419 42.1153 141.865 41.903 141.197 41.903ZM154.459 41.162V48H153.614V42.592L150.845 47.168H150.429L147.66 42.579V48H146.815V41.162H147.751L150.65 46.089L153.601 41.162H154.459ZM21.313 62.162H22.236V67.596L26.799 62.162H27.618V69H26.695V63.566L22.145 69H21.313V62.162ZM33.7115 65.438C34.1969 65.5507 34.5695 65.7457 34.8295 66.023C35.0982 66.3003 35.2325 66.6383 35.2325 67.037C35.2325 67.4357 35.0939 67.791 34.8165 68.103C34.5479 68.415 34.1795 68.6577 33.7115 68.831C33.2435 68.9957 32.7279 69.078 32.1645 69.078C31.6705 69.078 31.1852 69.0087 30.7085 68.87C30.2319 68.7227 29.8159 68.5103 29.4605 68.233L29.7725 67.544C30.0845 67.778 30.4485 67.96 30.8645 68.09C31.2805 68.22 31.7009 68.285 32.1255 68.285C32.7582 68.285 33.2739 68.168 33.6725 67.934C34.0799 67.6913 34.2835 67.3663 34.2835 66.959C34.2835 66.595 34.1189 66.3133 33.7895 66.114C33.4602 65.906 33.0095 65.802 32.4375 65.802H31.2675V65.126H32.3855C32.8969 65.126 33.3085 65.0307 33.6205 64.84C33.9325 64.6407 34.0885 64.3763 34.0885 64.047C34.0885 63.683 33.9109 63.397 33.5555 63.189C33.2089 62.981 32.7539 62.877 32.1905 62.877C31.4539 62.877 30.7259 63.0633 30.0065 63.436L29.7465 62.721C30.5612 62.2963 31.4062 62.084 32.2815 62.084C32.8015 62.084 33.2695 62.162 33.6855 62.318C34.1102 62.4653 34.4395 62.6777 34.6735 62.955C34.9162 63.2323 35.0375 63.553 35.0375 63.917C35.0375 64.2637 34.9162 64.5713 34.6735 64.84C34.4395 65.1087 34.1189 65.308 33.7115 65.438ZM44.2569 68.194V70.651H43.3859V69H37.2629V70.651H36.3919V68.194H36.7819C37.2412 68.168 37.5532 67.83 37.7179 67.18C37.8826 66.53 37.9952 65.62 38.0559 64.45L38.1469 62.162H43.1909V68.194H44.2569ZM38.9009 64.502C38.8576 65.4727 38.7752 66.2743 38.6539 66.907C38.5326 67.531 38.3159 67.96 38.0039 68.194H42.2679V62.981H38.9789L38.9009 64.502ZM52.2957 65.867H46.5757C46.6277 66.5777 46.9007 67.154 47.3947 67.596C47.8887 68.0293 48.5127 68.246 49.2667 68.246C49.6913 68.246 50.0813 68.1723 50.4367 68.025C50.792 67.869 51.0997 67.6437 51.3597 67.349L51.8797 67.947C51.5763 68.311 51.195 68.5883 50.7357 68.779C50.285 68.9697 49.7867 69.065 49.2407 69.065C48.5387 69.065 47.9147 68.9177 47.3687 68.623C46.8313 68.3197 46.411 67.9037 46.1077 67.375C45.8043 66.8463 45.6527 66.2483 45.6527 65.581C45.6527 64.9137 45.7957 64.3157 46.0817 63.787C46.3763 63.2583 46.775 62.8467 47.2777 62.552C47.789 62.2573 48.361 62.11 48.9937 62.11C49.6263 62.11 50.194 62.2573 50.6967 62.552C51.1993 62.8467 51.5937 63.2583 51.8797 63.787C52.1657 64.307 52.3087 64.905 52.3087 65.581L52.2957 65.867ZM48.9937 62.903C48.335 62.903 47.7803 63.1153 47.3297 63.54C46.8877 63.956 46.6363 64.502 46.5757 65.178H51.4247C51.364 64.502 51.1083 63.956 50.6577 63.54C50.2157 63.1153 49.661 62.903 48.9937 62.903ZM58.1348 62.11C58.7761 62.11 59.3568 62.2573 59.8768 62.552C60.3968 62.838 60.8041 63.2453 61.0988 63.774C61.3935 64.3027 61.5408 64.905 61.5408 65.581C61.5408 66.2657 61.3935 66.8723 61.0988 67.401C60.8041 67.9297 60.3968 68.3413 59.8768 68.636C59.3655 68.922 58.7848 69.065 58.1348 69.065C57.5801 69.065 57.0775 68.9523 56.6268 68.727C56.1848 68.493 55.8208 68.155 55.5348 67.713V71.522H54.6118V62.162H55.4958V63.514C55.7731 63.0633 56.1371 62.7167 56.5878 62.474C57.0471 62.2313 57.5628 62.11 58.1348 62.11ZM58.0698 68.246C58.5465 68.246 58.9798 68.1377 59.3698 67.921C59.7598 67.6957 60.0631 67.3793 60.2798 66.972C60.5051 66.5647 60.6178 66.101 60.6178 65.581C60.6178 65.061 60.5051 64.6017 60.2798 64.203C60.0631 63.7957 59.7598 63.4793 59.3698 63.254C58.9798 63.0287 58.5465 62.916 58.0698 62.916C57.5845 62.916 57.1468 63.0287 56.7568 63.254C56.3755 63.4793 56.0721 63.7957 55.8468 64.203C55.6301 64.6017 55.5218 65.061 55.5218 65.581C55.5218 66.101 55.6301 66.5647 55.8468 66.972C56.0721 67.3793 56.3755 67.6957 56.7568 67.921C57.1468 68.1377 57.5845 68.246 58.0698 68.246ZM69.5357 65.958H68.0537V69H67.1307V65.958H65.6487L63.5557 69H62.4507L64.9077 65.477L62.6457 62.162H63.6467L65.6487 65.165H67.1307V62.162H68.0537V65.165H69.5357L71.5507 62.162H72.5517L70.2897 65.49L72.7467 69H71.6417L69.5357 65.958ZM77.0259 65.958H75.4659V69H74.5429V62.162H75.4659V65.165H77.0389L79.4439 62.162H80.4449L77.7539 65.477L80.6399 69H79.5479L77.0259 65.958ZM82.3566 62.162H83.2796V67.596L87.8426 62.162H88.6616V69H87.7386V63.566L83.1886 69H82.3566V62.162ZM98.7522 62.11C99.3935 62.11 99.9742 62.2573 100.494 62.552C101.014 62.838 101.422 63.2453 101.716 63.774C102.011 64.3027 102.158 64.905 102.158 65.581C102.158 66.2657 102.011 66.8723 101.716 67.401C101.422 67.9297 101.014 68.3413 100.494 68.636C99.9828 68.922 99.4022 69.065 98.7522 69.065C98.1975 69.065 97.6948 68.9523 97.2442 68.727C96.8022 68.493 96.4382 68.155 96.1522 67.713V71.522H95.2292V62.162H96.1132V63.514C96.3905 63.0633 96.7545 62.7167 97.2052 62.474C97.6645 62.2313 98.1802 62.11 98.7522 62.11ZM98.6872 68.246C99.1638 68.246 99.5972 68.1377 99.9872 67.921C100.377 67.6957 100.681 67.3793 100.897 66.972C101.123 66.5647 101.235 66.101 101.235 65.581C101.235 65.061 101.123 64.6017 100.897 64.203C100.681 63.7957 100.377 63.4793 99.9872 63.254C99.5972 63.0287 99.1638 62.916 98.6872 62.916C98.2018 62.916 97.7642 63.0287 97.3742 63.254C96.9928 63.4793 96.6895 63.7957 96.4642 64.203C96.2475 64.6017 96.1392 65.061 96.1392 65.581C96.1392 66.101 96.2475 66.5647 96.4642 66.972C96.6895 67.3793 96.9928 67.6957 97.3742 67.921C97.7642 68.1377 98.2018 68.246 98.6872 68.246ZM106.716 62.11C107.609 62.11 108.294 62.3353 108.77 62.786C109.247 63.228 109.485 63.8867 109.485 64.762V69H108.601V67.934C108.393 68.2893 108.086 68.5667 107.678 68.766C107.28 68.9653 106.803 69.065 106.248 69.065C105.486 69.065 104.879 68.883 104.428 68.519C103.978 68.155 103.752 67.674 103.752 67.076C103.752 66.4953 103.96 66.0273 104.376 65.672C104.801 65.3167 105.473 65.139 106.391 65.139H108.562V64.723C108.562 64.1337 108.398 63.6873 108.068 63.384C107.739 63.072 107.258 62.916 106.625 62.916C106.192 62.916 105.776 62.9897 105.377 63.137C104.979 63.2757 104.636 63.4707 104.35 63.722L103.934 63.033C104.281 62.7383 104.697 62.513 105.182 62.357C105.668 62.1923 106.179 62.11 106.716 62.11ZM106.391 68.337C106.911 68.337 107.358 68.22 107.73 67.986C108.103 67.7433 108.38 67.3967 108.562 66.946V65.828H106.417C105.247 65.828 104.662 66.2353 104.662 67.05C104.662 67.4487 104.814 67.765 105.117 67.999C105.421 68.2243 105.845 68.337 106.391 68.337ZM115.391 65.438C115.876 65.5507 116.249 65.7457 116.509 66.023C116.777 66.3003 116.912 66.6383 116.912 67.037C116.912 67.4357 116.773 67.791 116.496 68.103C116.227 68.415 115.859 68.6577 115.391 68.831C114.923 68.9957 114.407 69.078 113.844 69.078C113.35 69.078 112.864 69.0087 112.388 68.87C111.911 68.7227 111.495 68.5103 111.14 68.233L111.452 67.544C111.764 67.778 112.128 67.96 112.544 68.09C112.96 68.22 113.38 68.285 113.805 68.285C114.437 68.285 114.953 68.168 115.352 67.934C115.759 67.6913 115.963 67.3663 115.963 66.959C115.963 66.595 115.798 66.3133 115.469 66.114C115.139 65.906 114.689 65.802 114.117 65.802H112.947V65.126H114.065C114.576 65.126 114.988 65.0307 115.3 64.84C115.612 64.6407 115.768 64.3763 115.768 64.047C115.768 63.683 115.59 63.397 115.235 63.189C114.888 62.981 114.433 62.877 113.87 62.877C113.133 62.877 112.405 63.0633 111.686 63.436L111.426 62.721C112.24 62.2963 113.085 62.084 113.961 62.084C114.481 62.084 114.949 62.162 115.365 62.318C115.789 62.4653 116.119 62.6777 116.353 62.955C116.595 63.2323 116.717 63.553 116.717 63.917C116.717 64.2637 116.595 64.5713 116.353 64.84C116.119 65.1087 115.798 65.308 115.391 65.438ZM122.79 62.11C123.431 62.11 124.012 62.2573 124.532 62.552C125.052 62.838 125.459 63.2453 125.754 63.774C126.049 64.3027 126.196 64.905 126.196 65.581C126.196 66.2657 126.049 66.8723 125.754 67.401C125.459 67.9297 125.052 68.3413 124.532 68.636C124.021 68.922 123.44 69.065 122.79 69.065C122.235 69.065 121.733 68.9523 121.282 68.727C120.84 68.493 120.476 68.155 120.19 67.713V71.522H119.267V62.162H120.151V63.514C120.428 63.0633 120.792 62.7167 121.243 62.474C121.702 62.2313 122.218 62.11 122.79 62.11ZM122.725 68.246C123.202 68.246 123.635 68.1377 124.025 67.921C124.415 67.6957 124.718 67.3793 124.935 66.972C125.16 66.5647 125.273 66.101 125.273 65.581C125.273 65.061 125.16 64.6017 124.935 64.203C124.718 63.7957 124.415 63.4793 124.025 63.254C123.635 63.0287 123.202 62.916 122.725 62.916C122.24 62.916 121.802 63.0287 121.412 63.254C121.031 63.4793 120.727 63.7957 120.502 64.203C120.285 64.6017 120.177 65.061 120.177 65.581C120.177 66.101 120.285 66.5647 120.502 66.972C120.727 67.3793 121.031 67.6957 121.412 67.921C121.802 68.1377 122.24 68.246 122.725 68.246ZM130.754 62.11C131.647 62.11 132.331 62.3353 132.808 62.786C133.285 63.228 133.523 63.8867 133.523 64.762V69H132.639V67.934C132.431 68.2893 132.123 68.5667 131.716 68.766C131.317 68.9653 130.841 69.065 130.286 69.065C129.523 69.065 128.917 68.883 128.466 68.519C128.015 68.155 127.79 67.674 127.79 67.076C127.79 66.4953 127.998 66.0273 128.414 65.672C128.839 65.3167 129.51 65.139 130.429 65.139H132.6V64.723C132.6 64.1337 132.435 63.6873 132.106 63.384C131.777 63.072 131.296 62.916 130.663 62.916C130.23 62.916 129.814 62.9897 129.415 63.137C129.016 63.2757 128.674 63.4707 128.388 63.722L127.972 63.033C128.319 62.7383 128.735 62.513 129.22 62.357C129.705 62.1923 130.217 62.11 130.754 62.11ZM130.429 68.337C130.949 68.337 131.395 68.22 131.768 67.986C132.141 67.7433 132.418 67.3967 132.6 66.946V65.828H130.455C129.285 65.828 128.7 66.2353 128.7 67.05C128.7 67.4487 128.852 67.765 129.155 67.999C129.458 68.2243 129.883 68.337 130.429 68.337ZM139.555 62.331C140.188 62.331 140.751 62.474 141.245 62.76C141.748 63.0373 142.138 63.4317 142.415 63.943C142.692 64.4457 142.831 65.022 142.831 65.672C142.831 66.3393 142.684 66.933 142.389 67.453C142.103 67.9643 141.7 68.363 141.18 68.649C140.66 68.935 140.062 69.078 139.386 69.078C138.251 69.078 137.371 68.6793 136.747 67.882C136.123 67.0847 135.811 65.984 135.811 64.58C135.811 63.1153 136.088 61.993 136.643 61.213C137.206 60.433 138.082 59.9043 139.269 59.627L142.337 58.925L142.493 59.77L139.607 60.433C138.628 60.6497 137.908 61.0353 137.449 61.59C136.99 62.136 136.738 62.9463 136.695 64.021C136.972 63.4923 137.358 63.0807 137.852 62.786C138.346 62.4827 138.914 62.331 139.555 62.331ZM139.412 68.311C139.889 68.311 140.313 68.2027 140.686 67.986C141.067 67.7607 141.362 67.4487 141.57 67.05C141.787 66.6513 141.895 66.2007 141.895 65.698C141.895 65.1953 141.791 64.7533 141.583 64.372C141.375 63.9907 141.08 63.696 140.699 63.488C140.326 63.2713 139.897 63.163 139.412 63.163C138.927 63.163 138.493 63.2713 138.112 63.488C137.739 63.696 137.445 63.9907 137.228 64.372C137.02 64.7533 136.916 65.1953 136.916 65.698C136.916 66.2007 137.02 66.6513 137.228 67.05C137.445 67.4487 137.744 67.7607 138.125 67.986C138.506 68.2027 138.935 68.311 139.412 68.311ZM147.89 69.065C147.232 69.065 146.638 68.9177 146.109 68.623C145.581 68.3197 145.165 67.9037 144.861 67.375C144.558 66.8463 144.406 66.2483 144.406 65.581C144.406 64.9137 144.558 64.3157 144.861 63.787C145.165 63.2583 145.581 62.8467 146.109 62.552C146.638 62.2573 147.232 62.11 147.89 62.11C148.549 62.11 149.143 62.2573 149.671 62.552C150.2 62.8467 150.612 63.2583 150.906 63.787C151.21 64.3157 151.361 64.9137 151.361 65.581C151.361 66.2483 151.21 66.8463 150.906 67.375C150.612 67.9037 150.2 68.3197 149.671 68.623C149.143 68.9177 148.549 69.065 147.89 69.065ZM147.89 68.246C148.376 68.246 148.809 68.1377 149.19 67.921C149.58 67.6957 149.884 67.3793 150.1 66.972C150.317 66.5647 150.425 66.101 150.425 65.581C150.425 65.061 150.317 64.5973 150.1 64.19C149.884 63.7827 149.58 63.4707 149.19 63.254C148.809 63.0287 148.376 62.916 147.89 62.916C147.405 62.916 146.967 63.0287 146.577 63.254C146.196 63.4707 145.893 63.7827 145.667 64.19C145.451 64.5973 145.342 65.061 145.342 65.581C145.342 66.101 145.451 66.5647 145.667 66.972C145.893 67.3793 146.196 67.6957 146.577 67.921C146.967 68.1377 147.405 68.246 147.89 68.246ZM158.15 62.981H155.563V69H154.64V62.981H152.053V62.162H158.15V62.981ZM162.228 65.958H160.668V69H159.745V62.162H160.668V65.165H162.241L164.646 62.162H165.647L162.956 65.477L165.842 69H164.75L162.228 65.958ZM167.558 62.162H168.481V67.596L173.044 62.162H173.863V69H172.94V63.566L168.39 69H167.558V62.162ZM180.431 62.162H181.354V67.596L185.917 62.162H186.736V69H185.813V63.566L181.263 69H180.431V62.162ZM24.836 83.11C25.4773 83.11 26.058 83.2573 26.578 83.552C27.098 83.838 27.5053 84.2453 27.8 84.774C28.0947 85.3027 28.242 85.905 28.242 86.581C28.242 87.2657 28.0947 87.8723 27.8 88.401C27.5053 88.9297 27.098 89.3413 26.578 89.636C26.0667 89.922 25.486 90.065 24.836 90.065C24.2813 90.065 23.7787 89.9523 23.328 89.727C22.886 89.493 22.522 89.155 22.236 88.713V92.522H21.313V83.162H22.197V84.514C22.4743 84.0633 22.8383 83.7167 23.289 83.474C23.7483 83.2313 24.264 83.11 24.836 83.11ZM24.771 89.246C25.2477 89.246 25.681 89.1377 26.071 88.921C26.461 88.6957 26.7643 88.3793 26.981 87.972C27.2063 87.5647 27.319 87.101 27.319 86.581C27.319 86.061 27.2063 85.6017 26.981 85.203C26.7643 84.7957 26.461 84.4793 26.071 84.254C25.681 84.0287 25.2477 83.916 24.771 83.916C24.2857 83.916 23.848 84.0287 23.458 84.254C23.0767 84.4793 22.7733 84.7957 22.548 85.203C22.3313 85.6017 22.223 86.061 22.223 86.581C22.223 87.101 22.3313 87.5647 22.548 87.972C22.7733 88.3793 23.0767 88.6957 23.458 88.921C23.848 89.1377 24.2857 89.246 24.771 89.246ZM32.8 83.11C33.6927 83.11 34.3774 83.3353 34.854 83.786C35.3307 84.228 35.569 84.8867 35.569 85.762V90H34.685V88.934C34.477 89.2893 34.1694 89.5667 33.762 89.766C33.3634 89.9653 32.8867 90.065 32.332 90.065C31.5694 90.065 30.9627 89.883 30.512 89.519C30.0614 89.155 29.836 88.674 29.836 88.076C29.836 87.4953 30.044 87.0273 30.46 86.672C30.8847 86.3167 31.5564 86.139 32.475 86.139H34.646V85.723C34.646 85.1337 34.4814 84.6873 34.152 84.384C33.8227 84.072 33.3417 83.916 32.709 83.916C32.2757 83.916 31.8597 83.9897 31.461 84.137C31.0624 84.2757 30.72 84.4707 30.434 84.722L30.018 84.033C30.3647 83.7383 30.7807 83.513 31.266 83.357C31.7514 83.1923 32.2627 83.11 32.8 83.11ZM32.475 89.337C32.995 89.337 33.4414 89.22 33.814 88.986C34.1867 88.7433 34.464 88.3967 34.646 87.946V86.828H32.501C31.331 86.828 30.746 87.2353 30.746 88.05C30.746 88.4487 30.8977 88.765 31.201 88.999C31.5044 89.2243 31.929 89.337 32.475 89.337ZM41.4745 86.438C41.9598 86.5507 42.3325 86.7457 42.5925 87.023C42.8611 87.3003 42.9955 87.6383 42.9955 88.037C42.9955 88.4357 42.8568 88.791 42.5795 89.103C42.3108 89.415 41.9425 89.6577 41.4745 89.831C41.0065 89.9957 40.4908 90.078 39.9275 90.078C39.4335 90.078 38.9481 90.0087 38.4715 89.87C37.9948 89.7227 37.5788 89.5103 37.2235 89.233L37.5355 88.544C37.8475 88.778 38.2115 88.96 38.6275 89.09C39.0435 89.22 39.4638 89.285 39.8885 89.285C40.5211 89.285 41.0368 89.168 41.4355 88.934C41.8428 88.6913 42.0465 88.3663 42.0465 87.959C42.0465 87.595 41.8818 87.3133 41.5525 87.114C41.2231 86.906 40.7725 86.802 40.2005 86.802H39.0305V86.126H40.1485C40.6598 86.126 41.0715 86.0307 41.3835 85.84C41.6955 85.6407 41.8515 85.3763 41.8515 85.047C41.8515 84.683 41.6738 84.397 41.3185 84.189C40.9718 83.981 40.5168 83.877 39.9535 83.877C39.2168 83.877 38.4888 84.0633 37.7695 84.436L37.5095 83.721C38.3241 83.2963 39.1691 83.084 40.0445 83.084C40.5645 83.084 41.0325 83.162 41.4485 83.318C41.8731 83.4653 42.2025 83.6777 42.4365 83.955C42.6791 84.2323 42.8005 84.553 42.8005 84.917C42.8005 85.2637 42.6791 85.5713 42.4365 85.84C42.2025 86.1087 41.8818 86.308 41.4745 86.438ZM52.0198 89.194V91.651H51.1488V90H45.0258V91.651H44.1548V89.194H44.5448C45.0041 89.168 45.3161 88.83 45.4808 88.18C45.6455 87.53 45.7581 86.62 45.8188 85.45L45.9098 83.162H50.9538V89.194H52.0198ZM46.6638 85.502C46.6205 86.4727 46.5381 87.2743 46.4168 87.907C46.2955 88.531 46.0788 88.96 45.7668 89.194H50.0308V83.981H46.7418L46.6638 85.502ZM60.0586 86.867H54.3386C54.3906 87.5777 54.6636 88.154 55.1576 88.596C55.6516 89.0293 56.2756 89.246 57.0296 89.246C57.4543 89.246 57.8443 89.1723 58.1996 89.025C58.5549 88.869 58.8626 88.6437 59.1226 88.349L59.6426 88.947C59.3393 89.311 58.9579 89.5883 58.4986 89.779C58.0479 89.9697 57.5496 90.065 57.0036 90.065C56.3016 90.065 55.6776 89.9177 55.1316 89.623C54.5943 89.3197 54.1739 88.9037 53.8706 88.375C53.5673 87.8463 53.4156 87.2483 53.4156 86.581C53.4156 85.9137 53.5586 85.3157 53.8446 84.787C54.1393 84.2583 54.5379 83.8467 55.0406 83.552C55.5519 83.2573 56.1239 83.11 56.7566 83.11C57.3893 83.11 57.9569 83.2573 58.4596 83.552C58.9623 83.8467 59.3566 84.2583 59.6426 84.787C59.9286 85.307 60.0716 85.905 60.0716 86.581L60.0586 86.867ZM56.7566 83.903C56.0979 83.903 55.5433 84.1153 55.0926 84.54C54.6506 84.956 54.3993 85.502 54.3386 86.178H59.1876C59.1269 85.502 58.8713 84.956 58.4206 84.54C57.9786 84.1153 57.4239 83.903 56.7566 83.903ZM67.8251 83.162V90H66.9021V83.981H63.6261L63.5351 85.671C63.4657 87.0923 63.3011 88.1843 63.0411 88.947C62.7811 89.7097 62.3174 90.091 61.6501 90.091C61.4681 90.091 61.2471 90.0563 60.9871 89.987L61.0521 89.194C61.2081 89.2287 61.3164 89.246 61.3771 89.246C61.7324 89.246 62.0011 89.0813 62.1831 88.752C62.3651 88.4227 62.4864 88.0153 62.5471 87.53C62.6077 87.0447 62.6597 86.4033 62.7031 85.606L62.8201 83.162H67.8251ZM75.9609 83.162V90H75.1159V87.738H72.9709H72.7109L71.1249 90H70.1239L71.8269 87.608C71.2983 87.4607 70.8909 87.2093 70.6049 86.854C70.3189 86.4987 70.1759 86.048 70.1759 85.502C70.1759 84.7393 70.4359 84.1587 70.9559 83.76C71.4759 83.3613 72.1866 83.162 73.0879 83.162H75.9609ZM71.1119 85.528C71.1119 86.542 71.7576 87.049 73.0489 87.049H75.1159V83.981H73.1139C71.7793 83.981 71.1119 84.4967 71.1119 85.528ZM84.8327 86.867H79.1127C79.1647 87.5777 79.4377 88.154 79.9317 88.596C80.4257 89.0293 81.0497 89.246 81.8037 89.246C82.2284 89.246 82.6184 89.1723 82.9737 89.025C83.3291 88.869 83.6367 88.6437 83.8967 88.349L84.4167 88.947C84.1134 89.311 83.7321 89.5883 83.2727 89.779C82.8221 89.9697 82.3237 90.065 81.7777 90.065C81.0757 90.065 80.4517 89.9177 79.9057 89.623C79.3684 89.3197 78.9481 88.9037 78.6447 88.375C78.3414 87.8463 78.1897 87.2483 78.1897 86.581C78.1897 85.9137 78.3327 85.3157 78.6187 84.787C78.9134 84.2583 79.3121 83.8467 79.8147 83.552C80.3261 83.2573 80.8981 83.11 81.5307 83.11C82.1634 83.11 82.7311 83.2573 83.2337 83.552C83.7364 83.8467 84.1307 84.2583 84.4167 84.787C84.7027 85.307 84.8457 85.905 84.8457 86.581L84.8327 86.867ZM81.5307 83.903C80.8721 83.903 80.3174 84.1153 79.8667 84.54C79.4247 84.956 79.1734 85.502 79.1127 86.178H83.9617C83.9011 85.502 83.6454 84.956 83.1947 84.54C82.7527 84.1153 82.1981 83.903 81.5307 83.903ZM94.7929 83.162V90H93.9479V84.592L91.1789 89.168H90.7629L87.9939 84.579V90H87.1489V83.162H88.0849L90.9839 88.089L93.9349 83.162H94.7929ZM107.478 83.162V90H106.555V83.981H102.265V90H101.342V83.162H107.478ZM113.884 83.11C114.526 83.11 115.106 83.2573 115.626 83.552C116.146 83.838 116.554 84.2453 116.848 84.774C117.143 85.3027 117.29 85.905 117.29 86.581C117.29 87.2657 117.143 87.8723 116.848 88.401C116.554 88.9297 116.146 89.3413 115.626 89.636C115.115 89.922 114.534 90.065 113.884 90.065C113.33 90.065 112.827 89.9523 112.376 89.727C111.934 89.493 111.57 89.155 111.284 88.713V92.522H110.361V83.162H111.245V84.514C111.523 84.0633 111.887 83.7167 112.337 83.474C112.797 83.2313 113.312 83.11 113.884 83.11ZM113.819 89.246C114.296 89.246 114.729 89.1377 115.119 88.921C115.509 88.6957 115.813 88.3793 116.029 87.972C116.255 87.5647 116.367 87.101 116.367 86.581C116.367 86.061 116.255 85.6017 116.029 85.203C115.813 84.7957 115.509 84.4793 115.119 84.254C114.729 84.0287 114.296 83.916 113.819 83.916C113.334 83.916 112.896 84.0287 112.506 84.254C112.125 84.4793 111.822 84.7957 111.596 85.203C111.38 85.6017 111.271 86.061 111.271 86.581C111.271 87.101 111.38 87.5647 111.596 87.972C111.822 88.3793 112.125 88.6957 112.506 88.921C112.896 89.1377 113.334 89.246 113.819 89.246ZM122.355 90.065C121.696 90.065 121.102 89.9177 120.574 89.623C120.045 89.3197 119.629 88.9037 119.326 88.375C119.022 87.8463 118.871 87.2483 118.871 86.581C118.871 85.9137 119.022 85.3157 119.326 84.787C119.629 84.2583 120.045 83.8467 120.574 83.552C121.102 83.2573 121.696 83.11 122.355 83.11C123.013 83.11 123.607 83.2573 124.136 83.552C124.664 83.8467 125.076 84.2583 125.371 84.787C125.674 85.3157 125.826 85.9137 125.826 86.581C125.826 87.2483 125.674 87.8463 125.371 88.375C125.076 88.9037 124.664 89.3197 124.136 89.623C123.607 89.9177 123.013 90.065 122.355 90.065ZM122.355 89.246C122.84 89.246 123.273 89.1377 123.655 88.921C124.045 88.6957 124.348 88.3793 124.565 87.972C124.781 87.5647 124.89 87.101 124.89 86.581C124.89 86.061 124.781 85.5973 124.565 85.19C124.348 84.7827 124.045 84.4707 123.655 84.254C123.273 84.0287 122.84 83.916 122.355 83.916C121.869 83.916 121.432 84.0287 121.042 84.254C120.66 84.4707 120.357 84.7827 120.132 85.19C119.915 85.5973 119.807 86.061 119.807 86.581C119.807 87.101 119.915 87.5647 120.132 87.972C120.357 88.3793 120.66 88.6957 121.042 88.921C121.432 89.1377 121.869 89.246 122.355 89.246ZM134.689 89.194V91.651H133.818V90H127.695V91.651H126.824V89.194H127.214C127.673 89.168 127.985 88.83 128.15 88.18C128.315 87.53 128.427 86.62 128.488 85.45L128.579 83.162H133.623V89.194H134.689ZM129.333 85.502C129.29 86.4727 129.207 87.2743 129.086 87.907C128.965 88.531 128.748 88.96 128.436 89.194H132.7V83.981H129.411L129.333 85.502ZM142.559 83.162L139.14 90.819C138.863 91.4603 138.542 91.9153 138.178 92.184C137.814 92.4527 137.376 92.587 136.865 92.587C136.536 92.587 136.228 92.535 135.942 92.431C135.656 92.327 135.409 92.171 135.201 91.963L135.63 91.274C135.977 91.6207 136.393 91.794 136.878 91.794C137.19 91.794 137.454 91.7073 137.671 91.534C137.896 91.3607 138.104 91.066 138.295 90.65L138.594 89.987L135.539 83.162H136.501L139.075 88.973L141.649 83.162H142.559ZM146.74 86.958H145.18V90H144.257V83.162H145.18V86.165H146.753L149.158 83.162H150.159L147.468 86.477L150.354 90H149.262L146.74 86.958ZM156.741 83.981H154.154V90H153.231V83.981H150.644V83.162H156.741V83.981ZM161.998 83.162H162.921V86.191H167.224V83.162H168.147V90H167.224V86.984H162.921V90H161.998V83.162ZM173.383 83.11C174.276 83.11 174.961 83.3353 175.437 83.786C175.914 84.228 176.152 84.8867 176.152 85.762V90H175.268V88.934C175.06 89.2893 174.753 89.5667 174.345 89.766C173.947 89.9653 173.47 90.065 172.915 90.065C172.153 90.065 171.546 89.883 171.095 89.519C170.645 89.155 170.419 88.674 170.419 88.076C170.419 87.4953 170.627 87.0273 171.043 86.672C171.468 86.3167 172.14 86.139 173.058 86.139H175.229V85.723C175.229 85.1337 175.065 84.6873 174.735 84.384C174.406 84.072 173.925 83.916 173.292 83.916C172.859 83.916 172.443 83.9897 172.044 84.137C171.646 84.2757 171.303 84.4707 171.017 84.722L170.601 84.033C170.948 83.7383 171.364 83.513 171.849 83.357C172.335 83.1923 172.846 83.11 173.383 83.11ZM173.058 89.337C173.578 89.337 174.025 89.22 174.397 88.986C174.77 88.7433 175.047 88.3967 175.229 87.946V86.828H173.084C171.914 86.828 171.329 87.2353 171.329 88.05C171.329 88.4487 171.481 88.765 171.784 88.999C172.088 89.2243 172.512 89.337 173.058 89.337ZM27.982 110.194V112.651H27.111V111H20.988V112.651H20.117V110.194H20.507C20.9663 110.168 21.2783 109.83 21.443 109.18C21.6077 108.53 21.7203 107.62 21.781 106.45L21.872 104.162H26.916V110.194H27.982ZM22.626 106.502C22.5827 107.473 22.5003 108.274 22.379 108.907C22.2577 109.531 22.041 109.96 21.729 110.194H25.993V104.981H22.704L22.626 106.502ZM32.8618 111.065C32.2031 111.065 31.6094 110.918 31.0808 110.623C30.5521 110.32 30.1361 109.904 29.8328 109.375C29.5294 108.846 29.3778 108.248 29.3778 107.581C29.3778 106.914 29.5294 106.316 29.8328 105.787C30.1361 105.258 30.5521 104.847 31.0808 104.552C31.6094 104.257 32.2031 104.11 32.8618 104.11C33.5204 104.11 34.1141 104.257 34.6428 104.552C35.1714 104.847 35.5831 105.258 35.8778 105.787C36.1811 106.316 36.3328 106.914 36.3328 107.581C36.3328 108.248 36.1811 108.846 35.8778 109.375C35.5831 109.904 35.1714 110.32 34.6428 110.623C34.1141 110.918 33.5204 111.065 32.8618 111.065ZM32.8618 110.246C33.3471 110.246 33.7804 110.138 34.1618 109.921C34.5518 109.696 34.8551 109.379 35.0718 108.972C35.2884 108.565 35.3968 108.101 35.3968 107.581C35.3968 107.061 35.2884 106.597 35.0718 106.19C34.8551 105.783 34.5518 105.471 34.1618 105.254C33.7804 105.029 33.3471 104.916 32.8618 104.916C32.3764 104.916 31.9388 105.029 31.5488 105.254C31.1674 105.471 30.8641 105.783 30.6388 106.19C30.4221 106.597 30.3138 107.061 30.3138 107.581C30.3138 108.101 30.4221 108.565 30.6388 108.972C30.8641 109.379 31.1674 109.696 31.5488 109.921C31.9388 110.138 32.3764 110.246 32.8618 110.246ZM44.7014 104.162V111H43.7784V104.981H39.4884V111H38.5654V104.162H44.7014ZM50.4062 111.065C49.7475 111.065 49.1539 110.918 48.6252 110.623C48.0965 110.32 47.6805 109.904 47.3772 109.375C47.0739 108.846 46.9222 108.248 46.9222 107.581C46.9222 106.914 47.0739 106.316 47.3772 105.787C47.6805 105.258 48.0965 104.847 48.6252 104.552C49.1539 104.257 49.7475 104.11 50.4062 104.11C51.0649 104.11 51.6585 104.257 52.1872 104.552C52.7159 104.847 53.1275 105.258 53.4222 105.787C53.7255 106.316 53.8772 106.914 53.8772 107.581C53.8772 108.248 53.7255 108.846 53.4222 109.375C53.1275 109.904 52.7159 110.32 52.1872 110.623C51.6585 110.918 51.0649 111.065 50.4062 111.065ZM50.4062 110.246C50.8915 110.246 51.3249 110.138 51.7062 109.921C52.0962 109.696 52.3995 109.379 52.6162 108.972C52.8329 108.565 52.9412 108.101 52.9412 107.581C52.9412 107.061 52.8329 106.597 52.6162 106.19C52.3995 105.783 52.0962 105.471 51.7062 105.254C51.3249 105.029 50.8915 104.916 50.4062 104.916C49.9209 104.916 49.4832 105.029 49.0932 105.254C48.7119 105.471 48.4085 105.783 48.1832 106.19C47.9665 106.597 47.8582 107.061 47.8582 107.581C47.8582 108.101 47.9665 108.565 48.1832 108.972C48.4085 109.379 48.7119 109.696 49.0932 109.921C49.4832 110.138 49.9209 110.246 50.4062 110.246ZM61.6618 104.162V111H60.7388V104.981H57.4628L57.3718 106.671C57.3024 108.092 57.1378 109.184 56.8778 109.947C56.6178 110.71 56.1541 111.091 55.4868 111.091C55.3048 111.091 55.0838 111.056 54.8238 110.987L54.8888 110.194C55.0448 110.229 55.1531 110.246 55.2138 110.246C55.5691 110.246 55.8378 110.081 56.0198 109.752C56.2018 109.423 56.3231 109.015 56.3838 108.53C56.4444 108.045 56.4964 107.403 56.5398 106.606L56.6568 104.162H61.6618ZM64.5456 104.162H65.4686V107.191H69.7716V104.162H70.6946V111H69.7716V107.984H65.4686V111H64.5456V104.162ZM73.5781 104.162H74.5011V109.596L79.0641 104.162H79.8831V111H78.9601V105.566L74.4101 111H73.5781V104.162ZM87.5983 104.981H85.0113V111H84.0883V104.981H81.5013V104.162H87.5983V104.981ZM94.8554 107.867H89.1354C89.1874 108.578 89.4604 109.154 89.9544 109.596C90.4484 110.029 91.0724 110.246 91.8264 110.246C92.2511 110.246 92.6411 110.172 92.9964 110.025C93.3518 109.869 93.6594 109.644 93.9194 109.349L94.4394 109.947C94.1361 110.311 93.7548 110.588 93.2954 110.779C92.8448 110.97 92.3464 111.065 91.8004 111.065C91.0984 111.065 90.4744 110.918 89.9284 110.623C89.3911 110.32 88.9708 109.904 88.6674 109.375C88.3641 108.846 88.2124 108.248 88.2124 107.581C88.2124 106.914 88.3554 106.316 88.6414 105.787C88.9361 105.258 89.3348 104.847 89.8374 104.552C90.3488 104.257 90.9208 104.11 91.5534 104.11C92.1861 104.11 92.7538 104.257 93.2564 104.552C93.7591 104.847 94.1534 105.258 94.4394 105.787C94.7254 106.307 94.8684 106.905 94.8684 107.581L94.8554 107.867ZM91.5534 104.903C90.8948 104.903 90.3401 105.115 89.8894 105.54C89.4474 105.956 89.1961 106.502 89.1354 107.178H93.9844C93.9238 106.502 93.6681 105.956 93.2174 105.54C92.7754 105.115 92.2208 104.903 91.5534 104.903ZM102.622 104.162V111H101.699V104.981H98.4229L98.3319 106.671C98.2626 108.092 98.0979 109.184 97.8379 109.947C97.5779 110.71 97.1142 111.091 96.4469 111.091C96.2649 111.091 96.0439 111.056 95.7839 110.987L95.8489 110.194C96.0049 110.229 96.1132 110.246 96.1739 110.246C96.5292 110.246 96.7979 110.081 96.9799 109.752C97.1619 109.423 97.2832 109.015 97.3439 108.53C97.4046 108.045 97.4566 107.403 97.4999 106.606L97.6169 104.162H102.622ZM108.444 106.58C109.302 106.589 109.952 106.779 110.394 107.152C110.844 107.525 111.07 108.062 111.07 108.764C111.07 109.492 110.827 110.051 110.342 110.441C109.865 110.831 109.172 111.022 108.262 111.013L105.506 111V104.162H106.429V106.554L108.444 106.58ZM108.21 110.311C108.842 110.32 109.319 110.194 109.64 109.934C109.969 109.665 110.134 109.275 110.134 108.764C110.134 108.261 109.973 107.889 109.653 107.646C109.332 107.403 108.851 107.278 108.21 107.269L106.429 107.243V110.285L108.21 110.311ZM113.091 104.162H114.014V107.191H118.317V104.162H119.24V111H118.317V107.984H114.014V111H113.091V104.162ZM124.996 106.58C125.854 106.589 126.509 106.779 126.959 107.152C127.41 107.525 127.635 108.062 127.635 108.764C127.635 109.492 127.393 110.051 126.907 110.441C126.422 110.831 125.729 111.022 124.827 111.013L122.123 111V104.162H123.046V106.554L124.996 106.58ZM128.779 104.162H129.702V111H128.779V104.162ZM124.775 110.311C125.408 110.32 125.885 110.194 126.205 109.934C126.535 109.665 126.699 109.275 126.699 108.764C126.699 108.261 126.539 107.889 126.218 107.646C125.898 107.403 125.417 107.278 124.775 107.269L123.046 107.243V110.285L124.775 110.311ZM138.57 107.867H132.85C132.902 108.578 133.175 109.154 133.669 109.596C134.163 110.029 134.787 110.246 135.541 110.246C135.966 110.246 136.356 110.172 136.711 110.025C137.067 109.869 137.374 109.644 137.634 109.349L138.154 109.947C137.851 110.311 137.47 110.588 137.01 110.779C136.56 110.97 136.061 111.065 135.515 111.065C134.813 111.065 134.189 110.918 133.643 110.623C133.106 110.32 132.686 109.904 132.382 109.375C132.079 108.846 131.927 108.248 131.927 107.581C131.927 106.914 132.07 106.316 132.356 105.787C132.651 105.258 133.05 104.847 133.552 104.552C134.064 104.257 134.636 104.11 135.268 104.11C135.901 104.11 136.469 104.257 136.971 104.552C137.474 104.847 137.868 105.258 138.154 105.787C138.44 106.307 138.583 106.905 138.583 107.581L138.57 107.867ZM135.268 104.903C134.61 104.903 134.055 105.115 133.604 105.54C133.162 105.956 132.911 106.502 132.85 107.178H137.699C137.639 106.502 137.383 105.956 136.932 105.54C136.49 105.115 135.936 104.903 135.268 104.903ZM150.36 104.162L146.941 111.819C146.664 112.46 146.343 112.915 145.979 113.184C145.615 113.453 145.177 113.587 144.666 113.587C144.337 113.587 144.029 113.535 143.743 113.431C143.457 113.327 143.21 113.171 143.002 112.963L143.431 112.274C143.778 112.621 144.194 112.794 144.679 112.794C144.991 112.794 145.255 112.707 145.472 112.534C145.697 112.361 145.905 112.066 146.096 111.65L146.395 110.987L143.34 104.162H144.302L146.876 109.973L149.45 104.162H150.36ZM154.728 111.065C154.052 111.065 153.445 110.918 152.908 110.623C152.379 110.328 151.963 109.917 151.66 109.388C151.356 108.851 151.205 108.248 151.205 107.581C151.205 106.914 151.356 106.316 151.66 105.787C151.963 105.258 152.379 104.847 152.908 104.552C153.445 104.257 154.052 104.11 154.728 104.11C155.317 104.11 155.841 104.227 156.301 104.461C156.769 104.686 157.137 105.02 157.406 105.462L156.717 105.93C156.491 105.592 156.205 105.341 155.859 105.176C155.512 105.003 155.135 104.916 154.728 104.916C154.234 104.916 153.787 105.029 153.389 105.254C152.999 105.471 152.691 105.783 152.466 106.19C152.249 106.597 152.141 107.061 152.141 107.581C152.141 108.11 152.249 108.578 152.466 108.985C152.691 109.384 152.999 109.696 153.389 109.921C153.787 110.138 154.234 110.246 154.728 110.246C155.135 110.246 155.512 110.164 155.859 109.999C156.205 109.834 156.491 109.583 156.717 109.245L157.406 109.713C157.137 110.155 156.769 110.493 156.301 110.727C155.833 110.952 155.308 111.065 154.728 111.065ZM164.814 104.162V111H163.891V104.981H160.615L160.524 106.671C160.455 108.092 160.29 109.184 160.03 109.947C159.77 110.71 159.307 111.091 158.639 111.091C158.457 111.091 158.236 111.056 157.976 110.987L158.041 110.194C158.197 110.229 158.306 110.246 158.366 110.246C158.722 110.246 158.99 110.081 159.172 109.752C159.354 109.423 159.476 109.015 159.536 108.53C159.597 108.045 159.649 107.403 159.692 106.606L159.809 104.162H164.814ZM173.509 104.162L170.09 111.819C169.813 112.46 169.492 112.915 169.128 113.184C168.764 113.453 168.326 113.587 167.815 113.587C167.486 113.587 167.178 113.535 166.892 113.431C166.606 113.327 166.359 113.171 166.151 112.963L166.58 112.274C166.927 112.621 167.343 112.794 167.828 112.794C168.14 112.794 168.404 112.707 168.621 112.534C168.846 112.361 169.054 112.066 169.245 111.65L169.544 110.987L166.489 104.162H167.451L170.025 109.973L172.599 104.162H173.509ZM180.043 104.981H176.13V111H175.207V104.162H180.043V104.981ZM181.637 104.162H182.56V109.596L187.123 104.162H187.942V111H187.019V105.566L182.469 111H181.637V104.162ZM190.925 109.648C191.125 109.648 191.289 109.717 191.419 109.856C191.549 109.986 191.614 110.151 191.614 110.35C191.614 110.454 191.597 110.567 191.562 110.688C191.536 110.809 191.493 110.948 191.432 111.104L190.886 112.898H190.262L190.704 111.013C190.566 110.97 190.453 110.892 190.366 110.779C190.28 110.658 190.236 110.515 190.236 110.35C190.236 110.151 190.301 109.986 190.431 109.856C190.561 109.717 190.726 109.648 190.925 109.648ZM23.666 125.11C24.5587 125.11 25.2433 125.335 25.72 125.786C26.1967 126.228 26.435 126.887 26.435 127.762V132H25.551V130.934C25.343 131.289 25.0353 131.567 24.628 131.766C24.2293 131.965 23.7527 132.065 23.198 132.065C22.4353 132.065 21.8287 131.883 21.378 131.519C20.9273 131.155 20.702 130.674 20.702 130.076C20.702 129.495 20.91 129.027 21.326 128.672C21.7507 128.317 22.4223 128.139 23.341 128.139H25.512V127.723C25.512 127.134 25.3473 126.687 25.018 126.384C24.6887 126.072 24.2077 125.916 23.575 125.916C23.1417 125.916 22.7257 125.99 22.327 126.137C21.9283 126.276 21.586 126.471 21.3 126.722L20.884 126.033C21.2307 125.738 21.6467 125.513 22.132 125.357C22.6173 125.192 23.1287 125.11 23.666 125.11ZM23.341 131.337C23.861 131.337 24.3073 131.22 24.68 130.986C25.0527 130.743 25.33 130.397 25.512 129.946V128.828H23.367C22.197 128.828 21.612 129.235 21.612 130.05C21.612 130.449 21.7637 130.765 22.067 130.999C22.3703 131.224 22.795 131.337 23.341 131.337ZM37.1694 128.464C38.0968 128.681 38.5604 129.24 38.5604 130.141C38.5604 130.739 38.3394 131.198 37.8974 131.519C37.4554 131.84 36.7968 132 35.9214 132H32.8144V125.162H35.8304C36.6104 125.162 37.2214 125.314 37.6634 125.617C38.1054 125.92 38.3264 126.354 38.3264 126.917C38.3264 127.29 38.2224 127.61 38.0144 127.879C37.8151 128.139 37.5334 128.334 37.1694 128.464ZM33.7114 128.204H35.7654C36.2941 128.204 36.6971 128.104 36.9744 127.905C37.2604 127.706 37.4034 127.415 37.4034 127.034C37.4034 126.653 37.2604 126.367 36.9744 126.176C36.6971 125.985 36.2941 125.89 35.7654 125.89H33.7114V128.204ZM35.8824 131.272C36.4718 131.272 36.9138 131.177 37.2084 130.986C37.5031 130.795 37.6504 130.496 37.6504 130.089C37.6504 129.682 37.5161 129.383 37.2474 129.192C36.9788 128.993 36.5541 128.893 35.9734 128.893H33.7114V131.272H35.8824ZM43.8566 127.58C44.7146 127.589 45.369 127.779 45.8196 128.152C46.2703 128.525 46.4956 129.062 46.4956 129.764C46.4956 130.492 46.253 131.051 45.7676 131.441C45.2823 131.831 44.589 132.022 43.6876 132.013L40.9836 132V125.162H41.9066V127.554L43.8566 127.58ZM47.6396 125.162H48.5626V132H47.6396V125.162ZM43.6356 131.311C44.2683 131.32 44.745 131.194 45.0656 130.934C45.395 130.665 45.5596 130.275 45.5596 129.764C45.5596 129.261 45.3993 128.889 45.0786 128.646C44.758 128.403 44.277 128.278 43.6356 128.269L41.9066 128.243V131.285L43.6356 131.311ZM62.757 125.162V132H61.912V126.592L59.143 131.168H58.727L55.958 126.579V132H55.113V125.162H56.049L58.948 130.089L61.899 125.162H62.757ZM68.4645 132.065C67.8058 132.065 67.2122 131.918 66.6835 131.623C66.1548 131.32 65.7388 130.904 65.4355 130.375C65.1322 129.846 64.9805 129.248 64.9805 128.581C64.9805 127.914 65.1322 127.316 65.4355 126.787C65.7388 126.258 66.1548 125.847 66.6835 125.552C67.2122 125.257 67.8058 125.11 68.4645 125.11C69.1232 125.11 69.7168 125.257 70.2455 125.552C70.7742 125.847 71.1858 126.258 71.4805 126.787C71.7838 127.316 71.9355 127.914 71.9355 128.581C71.9355 129.248 71.7838 129.846 71.4805 130.375C71.1858 130.904 70.7742 131.32 70.2455 131.623C69.7168 131.918 69.1232 132.065 68.4645 132.065ZM68.4645 131.246C68.9498 131.246 69.3832 131.138 69.7645 130.921C70.1545 130.696 70.4578 130.379 70.6745 129.972C70.8912 129.565 70.9995 129.101 70.9995 128.581C70.9995 128.061 70.8912 127.597 70.6745 127.19C70.4578 126.783 70.1545 126.471 69.7645 126.254C69.3832 126.029 68.9498 125.916 68.4645 125.916C67.9792 125.916 67.5415 126.029 67.1515 126.254C66.7702 126.471 66.4668 126.783 66.2415 127.19C66.0248 127.597 65.9165 128.061 65.9165 128.581C65.9165 129.101 66.0248 129.565 66.2415 129.972C66.4668 130.379 66.7702 130.696 67.1515 130.921C67.5415 131.138 67.9792 131.246 68.4645 131.246ZM79.9199 128.958H78.4379V132H77.5149V128.958H76.0329L73.9399 132H72.8349L75.2919 128.477L73.0299 125.162H74.0309L76.0329 128.165H77.5149V125.162H78.4379V128.165H79.9199L81.9349 125.162H82.9359L80.6739 128.49L83.1309 132H82.0259L79.9199 128.958ZM90.666 128.867H84.946C84.998 129.578 85.271 130.154 85.765 130.596C86.259 131.029 86.883 131.246 87.637 131.246C88.0616 131.246 88.4516 131.172 88.807 131.025C89.1623 130.869 89.47 130.644 89.73 130.349L90.25 130.947C89.9466 131.311 89.5653 131.588 89.106 131.779C88.6553 131.97 88.157 132.065 87.611 132.065C86.909 132.065 86.285 131.918 85.739 131.623C85.2016 131.32 84.7813 130.904 84.478 130.375C84.1746 129.846 84.023 129.248 84.023 128.581C84.023 127.914 84.166 127.316 84.452 126.787C84.7466 126.258 85.1453 125.847 85.648 125.552C86.1593 125.257 86.7313 125.11 87.364 125.11C87.9966 125.11 88.5643 125.257 89.067 125.552C89.5696 125.847 89.964 126.258 90.25 126.787C90.536 127.307 90.679 127.905 90.679 128.581L90.666 128.867ZM87.364 125.903C86.7053 125.903 86.1506 126.115 85.7 126.54C85.258 126.956 85.0066 127.502 84.946 128.178H89.795C89.7343 127.502 89.4786 126.956 89.028 126.54C88.586 126.115 88.0313 125.903 87.364 125.903ZM97.4874 125.981H94.9004V132H93.9774V125.981H91.3904V125.162H97.4874V125.981ZM104.745 128.867H99.0246C99.0766 129.578 99.3496 130.154 99.8436 130.596C100.338 131.029 100.962 131.246 101.716 131.246C102.14 131.246 102.53 131.172 102.886 131.025C103.241 130.869 103.549 130.644 103.809 130.349L104.329 130.947C104.025 131.311 103.644 131.588 103.185 131.779C102.734 131.97 102.236 132.065 101.69 132.065C100.988 132.065 100.364 131.918 99.8176 131.623C99.2802 131.32 98.8599 130.904 98.5566 130.375C98.2532 129.846 98.1016 129.248 98.1016 128.581C98.1016 127.914 98.2446 127.316 98.5306 126.787C98.8252 126.258 99.2239 125.847 99.7266 125.552C100.238 125.257 100.81 125.11 101.443 125.11C102.075 125.11 102.643 125.257 103.146 125.552C103.648 125.847 104.043 126.258 104.329 126.787C104.615 127.307 104.758 127.905 104.758 128.581L104.745 128.867ZM101.443 125.903C100.784 125.903 100.229 126.115 99.7786 126.54C99.3366 126.956 99.0852 127.502 99.0246 128.178H103.874C103.813 127.502 103.557 126.956 103.107 126.54C102.665 126.115 102.11 125.903 101.443 125.903ZM114.051 128.438C114.536 128.551 114.909 128.746 115.169 129.023C115.438 129.3 115.572 129.638 115.572 130.037C115.572 130.436 115.433 130.791 115.156 131.103C114.887 131.415 114.519 131.658 114.051 131.831C113.583 131.996 113.067 132.078 112.504 132.078C112.01 132.078 111.525 132.009 111.048 131.87C110.571 131.723 110.155 131.51 109.8 131.233L110.112 130.544C110.424 130.778 110.788 130.96 111.204 131.09C111.62 131.22 112.04 131.285 112.465 131.285C113.098 131.285 113.613 131.168 114.012 130.934C114.419 130.691 114.623 130.366 114.623 129.959C114.623 129.595 114.458 129.313 114.129 129.114C113.8 128.906 113.349 128.802 112.777 128.802H111.607V128.126H112.725C113.236 128.126 113.648 128.031 113.96 127.84C114.272 127.641 114.428 127.376 114.428 127.047C114.428 126.683 114.25 126.397 113.895 126.189C113.548 125.981 113.093 125.877 112.53 125.877C111.793 125.877 111.065 126.063 110.346 126.436L110.086 125.721C110.901 125.296 111.746 125.084 112.621 125.084C113.141 125.084 113.609 125.162 114.025 125.318C114.45 125.465 114.779 125.678 115.013 125.955C115.256 126.232 115.377 126.553 115.377 126.917C115.377 127.264 115.256 127.571 115.013 127.84C114.779 128.109 114.458 128.308 114.051 128.438ZM120.28 125.11C121.173 125.11 121.858 125.335 122.334 125.786C122.811 126.228 123.049 126.887 123.049 127.762V132H122.165V130.934C121.957 131.289 121.65 131.567 121.242 131.766C120.844 131.965 120.367 132.065 119.812 132.065C119.05 132.065 118.443 131.883 117.992 131.519C117.542 131.155 117.316 130.674 117.316 130.076C117.316 129.495 117.524 129.027 117.94 128.672C118.365 128.317 119.037 128.139 119.955 128.139H122.126V127.723C122.126 127.134 121.962 126.687 121.632 126.384C121.303 126.072 120.822 125.916 120.189 125.916C119.756 125.916 119.34 125.99 118.941 126.137C118.543 126.276 118.2 126.471 117.914 126.722L117.498 126.033C117.845 125.738 118.261 125.513 118.746 125.357C119.232 125.192 119.743 125.11 120.28 125.11ZM119.955 131.337C120.475 131.337 120.922 131.22 121.294 130.986C121.667 130.743 121.944 130.397 122.126 129.946V128.828H119.981C118.811 128.828 118.226 129.235 118.226 130.05C118.226 130.449 118.378 130.765 118.681 130.999C118.985 131.224 119.409 131.337 119.955 131.337ZM128.249 128.958H126.689V132H125.766V125.162H126.689V128.165H128.262L130.667 125.162H131.668L128.977 128.477L131.863 132H130.771L128.249 128.958ZM135.806 125.11C136.699 125.11 137.384 125.335 137.86 125.786C138.337 126.228 138.575 126.887 138.575 127.762V132H137.691V130.934C137.483 131.289 137.176 131.567 136.768 131.766C136.37 131.965 135.893 132.065 135.338 132.065C134.576 132.065 133.969 131.883 133.518 131.519C133.068 131.155 132.842 130.674 132.842 130.076C132.842 129.495 133.05 129.027 133.466 128.672C133.891 128.317 134.563 128.139 135.481 128.139H137.652V127.723C137.652 127.134 137.488 126.687 137.158 126.384C136.829 126.072 136.348 125.916 135.715 125.916C135.282 125.916 134.866 125.99 134.467 126.137C134.069 126.276 133.726 126.471 133.44 126.722L133.024 126.033C133.371 125.738 133.787 125.513 134.272 125.357C134.758 125.192 135.269 125.11 135.806 125.11ZM135.481 131.337C136.001 131.337 136.448 131.22 136.82 130.986C137.193 130.743 137.47 130.397 137.652 129.946V128.828H135.507C134.337 128.828 133.752 129.235 133.752 130.05C133.752 130.449 133.904 130.765 134.207 130.999C134.511 131.224 134.935 131.337 135.481 131.337ZM144.481 128.438C144.966 128.551 145.339 128.746 145.599 129.023C145.867 129.3 146.002 129.638 146.002 130.037C146.002 130.436 145.863 130.791 145.586 131.103C145.317 131.415 144.949 131.658 144.481 131.831C144.013 131.996 143.497 132.078 142.934 132.078C142.44 132.078 141.954 132.009 141.478 131.87C141.001 131.723 140.585 131.51 140.23 131.233L140.542 130.544C140.854 130.778 141.218 130.96 141.634 131.09C142.05 131.22 142.47 131.285 142.895 131.285C143.527 131.285 144.043 131.168 144.442 130.934C144.849 130.691 145.053 130.366 145.053 129.959C145.053 129.595 144.888 129.313 144.559 129.114C144.229 128.906 143.779 128.802 143.207 128.802H142.037V128.126H143.155C143.666 128.126 144.078 128.031 144.39 127.84C144.702 127.641 144.858 127.376 144.858 127.047C144.858 126.683 144.68 126.397 144.325 126.189C143.978 125.981 143.523 125.877 142.96 125.877C142.223 125.877 141.495 126.063 140.776 126.436L140.516 125.721C141.33 125.296 142.175 125.084 143.051 125.084C143.571 125.084 144.039 125.162 144.455 125.318C144.879 125.465 145.209 125.678 145.443 125.955C145.685 126.232 145.807 126.553 145.807 126.917C145.807 127.264 145.685 127.571 145.443 127.84C145.209 128.109 144.888 128.308 144.481 128.438ZM150.71 125.11C151.603 125.11 152.287 125.335 152.764 125.786C153.241 126.228 153.479 126.887 153.479 127.762V132H152.595V130.934C152.387 131.289 152.079 131.567 151.672 131.766C151.273 131.965 150.797 132.065 150.242 132.065C149.479 132.065 148.873 131.883 148.422 131.519C147.971 131.155 147.746 130.674 147.746 130.076C147.746 129.495 147.954 129.027 148.37 128.672C148.795 128.317 149.466 128.139 150.385 128.139H152.556V127.723C152.556 127.134 152.391 126.687 152.062 126.384C151.733 126.072 151.252 125.916 150.619 125.916C150.186 125.916 149.77 125.99 149.371 126.137C148.972 126.276 148.63 126.471 148.344 126.722L147.928 126.033C148.275 125.738 148.691 125.513 149.176 125.357C149.661 125.192 150.173 125.11 150.71 125.11ZM150.385 131.337C150.905 131.337 151.351 131.22 151.724 130.986C152.097 130.743 152.374 130.397 152.556 129.946V128.828H150.411C149.241 128.828 148.656 129.235 148.656 130.05C148.656 130.449 148.808 130.765 149.111 130.999C149.414 131.224 149.839 131.337 150.385 131.337ZM161.006 125.981H158.419V132H157.496V125.981H154.909V125.162H161.006V125.981ZM165.539 127.58C166.397 127.589 167.047 127.779 167.489 128.152C167.939 128.525 168.165 129.062 168.165 129.764C168.165 130.492 167.922 131.051 167.437 131.441C166.96 131.831 166.267 132.022 165.357 132.013L162.601 132V125.162H163.524V127.554L165.539 127.58ZM165.305 131.311C165.937 131.32 166.414 131.194 166.735 130.934C167.064 130.665 167.229 130.275 167.229 129.764C167.229 129.261 167.068 128.889 166.748 128.646C166.427 128.403 165.946 128.278 165.305 128.269L163.524 128.243V131.285L165.305 131.311ZM24.836 146.11C25.4773 146.11 26.058 146.257 26.578 146.552C27.098 146.838 27.5053 147.245 27.8 147.774C28.0947 148.303 28.242 148.905 28.242 149.581C28.242 150.266 28.0947 150.872 27.8 151.401C27.5053 151.93 27.098 152.341 26.578 152.636C26.0667 152.922 25.486 153.065 24.836 153.065C24.2813 153.065 23.7787 152.952 23.328 152.727C22.886 152.493 22.522 152.155 22.236 151.713V155.522H21.313V146.162H22.197V147.514C22.4743 147.063 22.8383 146.717 23.289 146.474C23.7483 146.231 24.264 146.11 24.836 146.11ZM24.771 152.246C25.2477 152.246 25.681 152.138 26.071 151.921C26.461 151.696 26.7643 151.379 26.981 150.972C27.2063 150.565 27.319 150.101 27.319 149.581C27.319 149.061 27.2063 148.602 26.981 148.203C26.7643 147.796 26.461 147.479 26.071 147.254C25.681 147.029 25.2477 146.916 24.771 146.916C24.2857 146.916 23.848 147.029 23.458 147.254C23.0767 147.479 22.7733 147.796 22.548 148.203C22.3313 148.602 22.223 149.061 22.223 149.581C22.223 150.101 22.3313 150.565 22.548 150.972C22.7733 151.379 23.0767 151.696 23.458 151.921C23.848 152.138 24.2857 152.246 24.771 152.246ZM32.8 146.11C33.6927 146.11 34.3774 146.335 34.854 146.786C35.3307 147.228 35.569 147.887 35.569 148.762V153H34.685V151.934C34.477 152.289 34.1694 152.567 33.762 152.766C33.3634 152.965 32.8867 153.065 32.332 153.065C31.5694 153.065 30.9627 152.883 30.512 152.519C30.0614 152.155 29.836 151.674 29.836 151.076C29.836 150.495 30.044 150.027 30.46 149.672C30.8847 149.317 31.5564 149.139 32.475 149.139H34.646V148.723C34.646 148.134 34.4814 147.687 34.152 147.384C33.8227 147.072 33.3417 146.916 32.709 146.916C32.2757 146.916 31.8597 146.99 31.461 147.137C31.0624 147.276 30.72 147.471 30.434 147.722L30.018 147.033C30.3647 146.738 30.7807 146.513 31.266 146.357C31.7514 146.192 32.2627 146.11 32.8 146.11ZM32.475 152.337C32.995 152.337 33.4414 152.22 33.814 151.986C34.1867 151.743 34.464 151.397 34.646 150.946V149.828H32.501C31.331 149.828 30.746 150.235 30.746 151.05C30.746 151.449 30.8977 151.765 31.201 151.999C31.5044 152.224 31.929 152.337 32.475 152.337ZM41.4745 149.438C41.9598 149.551 42.3325 149.746 42.5925 150.023C42.8611 150.3 42.9955 150.638 42.9955 151.037C42.9955 151.436 42.8568 151.791 42.5795 152.103C42.3108 152.415 41.9425 152.658 41.4745 152.831C41.0065 152.996 40.4908 153.078 39.9275 153.078C39.4335 153.078 38.9481 153.009 38.4715 152.87C37.9948 152.723 37.5788 152.51 37.2235 152.233L37.5355 151.544C37.8475 151.778 38.2115 151.96 38.6275 152.09C39.0435 152.22 39.4638 152.285 39.8885 152.285C40.5211 152.285 41.0368 152.168 41.4355 151.934C41.8428 151.691 42.0465 151.366 42.0465 150.959C42.0465 150.595 41.8818 150.313 41.5525 150.114C41.2231 149.906 40.7725 149.802 40.2005 149.802H39.0305V149.126H40.1485C40.6598 149.126 41.0715 149.031 41.3835 148.84C41.6955 148.641 41.8515 148.376 41.8515 148.047C41.8515 147.683 41.6738 147.397 41.3185 147.189C40.9718 146.981 40.5168 146.877 39.9535 146.877C39.2168 146.877 38.4888 147.063 37.7695 147.436L37.5095 146.721C38.3241 146.296 39.1691 146.084 40.0445 146.084C40.5645 146.084 41.0325 146.162 41.4485 146.318C41.8731 146.465 42.2025 146.678 42.4365 146.955C42.6791 147.232 42.8005 147.553 42.8005 147.917C42.8005 148.264 42.6791 148.571 42.4365 148.84C42.2025 149.109 41.8818 149.308 41.4745 149.438ZM48.8738 146.11C49.5151 146.11 50.0958 146.257 50.6158 146.552C51.1358 146.838 51.5431 147.245 51.8378 147.774C52.1325 148.303 52.2798 148.905 52.2798 149.581C52.2798 150.266 52.1325 150.872 51.8378 151.401C51.5431 151.93 51.1358 152.341 50.6158 152.636C50.1045 152.922 49.5238 153.065 48.8738 153.065C48.3191 153.065 47.8165 152.952 47.3658 152.727C46.9238 152.493 46.5598 152.155 46.2738 151.713V155.522H45.3508V146.162H46.2348V147.514C46.5121 147.063 46.8761 146.717 47.3268 146.474C47.7861 146.231 48.3018 146.11 48.8738 146.11ZM48.8088 152.246C49.2855 152.246 49.7188 152.138 50.1088 151.921C50.4988 151.696 50.8021 151.379 51.0188 150.972C51.2441 150.565 51.3568 150.101 51.3568 149.581C51.3568 149.061 51.2441 148.602 51.0188 148.203C50.8021 147.796 50.4988 147.479 50.1088 147.254C49.7188 147.029 49.2855 146.916 48.8088 146.916C48.3235 146.916 47.8858 147.029 47.4958 147.254C47.1145 147.479 46.8111 147.796 46.5858 148.203C46.3691 148.602 46.2608 149.061 46.2608 149.581C46.2608 150.101 46.3691 150.565 46.5858 150.972C46.8111 151.379 47.1145 151.696 47.4958 151.921C47.8858 152.138 48.3235 152.246 48.8088 152.246ZM56.8378 146.11C57.7305 146.11 58.4152 146.335 58.8918 146.786C59.3685 147.228 59.6068 147.887 59.6068 148.762V153H58.7228V151.934C58.5148 152.289 58.2072 152.567 57.7998 152.766C57.4012 152.965 56.9245 153.065 56.3698 153.065C55.6072 153.065 55.0005 152.883 54.5498 152.519C54.0992 152.155 53.8738 151.674 53.8738 151.076C53.8738 150.495 54.0818 150.027 54.4978 149.672C54.9225 149.317 55.5942 149.139 56.5128 149.139H58.6838V148.723C58.6838 148.134 58.5192 147.687 58.1898 147.384C57.8605 147.072 57.3795 146.916 56.7468 146.916C56.3135 146.916 55.8975 146.99 55.4988 147.137C55.1002 147.276 54.7578 147.471 54.4718 147.722L54.0558 147.033C54.4025 146.738 54.8185 146.513 55.3038 146.357C55.7892 146.192 56.3005 146.11 56.8378 146.11ZM56.5128 152.337C57.0328 152.337 57.4792 152.22 57.8518 151.986C58.2245 151.743 58.5018 151.397 58.6838 150.946V149.828H56.5388C55.3688 149.828 54.7838 150.235 54.7838 151.05C54.7838 151.449 54.9355 151.765 55.2388 151.999C55.5422 152.224 55.9668 152.337 56.5128 152.337ZM65.6389 146.331C66.2716 146.331 66.8349 146.474 67.3289 146.76C67.8316 147.037 68.2216 147.432 68.4989 147.943C68.7763 148.446 68.9149 149.022 68.9149 149.672C68.9149 150.339 68.7676 150.933 68.4729 151.453C68.1869 151.964 67.7839 152.363 67.2639 152.649C66.7439 152.935 66.1459 153.078 65.4699 153.078C64.3346 153.078 63.4549 152.679 62.8309 151.882C62.2069 151.085 61.8949 149.984 61.8949 148.58C61.8949 147.115 62.1723 145.993 62.7269 145.213C63.2903 144.433 64.1656 143.904 65.3529 143.627L68.4209 142.925L68.5769 143.77L65.6909 144.433C64.7116 144.65 63.9923 145.035 63.5329 145.59C63.0736 146.136 62.8223 146.946 62.7789 148.021C63.0563 147.492 63.4419 147.081 63.9359 146.786C64.4299 146.483 64.9976 146.331 65.6389 146.331ZM65.4959 152.311C65.9726 152.311 66.3973 152.203 66.7699 151.986C67.1513 151.761 67.4459 151.449 67.6539 151.05C67.8706 150.651 67.9789 150.201 67.9789 149.698C67.9789 149.195 67.8749 148.753 67.6669 148.372C67.4589 147.991 67.1643 147.696 66.7829 147.488C66.4103 147.271 65.9813 147.163 65.4959 147.163C65.0106 147.163 64.5773 147.271 64.1959 147.488C63.8233 147.696 63.5286 147.991 63.3119 148.372C63.1039 148.753 62.9999 149.195 62.9999 149.698C62.9999 150.201 63.1039 150.651 63.3119 151.05C63.5286 151.449 63.8276 151.761 64.2089 151.986C64.5903 152.203 65.0193 152.311 65.4959 152.311ZM73.9743 153.065C73.3156 153.065 72.7219 152.918 72.1933 152.623C71.6646 152.32 71.2486 151.904 70.9453 151.375C70.6419 150.846 70.4903 150.248 70.4903 149.581C70.4903 148.914 70.6419 148.316 70.9453 147.787C71.2486 147.258 71.6646 146.847 72.1933 146.552C72.7219 146.257 73.3156 146.11 73.9743 146.11C74.6329 146.11 75.2266 146.257 75.7553 146.552C76.2839 146.847 76.6956 147.258 76.9903 147.787C77.2936 148.316 77.4453 148.914 77.4453 149.581C77.4453 150.248 77.2936 150.846 76.9903 151.375C76.6956 151.904 76.2839 152.32 75.7553 152.623C75.2266 152.918 74.6329 153.065 73.9743 153.065ZM73.9743 152.246C74.4596 152.246 74.8929 152.138 75.2743 151.921C75.6643 151.696 75.9676 151.379 76.1843 150.972C76.4009 150.565 76.5093 150.101 76.5093 149.581C76.5093 149.061 76.4009 148.597 76.1843 148.19C75.9676 147.783 75.6643 147.471 75.2743 147.254C74.8929 147.029 74.4596 146.916 73.9743 146.916C73.4889 146.916 73.0513 147.029 72.6613 147.254C72.2799 147.471 71.9766 147.783 71.7513 148.19C71.5346 148.597 71.4263 149.061 71.4263 149.581C71.4263 150.101 71.5346 150.565 71.7513 150.972C71.9766 151.379 72.2799 151.696 72.6613 151.921C73.0513 152.138 73.4889 152.246 73.9743 152.246ZM84.234 146.981H81.647V153H80.724V146.981H78.137V146.162H84.234V146.981ZM88.3115 149.958H86.7515V153H85.8285V146.162H86.7515V149.165H88.3245L90.7295 146.162H91.7305L89.0395 149.477L91.9255 153H90.8335L88.3115 149.958ZM99.0597 146.162L95.6407 153.819C95.3634 154.46 95.0427 154.915 94.6787 155.184C94.3147 155.453 93.877 155.587 93.3657 155.587C93.0364 155.587 92.7287 155.535 92.4427 155.431C92.1567 155.327 91.9097 155.171 91.7017 154.963L92.1307 154.274C92.4774 154.621 92.8934 154.794 93.3787 154.794C93.6907 154.794 93.955 154.707 94.1717 154.534C94.397 154.361 94.605 154.066 94.7957 153.65L95.0947 152.987L92.0397 146.162H93.0017L95.5757 151.973L98.1497 146.162H99.0597ZM106.903 149.958H105.343V153H104.42V146.162H105.343V149.165H106.916L109.321 146.162H110.322L107.631 149.477L110.517 153H109.425L106.903 149.958ZM114.814 153.065C114.155 153.065 113.561 152.918 113.033 152.623C112.504 152.32 112.088 151.904 111.785 151.375C111.481 150.846 111.33 150.248 111.33 149.581C111.33 148.914 111.481 148.316 111.785 147.787C112.088 147.258 112.504 146.847 113.033 146.552C113.561 146.257 114.155 146.11 114.814 146.11C115.472 146.11 116.066 146.257 116.595 146.552C117.123 146.847 117.535 147.258 117.83 147.787C118.133 148.316 118.285 148.914 118.285 149.581C118.285 150.248 118.133 150.846 117.83 151.375C117.535 151.904 117.123 152.32 116.595 152.623C116.066 152.918 115.472 153.065 114.814 153.065ZM114.814 152.246C115.299 152.246 115.732 152.138 116.114 151.921C116.504 151.696 116.807 151.379 117.024 150.972C117.24 150.565 117.349 150.101 117.349 149.581C117.349 149.061 117.24 148.597 117.024 148.19C116.807 147.783 116.504 147.471 116.114 147.254C115.732 147.029 115.299 146.916 114.814 146.916C114.328 146.916 113.891 147.029 113.501 147.254C113.119 147.471 112.816 147.783 112.591 148.19C112.374 148.597 112.266 149.061 112.266 149.581C112.266 150.101 112.374 150.565 112.591 150.972C112.816 151.379 113.119 151.696 113.501 151.921C113.891 152.138 114.328 152.246 114.814 152.246ZM120.517 146.162H121.44V149.191H125.743V146.162H126.666V153H125.743V149.984H121.44V153H120.517V146.162ZM132.033 149.958H130.473V153H129.55V146.162H130.473V149.165H132.046L134.451 146.162H135.452L132.761 149.477L135.647 153H134.555L132.033 149.958ZM140.886 146.11C141.528 146.11 142.108 146.257 142.628 146.552C143.148 146.838 143.556 147.245 143.85 147.774C144.145 148.303 144.292 148.905 144.292 149.581C144.292 150.266 144.145 150.872 143.85 151.401C143.556 151.93 143.148 152.341 142.628 152.636C142.117 152.922 141.536 153.065 140.886 153.065C140.332 153.065 139.829 152.952 139.378 152.727C138.936 152.493 138.572 152.155 138.286 151.713V155.522H137.363V146.162H138.247V147.514C138.525 147.063 138.889 146.717 139.339 146.474C139.799 146.231 140.314 146.11 140.886 146.11ZM140.821 152.246C141.298 152.246 141.731 152.138 142.121 151.921C142.511 151.696 142.815 151.379 143.031 150.972C143.257 150.565 143.369 150.101 143.369 149.581C143.369 149.061 143.257 148.602 143.031 148.203C142.815 147.796 142.511 147.479 142.121 147.254C141.731 147.029 141.298 146.916 140.821 146.916C140.336 146.916 139.898 147.029 139.508 147.254C139.127 147.479 138.824 147.796 138.598 148.203C138.382 148.602 138.273 149.061 138.273 149.581C138.273 150.101 138.382 150.565 138.598 150.972C138.824 151.379 139.127 151.696 139.508 151.921C139.898 152.138 140.336 152.246 140.821 152.246ZM152.516 149.867H146.796C146.848 150.578 147.121 151.154 147.615 151.596C148.109 152.029 148.733 152.246 149.487 152.246C149.911 152.246 150.301 152.172 150.657 152.025C151.012 151.869 151.32 151.644 151.58 151.349L152.1 151.947C151.796 152.311 151.415 152.588 150.956 152.779C150.505 152.97 150.007 153.065 149.461 153.065C148.759 153.065 148.135 152.918 147.589 152.623C147.051 152.32 146.631 151.904 146.328 151.375C146.024 150.846 145.873 150.248 145.873 149.581C145.873 148.914 146.016 148.316 146.302 147.787C146.596 147.258 146.995 146.847 147.498 146.552C148.009 146.257 148.581 146.11 149.214 146.11C149.846 146.11 150.414 146.257 150.917 146.552C151.419 146.847 151.814 147.258 152.1 147.787C152.386 148.307 152.529 148.905 152.529 149.581L152.516 149.867ZM149.214 146.903C148.555 146.903 148 147.115 147.55 147.54C147.108 147.956 146.856 148.502 146.796 149.178H151.645C151.584 148.502 151.328 147.956 150.878 147.54C150.436 147.115 149.881 146.903 149.214 146.903ZM159.337 146.981H156.75V153H155.827V146.981H153.24V146.162H159.337V146.981ZM160.931 146.162H161.854V149.191H166.157V146.162H167.08V153H166.157V149.984H161.854V153H160.931V146.162ZM172.785 153.065C172.126 153.065 171.533 152.918 171.004 152.623C170.475 152.32 170.059 151.904 169.756 151.375C169.453 150.846 169.301 150.248 169.301 149.581C169.301 148.914 169.453 148.316 169.756 147.787C170.059 147.258 170.475 146.847 171.004 146.552C171.533 146.257 172.126 146.11 172.785 146.11C173.444 146.11 174.037 146.257 174.566 146.552C175.095 146.847 175.506 147.258 175.801 147.787C176.104 148.316 176.256 148.914 176.256 149.581C176.256 150.248 176.104 150.846 175.801 151.375C175.506 151.904 175.095 152.32 174.566 152.623C174.037 152.918 173.444 153.065 172.785 153.065ZM172.785 152.246C173.27 152.246 173.704 152.138 174.085 151.921C174.475 151.696 174.778 151.379 174.995 150.972C175.212 150.565 175.32 150.101 175.32 149.581C175.32 149.061 175.212 148.597 174.995 148.19C174.778 147.783 174.475 147.471 174.085 147.254C173.704 147.029 173.27 146.916 172.785 146.916C172.3 146.916 171.862 147.029 171.472 147.254C171.091 147.471 170.787 147.783 170.562 148.19C170.345 148.597 170.237 149.061 170.237 149.581C170.237 150.101 170.345 150.565 170.562 150.972C170.787 151.379 171.091 151.696 171.472 151.921C171.862 152.138 172.3 152.246 172.785 152.246ZM178.489 146.162H179.412V151.596L183.975 146.162H184.794V153H183.871V147.566L179.321 153H178.489V146.162ZM181.596 145.174C181.006 145.174 180.538 145.027 180.192 144.732C179.845 144.437 179.667 144.021 179.659 143.484H180.322C180.33 143.822 180.452 144.095 180.686 144.303C180.92 144.502 181.223 144.602 181.596 144.602C181.968 144.602 182.272 144.502 182.506 144.303C182.748 144.095 182.874 143.822 182.883 143.484H183.546C183.537 144.021 183.355 144.437 183 144.732C182.653 145.027 182.185 145.174 181.596 145.174ZM26.474 167.162V174H25.551V171.153C24.7623 171.5 23.9867 171.673 23.224 171.673C22.4007 171.673 21.7593 171.487 21.3 171.114C20.8407 170.733 20.611 170.165 20.611 169.411V167.162H21.534V169.359C21.534 169.87 21.6987 170.26 22.028 170.529C22.3573 170.789 22.8123 170.919 23.393 170.919C24.0343 170.919 24.7537 170.75 25.551 170.412V167.162H26.474ZM31.7082 167.11C32.6009 167.11 33.2856 167.335 33.7622 167.786C34.2389 168.228 34.4772 168.887 34.4772 169.762V174H33.5932V172.934C33.3852 173.289 33.0776 173.567 32.6702 173.766C32.2716 173.965 31.7949 174.065 31.2402 174.065C30.4776 174.065 29.8709 173.883 29.4202 173.519C28.9696 173.155 28.7442 172.674 28.7442 172.076C28.7442 171.495 28.9522 171.027 29.3682 170.672C29.7929 170.317 30.4646 170.139 31.3832 170.139H33.5542V169.723C33.5542 169.134 33.3896 168.687 33.0602 168.384C32.7309 168.072 32.2499 167.916 31.6172 167.916C31.1839 167.916 30.7679 167.99 30.3692 168.137C29.9706 168.276 29.6282 168.471 29.3422 168.722L28.9262 168.033C29.2729 167.738 29.6889 167.513 30.1742 167.357C30.6596 167.192 31.1709 167.11 31.7082 167.11ZM31.3832 173.337C31.9032 173.337 32.3496 173.22 32.7222 172.986C33.0949 172.743 33.3722 172.397 33.5542 171.946V170.828H31.4092C30.2392 170.828 29.6542 171.235 29.6542 172.05C29.6542 172.449 29.8059 172.765 30.1092 172.999C30.4126 173.224 30.8372 173.337 31.3832 173.337ZM40.0543 174.065C39.3783 174.065 38.7717 173.918 38.2343 173.623C37.7057 173.328 37.2897 172.917 36.9863 172.388C36.683 171.851 36.5313 171.248 36.5313 170.581C36.5313 169.914 36.683 169.316 36.9863 168.787C37.2897 168.258 37.7057 167.847 38.2343 167.552C38.7717 167.257 39.3783 167.11 40.0543 167.11C40.6437 167.11 41.168 167.227 41.6273 167.461C42.0953 167.686 42.4637 168.02 42.7323 168.462L42.0433 168.93C41.818 168.592 41.532 168.341 41.1853 168.176C40.8387 168.003 40.4617 167.916 40.0543 167.916C39.5603 167.916 39.114 168.029 38.7153 168.254C38.3253 168.471 38.0177 168.783 37.7923 169.19C37.5757 169.597 37.4673 170.061 37.4673 170.581C37.4673 171.11 37.5757 171.578 37.7923 171.985C38.0177 172.384 38.3253 172.696 38.7153 172.921C39.114 173.138 39.5603 173.246 40.0543 173.246C40.4617 173.246 40.8387 173.164 41.1853 172.999C41.532 172.834 41.818 172.583 42.0433 172.245L42.7323 172.713C42.4637 173.155 42.0953 173.493 41.6273 173.727C41.1593 173.952 40.635 174.065 40.0543 174.065ZM49.4626 167.981H46.8756V174H45.9526V167.981H43.3656V167.162H49.4626V167.981ZM51.0571 167.162H51.9801V172.596L56.5431 167.162H57.3621V174H56.4391V168.566L51.8891 174H51.0571V167.162ZM70.0656 167.162V174H69.1426V167.981H64.8526V174H63.9296V167.162H70.0656ZM76.4724 167.11C77.1137 167.11 77.6944 167.257 78.2144 167.552C78.7344 167.838 79.1417 168.245 79.4364 168.774C79.7311 169.303 79.8784 169.905 79.8784 170.581C79.8784 171.266 79.7311 171.872 79.4364 172.401C79.1417 172.93 78.7344 173.341 78.2144 173.636C77.7031 173.922 77.1224 174.065 76.4724 174.065C75.9177 174.065 75.4151 173.952 74.9644 173.727C74.5224 173.493 74.1584 173.155 73.8724 172.713V176.522H72.9494V167.162H73.8334V168.514C74.1107 168.063 74.4747 167.717 74.9254 167.474C75.3847 167.231 75.9004 167.11 76.4724 167.11ZM76.4074 173.246C76.8841 173.246 77.3174 173.138 77.7074 172.921C78.0974 172.696 78.4007 172.379 78.6174 171.972C78.8427 171.565 78.9554 171.101 78.9554 170.581C78.9554 170.061 78.8427 169.602 78.6174 169.203C78.4007 168.796 78.0974 168.479 77.7074 168.254C77.3174 168.029 76.8841 167.916 76.4074 167.916C75.9221 167.916 75.4844 168.029 75.0944 168.254C74.7131 168.479 74.4097 168.796 74.1844 169.203C73.9677 169.602 73.8594 170.061 73.8594 170.581C73.8594 171.101 73.9677 171.565 74.1844 171.972C74.4097 172.379 74.7131 172.696 75.0944 172.921C75.4844 173.138 75.9221 173.246 76.4074 173.246ZM84.9425 174.065C84.2839 174.065 83.6902 173.918 83.1615 173.623C82.6329 173.32 82.2169 172.904 81.9135 172.375C81.6102 171.846 81.4585 171.248 81.4585 170.581C81.4585 169.914 81.6102 169.316 81.9135 168.787C82.2169 168.258 82.6329 167.847 83.1615 167.552C83.6902 167.257 84.2839 167.11 84.9425 167.11C85.6012 167.11 86.1949 167.257 86.7235 167.552C87.2522 167.847 87.6639 168.258 87.9585 168.787C88.2619 169.316 88.4135 169.914 88.4135 170.581C88.4135 171.248 88.2619 171.846 87.9585 172.375C87.6639 172.904 87.2522 173.32 86.7235 173.623C86.1949 173.918 85.6012 174.065 84.9425 174.065ZM84.9425 173.246C85.4279 173.246 85.8612 173.138 86.2425 172.921C86.6325 172.696 86.9359 172.379 87.1525 171.972C87.3692 171.565 87.4775 171.101 87.4775 170.581C87.4775 170.061 87.3692 169.597 87.1525 169.19C86.9359 168.783 86.6325 168.471 86.2425 168.254C85.8612 168.029 85.4279 167.916 84.9425 167.916C84.4572 167.916 84.0195 168.029 83.6295 168.254C83.2482 168.471 82.9449 168.783 82.7195 169.19C82.5029 169.597 82.3945 170.061 82.3945 170.581C82.3945 171.101 82.5029 171.565 82.7195 171.972C82.9449 172.379 83.2482 172.696 83.6295 172.921C84.0195 173.138 84.4572 173.246 84.9425 173.246ZM97.2771 173.194V175.651H96.4061V174H90.2831V175.651H89.4121V173.194H89.8021C90.2614 173.168 90.5734 172.83 90.7381 172.18C90.9027 171.53 91.0154 170.62 91.0761 169.45L91.1671 167.162H96.2111V173.194H97.2771ZM91.9211 169.502C91.8777 170.473 91.7954 171.274 91.6741 171.907C91.5527 172.531 91.3361 172.96 91.0241 173.194H95.2881V167.981H91.9991L91.9211 169.502ZM105.147 167.162L101.728 174.819C101.451 175.46 101.13 175.915 100.766 176.184C100.402 176.453 99.9642 176.587 99.4529 176.587C99.1235 176.587 98.8159 176.535 98.5299 176.431C98.2439 176.327 97.9969 176.171 97.7889 175.963L98.2179 175.274C98.5645 175.621 98.9805 175.794 99.4659 175.794C99.7779 175.794 100.042 175.707 100.259 175.534C100.484 175.361 100.692 175.066 100.883 174.65L101.182 173.987L98.1269 167.162H99.0889L101.663 172.973L104.237 167.162H105.147ZM109.328 170.958H107.768V174H106.845V167.162H107.768V170.165H109.341L111.746 167.162H112.747L110.056 170.477L112.942 174H111.85L109.328 170.958ZM119.329 167.981H116.742V174H115.819V167.981H113.232V167.162H119.329V167.981ZM123.276 167.11C124.169 167.11 124.854 167.335 125.33 167.786C125.807 168.228 126.045 168.887 126.045 169.762V174H125.161V172.934C124.953 173.289 124.646 173.567 124.238 173.766C123.84 173.965 123.363 174.065 122.808 174.065C122.046 174.065 121.439 173.883 120.988 173.519C120.538 173.155 120.312 172.674 120.312 172.076C120.312 171.495 120.52 171.027 120.936 170.672C121.361 170.317 122.033 170.139 122.951 170.139H125.122V169.723C125.122 169.134 124.958 168.687 124.628 168.384C124.299 168.072 123.818 167.916 123.185 167.916C122.752 167.916 122.336 167.99 121.937 168.137C121.539 168.276 121.196 168.471 120.91 168.722L120.494 168.033C120.841 167.738 121.257 167.513 121.742 167.357C122.228 167.192 122.739 167.11 123.276 167.11ZM122.951 173.337C123.471 173.337 123.918 173.22 124.29 172.986C124.663 172.743 124.94 172.397 125.122 171.946V170.828H122.977C121.807 170.828 121.222 171.235 121.222 172.05C121.222 172.449 121.374 172.765 121.677 172.999C121.981 173.224 122.405 173.337 122.951 173.337ZM135.753 170.438C136.238 170.551 136.611 170.746 136.871 171.023C137.14 171.3 137.274 171.638 137.274 172.037C137.274 172.436 137.135 172.791 136.858 173.103C136.589 173.415 136.221 173.658 135.753 173.831C135.285 173.996 134.769 174.078 134.206 174.078C133.712 174.078 133.227 174.009 132.75 173.87C132.273 173.723 131.857 173.51 131.502 173.233L131.814 172.544C132.126 172.778 132.49 172.96 132.906 173.09C133.322 173.22 133.742 173.285 134.167 173.285C134.8 173.285 135.315 173.168 135.714 172.934C136.121 172.691 136.325 172.366 136.325 171.959C136.325 171.595 136.16 171.313 135.831 171.114C135.502 170.906 135.051 170.802 134.479 170.802H133.309V170.126H134.427C134.938 170.126 135.35 170.031 135.662 169.84C135.974 169.641 136.13 169.376 136.13 169.047C136.13 168.683 135.952 168.397 135.597 168.189C135.25 167.981 134.795 167.877 134.232 167.877C133.495 167.877 132.767 168.063 132.048 168.436L131.788 167.721C132.603 167.296 133.448 167.084 134.323 167.084C134.843 167.084 135.311 167.162 135.727 167.318C136.152 167.465 136.481 167.678 136.715 167.955C136.958 168.232 137.079 168.553 137.079 168.917C137.079 169.264 136.958 169.571 136.715 169.84C136.481 170.109 136.16 170.308 135.753 170.438ZM141.982 167.11C142.875 167.11 143.56 167.335 144.036 167.786C144.513 168.228 144.751 168.887 144.751 169.762V174H143.867V172.934C143.659 173.289 143.352 173.567 142.944 173.766C142.546 173.965 142.069 174.065 141.514 174.065C140.752 174.065 140.145 173.883 139.694 173.519C139.244 173.155 139.018 172.674 139.018 172.076C139.018 171.495 139.226 171.027 139.642 170.672C140.067 170.317 140.739 170.139 141.657 170.139H143.828V169.723C143.828 169.134 143.664 168.687 143.334 168.384C143.005 168.072 142.524 167.916 141.891 167.916C141.458 167.916 141.042 167.99 140.643 168.137C140.245 168.276 139.902 168.471 139.616 168.722L139.2 168.033C139.547 167.738 139.963 167.513 140.448 167.357C140.934 167.192 141.445 167.11 141.982 167.11ZM141.657 173.337C142.177 173.337 142.624 173.22 142.996 172.986C143.369 172.743 143.646 172.397 143.828 171.946V170.828H141.683C140.513 170.828 139.928 171.235 139.928 172.05C139.928 172.449 140.08 172.765 140.383 172.999C140.687 173.224 141.111 173.337 141.657 173.337ZM158.255 173.194V175.716H157.384V174H151.131V167.162H152.054V173.194H156.227V167.162H157.15V173.194H158.255ZM166.257 170.867H160.537C160.589 171.578 160.862 172.154 161.356 172.596C161.85 173.029 162.474 173.246 163.228 173.246C163.653 173.246 164.043 173.172 164.398 173.025C164.754 172.869 165.061 172.644 165.321 172.349L165.841 172.947C165.538 173.311 165.157 173.588 164.697 173.779C164.247 173.97 163.748 174.065 163.202 174.065C162.5 174.065 161.876 173.918 161.33 173.623C160.793 173.32 160.373 172.904 160.069 172.375C159.766 171.846 159.614 171.248 159.614 170.581C159.614 169.914 159.757 169.316 160.043 168.787C160.338 168.258 160.737 167.847 161.239 167.552C161.751 167.257 162.323 167.11 162.955 167.11C163.588 167.11 164.156 167.257 164.658 167.552C165.161 167.847 165.555 168.258 165.841 168.787C166.127 169.307 166.27 169.905 166.27 170.581L166.257 170.867ZM162.955 167.903C162.297 167.903 161.742 168.115 161.291 168.54C160.849 168.956 160.598 169.502 160.537 170.178H165.386C165.326 169.502 165.07 168.956 164.619 168.54C164.177 168.115 163.623 167.903 162.955 167.903ZM168.574 167.162H169.497V170.191H173.8V167.162H174.723V174H173.8V170.984H169.497V174H168.574V167.162ZM183.417 167.162L179.998 174.819C179.721 175.46 179.4 175.915 179.036 176.184C178.672 176.453 178.234 176.587 177.723 176.587C177.394 176.587 177.086 176.535 176.8 176.431C176.514 176.327 176.267 176.171 176.059 175.963L176.488 175.274C176.835 175.621 177.251 175.794 177.736 175.794C178.048 175.794 178.312 175.707 178.529 175.534C178.754 175.361 178.962 175.066 179.153 174.65L179.452 173.987L176.397 167.162H177.359L179.933 172.973L182.507 167.162H183.417ZM21.313 188.162H22.236V191.191H26.539V188.162H27.462V195H26.539V191.984H22.236V195H21.313V188.162ZM30.3455 188.162H31.2685V193.596L35.8315 188.162H36.6505V195H35.7275V189.566L31.1775 195H30.3455V188.162ZM45.5487 191.958H44.0667V195H43.1437V191.958H41.6617L39.5687 195H38.4637L40.9207 191.477L38.6587 188.162H39.6597L41.6617 191.165H43.1437V188.162H44.0667V191.165H45.5487L47.5637 188.162H48.5647L46.3027 191.49L48.7597 195H47.6547L45.5487 191.958ZM56.2947 191.867H50.5747C50.6267 192.578 50.8997 193.154 51.3937 193.596C51.8877 194.029 52.5117 194.246 53.2657 194.246C53.6903 194.246 54.0803 194.172 54.4357 194.025C54.791 193.869 55.0987 193.644 55.3587 193.349L55.8787 193.947C55.5753 194.311 55.194 194.588 54.7347 194.779C54.284 194.97 53.7857 195.065 53.2397 195.065C52.5377 195.065 51.9137 194.918 51.3677 194.623C50.8303 194.32 50.41 193.904 50.1067 193.375C49.8033 192.846 49.6517 192.248 49.6517 191.581C49.6517 190.914 49.7947 190.316 50.0807 189.787C50.3753 189.258 50.774 188.847 51.2767 188.552C51.788 188.257 52.36 188.11 52.9927 188.11C53.6253 188.11 54.193 188.257 54.6957 188.552C55.1983 188.847 55.5927 189.258 55.8787 189.787C56.1647 190.307 56.3077 190.905 56.3077 191.581L56.2947 191.867ZM52.9927 188.903C52.334 188.903 51.7793 189.115 51.3287 189.54C50.8867 189.956 50.6353 190.502 50.5747 191.178H55.4237C55.363 190.502 55.1073 189.956 54.6567 189.54C54.2147 189.115 53.66 188.903 52.9927 188.903ZM65.7962 188.11C66.4375 188.11 67.0182 188.257 67.5382 188.552C68.0582 188.838 68.4655 189.245 68.7602 189.774C69.0548 190.303 69.2022 190.905 69.2022 191.581C69.2022 192.266 69.0548 192.872 68.7602 193.401C68.4655 193.93 68.0582 194.341 67.5382 194.636C67.0268 194.922 66.4462 195.065 65.7962 195.065C65.2415 195.065 64.7388 194.952 64.2882 194.727C63.8462 194.493 63.4822 194.155 63.1962 193.713V197.522H62.2732V188.162H63.1572V189.514C63.4345 189.063 63.7985 188.717 64.2492 188.474C64.7085 188.231 65.2242 188.11 65.7962 188.11ZM65.7312 194.246C66.2078 194.246 66.6412 194.138 67.0312 193.921C67.4212 193.696 67.7245 193.379 67.9412 192.972C68.1665 192.565 68.2792 192.101 68.2792 191.581C68.2792 191.061 68.1665 190.602 67.9412 190.203C67.7245 189.796 67.4212 189.479 67.0312 189.254C66.6412 189.029 66.2078 188.916 65.7312 188.916C65.2458 188.916 64.8082 189.029 64.4182 189.254C64.0368 189.479 63.7335 189.796 63.5082 190.203C63.2915 190.602 63.1832 191.061 63.1832 191.581C63.1832 192.101 63.2915 192.565 63.5082 192.972C63.7335 193.379 64.0368 193.696 64.4182 193.921C64.8082 194.138 65.2458 194.246 65.7312 194.246ZM74.3183 190.58C75.1763 190.589 75.8306 190.779 76.2813 191.152C76.7319 191.525 76.9573 192.062 76.9573 192.764C76.9573 193.492 76.7146 194.051 76.2293 194.441C75.7439 194.831 75.0506 195.022 74.1493 195.013L71.4453 195V188.162H72.3683V190.554L74.3183 190.58ZM78.1013 188.162H79.0243V195H78.1013V188.162ZM74.0973 194.311C74.7299 194.32 75.2066 194.194 75.5273 193.934C75.8566 193.665 76.0213 193.275 76.0213 192.764C76.0213 192.261 75.8609 191.889 75.5403 191.646C75.2196 191.403 74.7386 191.278 74.0973 191.269L72.3683 191.243V194.285L74.0973 194.311ZM81.9123 188.162H82.8353V191.191H87.1383V188.162H88.0613V195H87.1383V191.984H82.8353V195H81.9123V188.162ZM93.7658 195.065C93.1071 195.065 92.5134 194.918 91.9848 194.623C91.4561 194.32 91.0401 193.904 90.7368 193.375C90.4334 192.846 90.2818 192.248 90.2818 191.581C90.2818 190.914 90.4334 190.316 90.7368 189.787C91.0401 189.258 91.4561 188.847 91.9848 188.552C92.5134 188.257 93.1071 188.11 93.7658 188.11C94.4244 188.11 95.0181 188.257 95.5468 188.552C96.0754 188.847 96.4871 189.258 96.7818 189.787C97.0851 190.316 97.2368 190.914 97.2368 191.581C97.2368 192.248 97.0851 192.846 96.7818 193.375C96.4871 193.904 96.0754 194.32 95.5468 194.623C95.0181 194.918 94.4244 195.065 93.7658 195.065ZM93.7658 194.246C94.2511 194.246 94.6844 194.138 95.0658 193.921C95.4558 193.696 95.7591 193.379 95.9758 192.972C96.1924 192.565 96.3008 192.101 96.3008 191.581C96.3008 191.061 96.1924 190.597 95.9758 190.19C95.7591 189.783 95.4558 189.471 95.0658 189.254C94.6844 189.029 94.2511 188.916 93.7658 188.916C93.2804 188.916 92.8428 189.029 92.4528 189.254C92.0714 189.471 91.7681 189.783 91.5428 190.19C91.3261 190.597 91.2178 191.061 91.2178 191.581C91.2178 192.101 91.3261 192.565 91.5428 192.972C91.7681 193.379 92.0714 193.696 92.4528 193.921C92.8428 194.138 93.2804 194.246 93.7658 194.246ZM104.63 188.162V195H103.707V192.153C102.919 192.5 102.143 192.673 101.38 192.673C100.557 192.673 99.9157 192.487 99.4564 192.114C98.9971 191.733 98.7674 191.165 98.7674 190.411V188.162H99.6904V190.359C99.6904 190.87 99.8551 191.26 100.184 191.529C100.514 191.789 100.969 191.919 101.549 191.919C102.191 191.919 102.91 191.75 103.707 191.412V188.162H104.63ZM107.512 188.162H108.435V191.191H112.738V188.162H113.661V195H112.738V191.984H108.435V195H107.512V188.162ZM119.365 195.065C118.706 195.065 118.113 194.918 117.584 194.623C117.055 194.32 116.639 193.904 116.336 193.375C116.033 192.846 115.881 192.248 115.881 191.581C115.881 190.914 116.033 190.316 116.336 189.787C116.639 189.258 117.055 188.847 117.584 188.552C118.113 188.257 118.706 188.11 119.365 188.11C120.024 188.11 120.617 188.257 121.146 188.552C121.675 188.847 122.086 189.258 122.381 189.787C122.684 190.316 122.836 190.914 122.836 191.581C122.836 192.248 122.684 192.846 122.381 193.375C122.086 193.904 121.675 194.32 121.146 194.623C120.617 194.918 120.024 195.065 119.365 195.065ZM119.365 194.246C119.85 194.246 120.284 194.138 120.665 193.921C121.055 193.696 121.358 193.379 121.575 192.972C121.792 192.565 121.9 192.101 121.9 191.581C121.9 191.061 121.792 190.597 121.575 190.19C121.358 189.783 121.055 189.471 120.665 189.254C120.284 189.029 119.85 188.916 119.365 188.916C118.88 188.916 118.442 189.029 118.052 189.254C117.671 189.471 117.367 189.783 117.142 190.19C116.925 190.597 116.817 191.061 116.817 191.581C116.817 192.101 116.925 192.565 117.142 192.972C117.367 193.379 117.671 193.696 118.052 193.921C118.442 194.138 118.88 194.246 119.365 194.246ZM125.069 188.162H125.992V193.596L130.555 188.162H131.374V195H130.451V189.566L125.901 195H125.069V188.162ZM128.176 187.174C127.586 187.174 127.118 187.027 126.772 186.732C126.425 186.437 126.247 186.021 126.239 185.484H126.902C126.91 185.822 127.032 186.095 127.266 186.303C127.5 186.502 127.803 186.602 128.176 186.602C128.548 186.602 128.852 186.502 129.086 186.303C129.328 186.095 129.454 185.822 129.463 185.484H130.126C130.117 186.021 129.935 186.437 129.58 186.732C129.233 187.027 128.765 187.174 128.176 187.174ZM134.344 195.065C134.153 195.065 133.989 194.996 133.85 194.857C133.72 194.718 133.655 194.549 133.655 194.35C133.655 194.151 133.72 193.986 133.85 193.856C133.989 193.717 134.153 193.648 134.344 193.648C134.535 193.648 134.699 193.717 134.838 193.856C134.977 193.986 135.046 194.151 135.046 194.35C135.046 194.549 134.977 194.718 134.838 194.857C134.699 194.996 134.535 195.065 134.344 195.065Z" fill="white"/>
</svg>
