<svg width="18" height="18" viewBox="0 0 18 18" fill="none" xmlns="http://www.w3.org/2000/svg">
<path fill-rule="evenodd" clip-rule="evenodd" d="M0 9C0 4.032 4.032 0 9 0C13.968 0 18 4.032 18 9V10.287C18 12.06 16.623 13.5 14.85 13.5C13.779 13.5 12.771 12.978 12.186 12.177C11.376 12.996 10.242 13.5 9 13.5C6.516 13.5 4.5 11.484 4.5 9C4.5 6.516 6.516 4.5 9 4.5C11.484 4.5 13.5 6.516 13.5 9V10.287C13.5 10.998 14.139 11.7 14.85 11.7C15.561 11.7 16.2 10.998 16.2 10.287V9C16.2 5.094 12.906 1.8 9 1.8C5.094 1.8 1.8 5.094 1.8 9C1.8 12.906 5.094 16.2 9 16.2H13.5V18H9C4.032 18 0 13.968 0 9ZM6.30015 8.99949C6.30015 10.4935 7.50615 11.6995 9.00015 11.6995C10.4941 11.6995 11.7001 10.4935 11.7001 8.99949C11.7001 7.50549 10.4941 6.29949 9.00015 6.29949C7.50615 6.29949 6.30015 7.50549 6.30015 8.99949Z" fill="white"/>
</svg>
