<svg width="14" height="9" viewBox="0 0 14 9" fill="none" xmlns="http://www.w3.org/2000/svg">
<path fill-rule="evenodd" clip-rule="evenodd" d="M0 4.50018C0 4.0935 0.391751 3.76381 0.875 3.76381H11.0119L9.00628 2.07541C8.69086 1.80996 8.66659 1.39228 8.93349 1.10341L9.00628 1.03404C9.3217 0.768588 9.81803 0.748169 10.1613 0.972778L10.2437 1.03404L13.7437 3.97949L13.7799 4.01186L13.8282 4.06182L13.8909 4.14373L13.9377 4.22674L13.9686 4.30431L13.994 4.41367L14 4.50018L13.9976 4.55558L13.9823 4.64798L13.9565 4.73003L13.918 4.81182L13.8723 4.88361L13.8138 4.95433C13.792 4.97768 13.7686 4.9999 13.7437 5.02087L10.2437 7.96632C9.90201 8.25389 9.34799 8.25389 9.00628 7.96632C8.69086 7.70087 8.66659 7.28318 8.93349 6.99432L9.00628 6.92494L11.0119 5.23654H0.875C0.391751 5.23654 0 4.90686 0 4.50018Z" fill="#7170FF"/>
</svg>
