<svg width="24" height="24" viewBox="0 0 24 24" fill="none" xmlns="http://www.w3.org/2000/svg">
<path fill-rule="evenodd" clip-rule="evenodd" d="M12.0011 0C8.74209 0 8.33309 0.0142502 7.05307 0.0725008C5.77556 0.131001 4.90355 0.333253 4.14054 0.630007C3.35128 0.93651 2.68178 1.34651 2.01477 2.01377C1.34726 2.68078 0.93726 3.35028 0.629757 4.13929C0.332253 4.90255 0.129751 5.77481 0.0722508 7.05182C0.0150002 8.33184 0 8.74109 0 12.0001C0 15.2592 0.0145002 15.6669 0.0725008 16.9469C0.131251 18.2244 0.333503 19.0964 0.630007 19.8595C0.93676 20.6487 1.34676 21.3182 2.01402 21.9852C2.68078 22.6527 3.35028 23.0637 4.13904 23.3702C4.90255 23.667 5.77481 23.8692 7.05207 23.9277C8.33209 23.986 8.74084 24.0002 11.9996 24.0002C15.2589 24.0002 15.6667 23.986 16.9467 23.9277C18.2242 23.8692 19.0972 23.667 19.8607 23.3702C20.6497 23.0637 21.3182 22.6527 21.985 21.9852C22.6525 21.3182 23.0625 20.6487 23.37 19.8597C23.665 19.0964 23.8675 18.2242 23.9275 16.9472C23.985 15.6672 24 15.2592 24 12.0001C24 8.74109 23.985 8.33209 23.9275 7.05207C23.8675 5.77456 23.665 4.90255 23.37 4.13954C23.0625 3.35029 22.6525 2.68078 21.985 2.01377C21.3175 1.34626 20.65 0.93626 19.86 0.630007C19.0949 0.333253 18.2224 0.131001 16.9449 0.0725008C15.6649 0.0142502 15.2574 0 11.9974 0H12.0011ZM10.9247 2.16261C11.2442 2.16211 11.6007 2.16261 12.0012 2.16261C15.2052 2.16261 15.585 2.17411 16.8502 2.23161C18.0202 2.28511 18.6552 2.48061 19.0782 2.64486C19.6383 2.86236 20.0375 3.12237 20.4573 3.54237C20.8773 3.96237 21.1373 4.36238 21.3553 4.92238C21.5195 5.34489 21.7153 5.9799 21.7685 7.14991C21.826 8.41492 21.8385 8.79493 21.8385 11.9975C21.8385 15.2 21.826 15.58 21.7685 16.845C21.715 18.015 21.5195 18.65 21.3553 19.0725C21.1378 19.6325 20.8773 20.0313 20.4573 20.451C20.0373 20.8711 19.6385 21.1311 19.0782 21.3486C18.6557 21.5136 18.0202 21.7086 16.8502 21.7621C15.5852 21.8196 15.2052 21.8321 12.0012 21.8321C8.79689 21.8321 8.41714 21.8196 7.15213 21.7621C5.98211 21.7081 5.34711 21.5126 4.92385 21.3483C4.36385 21.1308 3.96384 20.8708 3.54384 20.4508C3.12383 20.0308 2.86383 19.6318 2.64583 19.0715C2.48158 18.649 2.28583 18.014 2.23257 16.844C2.17507 15.579 2.16357 15.199 2.16357 11.9945C2.16357 8.78992 2.17507 8.41192 2.23257 7.14691C2.28608 5.9769 2.48158 5.34189 2.64583 4.91888C2.86333 4.35888 3.12383 3.95887 3.54384 3.53887C3.96384 3.11887 4.36385 2.85886 4.92385 2.64086C5.34686 2.47586 5.98211 2.28086 7.15213 2.22711C8.25914 2.17711 8.68814 2.16211 10.9247 2.15961V2.16261ZM18.4068 4.15513C17.6117 4.15513 16.9667 4.79939 16.9667 5.59465C16.9667 6.38966 17.6117 7.03466 18.4068 7.03466C19.2018 7.03466 19.8468 6.38966 19.8468 5.59465C19.8468 4.79964 19.2018 4.15463 18.4068 4.15463V4.15513ZM12.0011 5.83765C8.59778 5.83765 5.8385 8.59692 5.8385 12.0002C5.8385 15.4035 8.59778 18.1615 12.0011 18.1615C15.4044 18.1615 18.1626 15.4035 18.1626 12.0002C18.1626 8.59692 15.4041 5.83765 12.0008 5.83765H12.0011ZM12.0012 8.00017C14.2102 8.00017 16.0012 9.79094 16.0012 12.0002C16.0012 14.2092 14.2102 16.0002 12.0012 16.0002C9.79193 16.0002 8.00116 14.2092 8.00116 12.0002C8.00116 9.79094 9.79193 8.00017 12.0012 8.00017Z" fill="white"/>
</svg>
