<svg width="317" height="199" viewBox="0 0 317 199" fill="none" xmlns="http://www.w3.org/2000/svg">
<rect x="222" y="68" width="56" height="56" stroke="white" stroke-width="4"/>
<path d="M113.236 124L140 70.4721L166.764 124H113.236Z" stroke="white" stroke-width="4"/>
<circle cx="30" cy="96" r="28" stroke="white" stroke-width="4"/>
<path fill-rule="evenodd" clip-rule="evenodd" d="M26.8651 99.9934L23.5607 96.4687C22.9749 95.8438 22.0251 95.8438 21.4393 96.4687C20.8536 97.0935 20.8536 98.1066 21.4393 98.7314L25.9393 103.531C26.5752 104.21 27.6239 104.143 28.1794 103.388L38.6794 90.5886C39.1912 89.8937 39.0781 88.8879 38.4267 88.342C37.7753 87.796 36.8323 87.9167 36.3205 88.6116L26.8651 99.9934Z" fill="white"/>
<path d="M194.319 162.971L194.379 161.472L194.328 161.47L194.277 161.471L194.319 162.971ZM233.465 141.68C233.289 140.87 232.489 140.358 231.68 140.535L218.491 143.417C217.682 143.594 217.169 144.393 217.346 145.203C217.523 146.012 218.322 146.525 219.132 146.348L230.855 143.786L233.417 155.509C233.594 156.318 234.393 156.831 235.203 156.654C236.012 156.477 236.525 155.678 236.348 154.868L233.465 141.68ZM156 143.565C154.653 144.225 154.653 144.225 154.654 144.226C154.654 144.227 154.654 144.228 154.655 144.228C154.656 144.23 154.656 144.232 154.658 144.234C154.66 144.239 154.663 144.244 154.666 144.251C154.673 144.265 154.682 144.284 154.694 144.307C154.718 144.354 154.752 144.419 154.797 144.502C154.885 144.667 155.016 144.902 155.19 145.196C155.538 145.784 156.061 146.611 156.778 147.594C158.211 149.56 160.42 152.159 163.549 154.729C169.826 159.887 179.752 164.885 194.362 164.47L194.277 161.471C180.463 161.864 171.23 157.158 165.453 152.412C162.554 150.03 160.514 147.626 159.203 145.827C158.547 144.928 158.076 144.182 157.772 143.668C157.62 143.411 157.51 143.212 157.439 143.082C157.404 143.017 157.379 142.969 157.364 142.939C157.356 142.924 157.351 142.913 157.348 142.908C157.347 142.905 157.346 142.903 157.346 142.903C157.346 142.903 157.346 142.903 157.346 142.903C157.346 142.903 157.347 142.904 157.347 142.904C157.347 142.905 157.347 142.905 156 143.565ZM194.26 164.469C206.575 164.959 216.346 159.49 222.978 153.992C226.3 151.239 228.86 148.459 230.591 146.365C231.458 145.317 232.119 144.438 232.567 143.816C232.791 143.506 232.962 143.259 233.078 143.088C233.136 143.002 233.181 142.935 233.211 142.888C233.227 142.865 233.239 142.847 233.247 142.833C233.252 142.827 233.255 142.822 233.258 142.818C233.259 142.816 233.26 142.814 233.261 142.813C233.261 142.812 233.262 142.811 233.262 142.811C233.262 142.81 233.263 142.81 232 142C230.737 141.19 230.738 141.19 230.738 141.19C230.738 141.19 230.738 141.189 230.738 141.189C230.738 141.189 230.738 141.19 230.737 141.19C230.736 141.192 230.735 141.194 230.732 141.198C230.727 141.206 230.718 141.219 230.707 141.237C230.683 141.273 230.646 141.329 230.595 141.404C230.494 141.553 230.34 141.776 230.133 142.063C229.72 142.636 229.099 143.461 228.279 144.453C226.638 146.438 224.209 149.076 221.064 151.683C214.763 156.905 205.694 161.921 194.379 161.472L194.26 164.469Z" fill="white"/>
<path d="M310.688 150.669L309.225 150.999L309.236 151.049L309.251 151.098L310.688 150.669ZM291.312 130.052C290.577 130.432 290.288 131.337 290.669 132.073L296.866 144.066C297.247 144.802 298.152 145.09 298.887 144.71C299.623 144.33 299.912 143.425 299.531 142.689L294.022 132.028L304.683 126.519C305.419 126.139 305.707 125.234 305.327 124.498C304.947 123.762 304.042 123.474 303.306 123.854L291.312 130.052ZM305.191 176.845C306.177 177.976 306.178 177.975 306.178 177.975C306.179 177.975 306.18 177.974 306.18 177.973C306.181 177.972 306.183 177.971 306.184 177.97C306.187 177.967 306.191 177.964 306.195 177.96C306.203 177.953 306.214 177.943 306.228 177.931C306.255 177.907 306.291 177.873 306.336 177.831C306.427 177.745 306.553 177.624 306.707 177.466C307.016 177.15 307.441 176.688 307.93 176.084C308.906 174.875 310.14 173.086 311.205 170.74C313.347 166.021 314.772 159.105 312.125 150.24L309.251 151.098C311.67 159.2 310.347 165.372 308.474 169.5C307.531 171.576 306.442 173.151 305.596 174.199C305.173 174.723 304.812 175.113 304.563 175.367C304.439 175.494 304.343 175.587 304.281 175.645C304.25 175.674 304.228 175.695 304.215 175.706C304.209 175.712 304.205 175.716 304.203 175.717C304.202 175.718 304.202 175.718 304.202 175.718C304.203 175.717 304.203 175.717 304.203 175.717C304.204 175.716 304.204 175.716 304.204 175.716C304.205 175.715 304.206 175.715 305.191 176.845ZM312.151 150.339C310.419 142.669 305.438 137.567 300.996 134.416C298.769 132.837 296.652 131.729 295.089 131.013C294.306 130.655 293.659 130.394 293.203 130.221C292.975 130.135 292.794 130.07 292.667 130.026C292.604 130.004 292.554 129.987 292.519 129.975C292.501 129.969 292.487 129.965 292.477 129.961C292.471 129.96 292.467 129.958 292.464 129.957C292.462 129.957 292.461 129.956 292.459 129.956C292.459 129.956 292.458 129.955 292.458 129.955C292.457 129.955 292.456 129.955 292.001 131.384C291.546 132.813 291.545 132.813 291.545 132.813C291.545 132.813 291.544 132.813 291.544 132.813C291.544 132.813 291.544 132.813 291.544 132.813C291.545 132.813 291.546 132.813 291.548 132.814C291.553 132.816 291.561 132.818 291.572 132.822C291.596 132.83 291.633 132.842 291.683 132.86C291.785 132.895 291.939 132.95 292.139 133.026C292.54 133.178 293.125 133.414 293.841 133.741C295.275 134.398 297.221 135.417 299.26 136.863C303.351 139.764 307.713 144.305 309.225 150.999L312.151 150.339Z" fill="white"/>
<path d="M94.9681 58.3644L96.4344 58.0483L96.4237 57.9984L96.4095 57.9493L94.9681 58.3644ZM114.141 79.1703C114.881 78.7972 115.178 77.8951 114.805 77.1555L108.724 65.1022C108.351 64.3625 107.449 64.0654 106.71 64.4385C105.97 64.8116 105.673 65.7137 106.046 66.4533L111.45 77.1674L100.736 82.572C99.9968 82.9451 99.6997 83.8471 100.073 84.5868C100.446 85.3264 101.348 85.6236 102.088 85.2505L114.141 79.1703ZM100.72 32.243C99.7456 31.1028 99.745 31.1034 99.7442 31.104C99.7439 31.1043 99.7432 31.1049 99.7426 31.1054C99.7414 31.1065 99.7401 31.1076 99.7386 31.1089C99.7356 31.1115 99.7319 31.1147 99.7276 31.1184C99.7191 31.1259 99.708 31.1356 99.6944 31.1476C99.6674 31.1716 99.6306 31.2046 99.585 31.2468C99.4937 31.331 99.3667 31.4514 99.2105 31.6078C98.8984 31.9206 98.4688 32.378 97.9746 32.9781C96.987 34.1772 95.7348 35.9535 94.6468 38.2898C92.4594 42.987 90.9664 49.8893 93.5267 58.7795L96.4095 57.9493C94.0696 49.8243 95.4526 43.6659 97.3664 39.5562C98.329 37.4891 99.4337 35.9254 100.29 34.8853C100.718 34.3658 101.083 33.9789 101.334 33.7272C101.459 33.6014 101.556 33.5096 101.619 33.4521C101.65 33.4234 101.672 33.4032 101.685 33.3917C101.692 33.386 101.696 33.3824 101.698 33.3809C101.698 33.3802 101.699 33.3801 101.698 33.3804C101.698 33.3806 101.698 33.3809 101.697 33.3814C101.697 33.3816 101.696 33.3821 101.696 33.3822C101.696 33.3827 101.695 33.3832 100.72 32.243ZM93.5018 58.6805C95.1587 66.3672 100.09 71.5176 104.501 74.7112C106.712 76.3119 108.818 77.4412 110.374 78.1716C111.153 78.5374 111.797 78.8047 112.252 78.9823C112.479 79.0711 112.66 79.1375 112.786 79.1827C112.849 79.2053 112.899 79.2226 112.934 79.2348C112.952 79.2408 112.966 79.2456 112.976 79.2491C112.981 79.2508 112.986 79.2523 112.989 79.2534C112.991 79.2539 112.992 79.2544 112.993 79.2548C112.994 79.255 112.994 79.2552 112.995 79.2553C112.995 79.2555 112.996 79.2557 113.465 77.831C113.935 76.4064 113.935 76.4065 113.936 76.4067C113.936 76.4067 113.936 76.4068 113.936 76.4068C113.936 76.4069 113.936 76.4069 113.936 76.4069C113.936 76.4067 113.934 76.4063 113.932 76.4056C113.928 76.4041 113.92 76.4013 113.908 76.3974C113.885 76.3894 113.848 76.3765 113.797 76.3584C113.697 76.3223 113.543 76.2658 113.344 76.1878C112.944 76.0318 112.362 75.7905 111.649 75.456C110.221 74.7858 108.286 73.7476 106.26 72.2812C102.198 69.3403 97.8806 64.7575 96.4344 58.0483L93.5018 58.6805Z" fill="white"/>
<path d="M194.434 196.156C193.507 196.156 192.666 195.957 191.912 195.558C191.167 195.151 190.577 194.592 190.144 193.881C189.719 193.162 189.507 192.351 189.507 191.45C189.507 190.549 189.719 189.743 190.144 189.032C190.577 188.313 191.167 187.754 191.912 187.355C192.666 186.948 193.511 186.744 194.447 186.744C195.236 186.744 195.946 186.883 196.579 187.16C197.22 187.437 197.758 187.836 198.191 188.356L196.839 189.604C196.224 188.893 195.461 188.538 194.551 188.538C193.988 188.538 193.485 188.664 193.043 188.915C192.601 189.158 192.254 189.5 192.003 189.942C191.76 190.384 191.639 190.887 191.639 191.45C191.639 192.013 191.76 192.516 192.003 192.958C192.254 193.4 192.601 193.747 193.043 193.998C193.485 194.241 193.988 194.362 194.551 194.362C195.461 194.362 196.224 194.002 196.839 193.283L198.191 194.531C197.758 195.06 197.22 195.463 196.579 195.74C195.938 196.017 195.223 196.156 194.434 196.156ZM202.749 193.348H201.696V196H199.668V189.006H201.696V191.723H202.788L204.686 189.006H206.844L204.4 192.36L207.013 196H204.621L202.749 193.348ZM212.389 188.902C213.039 188.902 213.629 189.054 214.157 189.357C214.695 189.652 215.115 190.072 215.418 190.618C215.722 191.155 215.873 191.784 215.873 192.503C215.873 193.222 215.722 193.855 215.418 194.401C215.115 194.938 214.695 195.359 214.157 195.662C213.629 195.957 213.039 196.104 212.389 196.104C211.497 196.104 210.795 195.822 210.283 195.259V198.522H208.255V189.006H210.192V189.812C210.695 189.205 211.427 188.902 212.389 188.902ZM212.038 194.44C212.558 194.44 212.983 194.267 213.312 193.92C213.65 193.565 213.819 193.092 213.819 192.503C213.819 191.914 213.65 191.446 213.312 191.099C212.983 190.744 212.558 190.566 212.038 190.566C211.518 190.566 211.089 190.744 210.751 191.099C210.422 191.446 210.257 191.914 210.257 192.503C210.257 193.092 210.422 193.565 210.751 193.92C211.089 194.267 211.518 194.44 212.038 194.44ZM224.371 189.006L221.212 196.429C220.892 197.235 220.493 197.803 220.016 198.132C219.548 198.461 218.981 198.626 218.313 198.626C217.949 198.626 217.59 198.57 217.234 198.457C216.879 198.344 216.589 198.188 216.363 197.989L217.104 196.546C217.26 196.685 217.438 196.793 217.637 196.871C217.845 196.949 218.049 196.988 218.248 196.988C218.526 196.988 218.751 196.919 218.924 196.78C219.098 196.65 219.254 196.429 219.392 196.117L219.418 196.052L216.389 189.006H218.482L220.445 193.751L222.421 189.006H224.371ZM231.213 190.67H227.625V196H225.61V189.006H231.213V190.67ZM238.748 189.006V196H236.72V190.67H234.51L234.445 191.905C234.41 192.824 234.323 193.586 234.185 194.193C234.046 194.8 233.821 195.276 233.509 195.623C233.197 195.97 232.763 196.143 232.209 196.143C231.914 196.143 231.563 196.091 231.156 195.987L231.26 194.323C231.398 194.34 231.498 194.349 231.559 194.349C231.862 194.349 232.087 194.241 232.235 194.024C232.391 193.799 232.495 193.517 232.547 193.179C232.599 192.832 232.638 192.377 232.664 191.814L232.768 189.006H238.748ZM240.958 189.006H242.973V193.166L246.379 189.006H248.238V196H246.223V191.84L242.83 196H240.958V189.006ZM256.323 190.67H253.957V196H251.942V190.67H249.576V189.006H256.323V190.67ZM261.447 191.242C262.357 191.251 263.055 191.459 263.54 191.866C264.026 192.265 264.268 192.832 264.268 193.569C264.268 194.34 263.995 194.943 263.449 195.376C262.912 195.801 262.154 196.013 261.174 196.013L257.664 196V189.006H259.679V191.242H261.447ZM260.992 194.57C261.382 194.579 261.681 194.496 261.889 194.323C262.097 194.15 262.201 193.89 262.201 193.543C262.201 193.205 262.097 192.958 261.889 192.802C261.69 192.646 261.391 192.564 260.992 192.555L259.679 192.542V194.57H260.992ZM276.744 189.006L273.585 196.429C273.264 197.235 272.866 197.803 272.389 198.132C271.921 198.461 271.353 198.626 270.686 198.626C270.322 198.626 269.962 198.57 269.607 198.457C269.252 198.344 268.961 198.188 268.736 197.989L269.477 196.546C269.633 196.685 269.811 196.793 270.01 196.871C270.218 196.949 270.422 196.988 270.621 196.988C270.898 196.988 271.124 196.919 271.297 196.78C271.47 196.65 271.626 196.429 271.765 196.117L271.791 196.052L268.762 189.006H270.855L272.818 193.751L274.794 189.006H276.744ZM283.585 190.67H279.997V196H277.982V189.006H283.585V190.67ZM291.12 189.006V196H289.092V190.67H286.882L286.817 191.905C286.783 192.824 286.696 193.586 286.557 194.193C286.419 194.8 286.193 195.276 285.881 195.623C285.569 195.97 285.136 196.143 284.581 196.143C284.287 196.143 283.936 196.091 283.528 195.987L283.632 194.323C283.771 194.34 283.871 194.349 283.931 194.349C284.235 194.349 284.46 194.241 284.607 194.024C284.763 193.799 284.867 193.517 284.919 193.179C284.971 192.832 285.01 192.377 285.036 191.814L285.14 189.006H291.12ZM297.01 191.242C297.92 191.251 298.609 191.454 299.077 191.853C299.545 192.252 299.779 192.824 299.779 193.569C299.779 194.349 299.514 194.951 298.986 195.376C298.457 195.801 297.707 196.013 296.737 196.013L293.331 196V189.006H295.346V191.242H297.01ZM300.533 189.006H302.548V196H300.533V189.006ZM296.555 194.57C296.945 194.579 297.244 194.496 297.452 194.323C297.66 194.15 297.764 193.89 297.764 193.543C297.764 193.205 297.66 192.958 297.452 192.802C297.252 192.646 296.953 192.564 296.555 192.555L295.346 192.542V194.57H296.555Z" fill="white"/>
<path d="M56.425 0.899999V10H54.332V2.616H50.224V10H48.131V0.899999H56.425ZM65.5838 6.529C65.5838 6.555 65.5708 6.737 65.5448 7.075H60.2538C60.3491 7.50833 60.5745 7.85067 60.9298 8.102C61.2851 8.35333 61.7271 8.479 62.2558 8.479C62.6198 8.479 62.9405 8.427 63.2178 8.323C63.5038 8.21033 63.7681 8.037 64.0108 7.803L65.0898 8.973C64.4311 9.727 63.4691 10.104 62.2038 10.104C61.4151 10.104 60.7175 9.95233 60.1108 9.649C59.5041 9.337 59.0361 8.908 58.7068 8.362C58.3775 7.816 58.2128 7.19633 58.2128 6.503C58.2128 5.81833 58.3731 5.203 58.6938 4.657C59.0231 4.10233 59.4695 3.67333 60.0328 3.37C60.6048 3.058 61.2418 2.902 61.9438 2.902C62.6285 2.902 63.2481 3.04933 63.8028 3.344C64.3575 3.63867 64.7908 4.06333 65.1028 4.618C65.4235 5.164 65.5838 5.801 65.5838 6.529ZM61.9568 4.436C61.4975 4.436 61.1118 4.566 60.7998 4.826C60.4878 5.086 60.2971 5.44133 60.2278 5.892H63.6728C63.6035 5.45 63.4128 5.099 63.1008 4.839C62.7888 4.57033 62.4075 4.436 61.9568 4.436ZM71.5193 2.902C72.1693 2.902 72.7587 3.05367 73.2873 3.357C73.8247 3.65167 74.245 4.072 74.5483 4.618C74.8517 5.15533 75.0033 5.78367 75.0033 6.503C75.0033 7.22233 74.8517 7.855 74.5483 8.401C74.245 8.93833 73.8247 9.35867 73.2873 9.662C72.7587 9.95667 72.1693 10.104 71.5193 10.104C70.6267 10.104 69.9247 9.82233 69.4133 9.259V12.522H67.3853V3.006H69.3223V3.812C69.825 3.20533 70.5573 2.902 71.5193 2.902ZM71.1683 8.44C71.6883 8.44 72.113 8.26667 72.4423 7.92C72.7803 7.56467 72.9493 7.09233 72.9493 6.503C72.9493 5.91367 72.7803 5.44567 72.4423 5.099C72.113 4.74367 71.6883 4.566 71.1683 4.566C70.6483 4.566 70.2193 4.74367 69.8813 5.099C69.552 5.44567 69.3873 5.91367 69.3873 6.503C69.3873 7.09233 69.552 7.56467 69.8813 7.92C70.2193 8.26667 70.6483 8.44 71.1683 8.44ZM83.4837 6.529C83.4837 6.555 83.4707 6.737 83.4447 7.075H78.1537C78.249 7.50833 78.4744 7.85067 78.8297 8.102C79.185 8.35333 79.627 8.479 80.1557 8.479C80.5197 8.479 80.8404 8.427 81.1177 8.323C81.4037 8.21033 81.668 8.037 81.9107 7.803L82.9897 8.973C82.331 9.727 81.369 10.104 80.1037 10.104C79.315 10.104 78.6174 9.95233 78.0107 9.649C77.404 9.337 76.936 8.908 76.6067 8.362C76.2774 7.816 76.1127 7.19633 76.1127 6.503C76.1127 5.81833 76.273 5.203 76.5937 4.657C76.923 4.10233 77.3694 3.67333 77.9327 3.37C78.5047 3.058 79.1417 2.902 79.8437 2.902C80.5284 2.902 81.148 3.04933 81.7027 3.344C82.2574 3.63867 82.6907 4.06333 83.0027 4.618C83.3234 5.164 83.4837 5.801 83.4837 6.529ZM79.8567 4.436C79.3974 4.436 79.0117 4.566 78.6997 4.826C78.3877 5.086 78.197 5.44133 78.1277 5.892H81.5727C81.5034 5.45 81.3127 5.099 81.0007 4.839C80.6887 4.57033 80.3074 4.436 79.8567 4.436ZM90.6412 6.347C91.4645 6.62433 91.8762 7.179 91.8762 8.011C91.8762 8.64367 91.6379 9.13333 91.1612 9.48C90.6845 9.82667 89.9739 10 89.0292 10H85.2982V3.006H88.8732C89.7485 3.006 90.4332 3.16633 90.9272 3.487C91.4212 3.799 91.6682 4.241 91.6682 4.813C91.6682 5.15967 91.5772 5.46733 91.3952 5.736C91.2219 5.996 90.9705 6.19967 90.6412 6.347ZM87.1572 5.879H88.6912C89.4019 5.879 89.7572 5.62767 89.7572 5.125C89.7572 4.631 89.4019 4.384 88.6912 4.384H87.1572V5.879ZM88.8602 8.622C89.6055 8.622 89.9782 8.36633 89.9782 7.855C89.9782 7.58633 89.8915 7.39133 89.7182 7.27C89.5449 7.14 89.2719 7.075 88.8992 7.075H87.1572V8.622H88.8602ZM100.444 6.529C100.444 6.555 100.431 6.737 100.405 7.075H95.1141C95.2094 7.50833 95.4348 7.85067 95.7901 8.102C96.1454 8.35333 96.5874 8.479 97.1161 8.479C97.4801 8.479 97.8008 8.427 98.0781 8.323C98.3641 8.21033 98.6285 8.037 98.8711 7.803L99.9501 8.973C99.2915 9.727 98.3295 10.104 97.0641 10.104C96.2754 10.104 95.5778 9.95233 94.9711 9.649C94.3644 9.337 93.8964 8.908 93.5671 8.362C93.2378 7.816 93.0731 7.19633 93.0731 6.503C93.0731 5.81833 93.2334 5.203 93.5541 4.657C93.8834 4.10233 94.3298 3.67333 94.8931 3.37C95.4651 3.058 96.1021 2.902 96.8041 2.902C97.4888 2.902 98.1084 3.04933 98.6631 3.344C99.2178 3.63867 99.6511 4.06333 99.9631 4.618C100.284 5.164 100.444 5.801 100.444 6.529ZM96.8171 4.436C96.3578 4.436 95.9721 4.566 95.6601 4.826C95.3481 5.086 95.1574 5.44133 95.0881 5.892H98.5331C98.4638 5.45 98.2731 5.099 97.9611 4.839C97.6491 4.57033 97.2678 4.436 96.8171 4.436ZM106.38 2.902C107.03 2.902 107.619 3.05367 108.148 3.357C108.685 3.65167 109.105 4.072 109.409 4.618C109.712 5.15533 109.864 5.78367 109.864 6.503C109.864 7.22233 109.712 7.855 109.409 8.401C109.105 8.93833 108.685 9.35867 108.148 9.662C107.619 9.95667 107.03 10.104 106.38 10.104C105.487 10.104 104.785 9.82233 104.274 9.259V12.522H102.246V3.006H104.183V3.812C104.685 3.20533 105.418 2.902 106.38 2.902ZM106.029 8.44C106.549 8.44 106.973 8.26667 107.303 7.92C107.641 7.56467 107.81 7.09233 107.81 6.503C107.81 5.91367 107.641 5.44567 107.303 5.099C106.973 4.74367 106.549 4.566 106.029 4.566C105.509 4.566 105.08 4.74367 104.742 5.099C104.412 5.44567 104.248 5.91367 104.248 6.503C104.248 7.09233 104.412 7.56467 104.742 7.92C105.08 8.26667 105.509 8.44 106.029 8.44ZM111.545 3.006H113.56V5.736H116.602V3.006H118.63V10H116.602V7.387H113.56V10H111.545V3.006ZM127.838 3.006L124.679 10.429C124.359 11.235 123.96 11.8027 123.483 12.132C123.015 12.4613 122.448 12.626 121.78 12.626C121.416 12.626 121.057 12.5697 120.701 12.457C120.346 12.3443 120.056 12.1883 119.83 11.989L120.571 10.546C120.727 10.6847 120.905 10.793 121.104 10.871C121.312 10.949 121.516 10.988 121.715 10.988C121.993 10.988 122.218 10.9187 122.391 10.78C122.565 10.65 122.721 10.429 122.859 10.117L122.885 10.052L119.856 3.006H121.949L123.912 7.751L125.888 3.006H127.838ZM135.016 4.67H132.65V10H130.635V4.67H128.269V3.006H135.016V4.67ZM140.14 5.242C141.05 5.25067 141.748 5.45867 142.233 5.866C142.719 6.26467 142.961 6.83233 142.961 7.569C142.961 8.34033 142.688 8.94267 142.142 9.376C141.605 9.80067 140.847 10.013 139.867 10.013L136.357 10V3.006H138.372V5.242H140.14ZM139.685 8.57C140.075 8.57867 140.374 8.49633 140.582 8.323C140.79 8.14967 140.894 7.88967 140.894 7.543C140.894 7.205 140.79 6.958 140.582 6.802C140.383 6.646 140.084 6.56367 139.685 6.555L138.372 6.542V8.57H139.685Z" fill="white"/>
<path d="M193.681 32.0293L193.621 33.5282L193.672 33.5302L193.723 33.5287L193.681 32.0293ZM154.535 53.3203C154.711 54.1296 155.511 54.6423 156.32 54.4654L169.509 51.5829C170.318 51.4061 170.831 50.6066 170.654 49.7973C170.477 48.9879 169.678 48.4752 168.868 48.6521L157.145 51.2143L154.583 39.491C154.406 38.6817 153.607 38.169 152.797 38.3459C151.988 38.5228 151.475 39.3223 151.652 40.1316L154.535 53.3203ZM232 51.435C233.347 50.7755 233.347 50.7746 233.346 50.7737C233.346 50.7733 233.346 50.7723 233.345 50.7715C233.344 50.7699 233.344 50.7679 233.342 50.7657C233.34 50.7612 233.337 50.7555 233.334 50.7486C233.327 50.7348 233.318 50.7161 233.306 50.6928C233.282 50.6462 233.248 50.581 233.203 50.4984C233.115 50.3332 232.984 50.0984 232.81 49.8042C232.462 49.216 231.939 48.3893 231.222 47.4059C229.789 45.4403 227.58 42.841 224.451 40.2706C218.174 35.1125 208.248 30.1151 193.638 30.5299L193.723 33.5287C207.537 33.1365 216.77 37.8419 222.547 42.5884C225.446 44.9703 227.486 47.3738 228.797 49.1729C229.453 50.0718 229.924 50.8179 230.228 51.3319C230.38 51.5889 230.49 51.7876 230.561 51.9181C230.596 51.9833 230.621 52.0315 230.636 52.0613C230.644 52.0762 230.649 52.0866 230.652 52.0922C230.653 52.095 230.654 52.0966 230.654 52.097C230.654 52.0972 230.654 52.0971 230.654 52.0967C230.654 52.0965 230.653 52.096 230.653 52.0959C230.653 52.0953 230.653 52.0946 232 51.435ZM193.74 30.5305C181.425 30.0412 171.654 35.5102 165.022 41.0077C161.7 43.7608 159.14 46.5414 157.409 48.6354C156.542 49.6834 155.881 50.5622 155.433 51.1835C155.209 51.4943 155.038 51.7408 154.922 51.9122C154.864 51.9979 154.819 52.0649 154.789 52.1117C154.773 52.1351 154.761 52.1534 154.753 52.1666C154.748 52.1732 154.745 52.1784 154.742 52.1824C154.741 52.1844 154.74 52.186 154.739 52.1873C154.739 52.188 154.738 52.1887 154.738 52.189C154.738 52.1897 154.737 52.1903 156 53C157.263 53.8097 157.262 53.8101 157.262 53.8104C157.262 53.8104 157.262 53.8107 157.262 53.8107C157.262 53.8107 157.262 53.8103 157.263 53.8096C157.264 53.8083 157.265 53.8056 157.268 53.8017C157.273 53.7938 157.282 53.7807 157.293 53.7627C157.317 53.7266 157.354 53.6706 157.405 53.5961C157.506 53.447 157.66 53.2238 157.867 52.9373C158.28 52.3641 158.901 51.5386 159.721 50.5472C161.362 48.5625 163.791 45.9244 166.936 43.3174C173.237 38.0948 182.306 33.0785 193.621 33.5282L193.74 30.5305Z" fill="white"/>
</svg>
