<svg width="314" height="160" viewBox="0 0 314 160" fill="none" xmlns="http://www.w3.org/2000/svg">
<rect x="222" y="43" width="56" height="56" rx="12" stroke="white" stroke-width="4"/>
<path d="M113.236 99L140 45.4721L166.764 99H113.236Z" stroke="#3B4045" stroke-width="4"/>
<path fill-rule="evenodd" clip-rule="evenodd" d="M135.865 85.9934L132.561 82.4687C131.975 81.8438 131.025 81.8438 130.439 82.4687C129.854 83.0935 129.854 84.1066 130.439 84.7314L134.939 89.5313C135.575 90.2096 136.624 90.1428 137.179 89.3885L147.679 76.5886C148.191 75.8937 148.078 74.8879 147.427 74.342C146.775 73.796 145.832 73.9167 145.32 74.6116L135.865 85.9934Z" fill="#3B4045"/>
<circle cx="30" cy="71" r="28" stroke="#3B4045" stroke-width="4"/>
<path fill-rule="evenodd" clip-rule="evenodd" d="M26.8651 74.9934L23.5607 71.4687C22.9749 70.8438 22.0251 70.8438 21.4393 71.4687C20.8536 72.0935 20.8536 73.1066 21.4393 73.7314L25.9393 78.5313C26.5752 79.2096 27.6239 79.1428 28.1794 78.3885L38.6794 65.5886C39.1912 64.8937 39.0781 63.8879 38.4267 63.342C37.7753 62.796 36.8323 62.9167 36.3205 63.6116L26.8651 74.9934Z" fill="#3B4045"/>
<path d="M307.688 123.669L306.225 123.999L306.236 124.049L306.251 124.098L307.688 123.669ZM288.312 103.052C287.577 103.432 287.288 104.337 287.669 105.073L293.866 117.066C294.247 117.802 295.152 118.09 295.887 117.71C296.623 117.33 296.912 116.425 296.531 115.689L291.022 105.028L301.683 99.5191C302.419 99.1387 302.707 98.2338 302.327 97.4978C301.947 96.7619 301.042 96.4736 300.306 96.8539L288.312 103.052ZM302.191 149.845C303.177 150.976 303.178 150.975 303.178 150.975C303.179 150.975 303.18 150.974 303.18 150.973C303.181 150.972 303.183 150.971 303.184 150.97C303.187 150.967 303.191 150.964 303.195 150.96C303.203 150.953 303.214 150.943 303.228 150.931C303.255 150.907 303.291 150.873 303.336 150.831C303.427 150.745 303.553 150.624 303.707 150.466C304.016 150.15 304.441 149.688 304.93 149.084C305.906 147.875 307.14 146.086 308.205 143.74C310.347 139.021 311.772 132.105 309.125 123.24L306.251 124.098C308.67 132.2 307.347 138.372 305.474 142.5C304.531 144.576 303.442 146.151 302.596 147.199C302.173 147.723 301.812 148.113 301.563 148.367C301.439 148.494 301.343 148.587 301.281 148.645C301.25 148.674 301.228 148.695 301.215 148.706C301.209 148.712 301.205 148.716 301.203 148.717C301.202 148.718 301.202 148.718 301.202 148.718C301.203 148.717 301.203 148.717 301.203 148.717C301.204 148.716 301.204 148.716 301.204 148.716C301.205 148.715 301.206 148.715 302.191 149.845ZM309.151 123.339C307.419 115.669 302.438 110.567 297.996 107.416C295.769 105.837 293.652 104.729 292.089 104.013C291.306 103.655 290.659 103.394 290.203 103.221C289.975 103.135 289.794 103.07 289.667 103.026C289.604 103.004 289.554 102.987 289.519 102.975C289.501 102.969 289.487 102.965 289.477 102.961C289.471 102.96 289.467 102.958 289.464 102.957C289.462 102.957 289.461 102.956 289.459 102.956C289.459 102.956 289.458 102.955 289.458 102.955C289.457 102.955 289.456 102.955 289.001 104.384C288.546 105.813 288.545 105.813 288.545 105.813C288.545 105.813 288.544 105.813 288.544 105.813C288.544 105.813 288.544 105.813 288.544 105.813C288.545 105.813 288.546 105.813 288.548 105.814C288.553 105.816 288.561 105.818 288.572 105.822C288.596 105.83 288.633 105.842 288.683 105.86C288.785 105.895 288.939 105.95 289.139 106.026C289.54 106.178 290.125 106.414 290.841 106.741C292.275 107.398 294.221 108.417 296.26 109.863C300.351 112.764 304.713 117.305 306.225 123.999L309.151 123.339Z" fill="white"/>
<path d="M6.305 5.255C6.83367 5.437 7.24533 5.723 7.54 6.113C7.84333 6.49433 7.995 6.94067 7.995 7.452C7.995 8.00667 7.813 8.48767 7.449 8.895C7.085 9.30233 6.591 9.61433 5.967 9.831C5.35167 10.0477 4.67567 10.156 3.939 10.156C3.315 10.156 2.691 10.078 2.067 9.922C1.45167 9.766 0.866667 9.52767 0.312 9.207L0.962 7.699C1.36067 7.94167 1.79833 8.128 2.275 8.258C2.76033 8.37933 3.23267 8.44 3.692 8.44C4.316 8.44 4.83167 8.32733 5.239 8.102C5.655 7.87667 5.863 7.56033 5.863 7.153C5.863 6.815 5.72 6.55933 5.434 6.386C5.15667 6.21267 4.77533 6.126 4.29 6.126H2.067V4.54H4.134C4.55867 4.54 4.888 4.45333 5.122 4.28C5.36467 4.10667 5.486 3.86833 5.486 3.565C5.486 3.20967 5.31267 2.93233 4.966 2.733C4.628 2.53367 4.19033 2.434 3.653 2.434C3.25433 2.434 2.84267 2.49033 2.418 2.603C1.99333 2.707 1.59033 2.86733 1.209 3.084L0.572 1.446C1.534 0.951999 2.574 0.705 3.692 0.705C4.40267 0.705 5.057 0.809 5.655 1.017C6.253 1.225 6.72967 1.52833 7.085 1.927C7.44033 2.32567 7.618 2.78933 7.618 3.318C7.618 3.75133 7.501 4.137 7.267 4.475C7.033 4.813 6.71233 5.073 6.305 5.255ZM12.4833 2.902C13.5666 2.902 14.3986 3.162 14.9793 3.682C15.5599 4.19333 15.8503 4.969 15.8503 6.009V10H13.9523V9.129C13.5709 9.779 12.8603 10.104 11.8203 10.104C11.2829 10.104 10.8149 10.013 10.4163 9.831C10.0263 9.649 9.72725 9.39767 9.51925 9.077C9.31125 8.75633 9.20725 8.39233 9.20725 7.985C9.20725 7.335 9.44992 6.82367 9.93525 6.451C10.4293 6.07833 11.1876 5.892 12.2103 5.892H13.8223C13.8223 5.45 13.6879 5.112 13.4193 4.878C13.1506 4.63533 12.7476 4.514 12.2103 4.514C11.8376 4.514 11.4693 4.57467 11.1053 4.696C10.7499 4.80867 10.4466 4.96467 10.1953 5.164L9.46725 3.747C9.84858 3.47833 10.3036 3.27033 10.8323 3.123C11.3696 2.97567 11.9199 2.902 12.4833 2.902ZM12.3273 8.739C12.6739 8.739 12.9816 8.661 13.2503 8.505C13.5189 8.34033 13.7096 8.102 13.8223 7.79V7.075H12.4313C11.5993 7.075 11.1833 7.348 11.1833 7.894C11.1833 8.154 11.2829 8.362 11.4823 8.518C11.6903 8.66533 11.9719 8.739 12.3273 8.739ZM24.58 3.006V10H22.552V4.67H20.342L20.277 5.905C20.2423 6.82367 20.1556 7.58633 20.017 8.193C19.8783 8.79967 19.653 9.27633 19.341 9.623C19.029 9.96967 18.5956 10.143 18.041 10.143C17.7463 10.143 17.3953 10.091 16.988 9.987L17.092 8.323C17.2306 8.34033 17.3303 8.349 17.391 8.349C17.6943 8.349 17.9196 8.24067 18.067 8.024C18.223 7.79867 18.327 7.517 18.379 7.179C18.431 6.83233 18.47 6.37733 18.496 5.814L18.6 3.006H24.58ZM30.5732 5.242C31.4832 5.25067 32.1808 5.45867 32.6662 5.866C33.1515 6.26467 33.3942 6.83233 33.3942 7.569C33.3942 8.34033 33.1212 8.94267 32.5752 9.376C32.0378 9.80067 31.2795 10.013 30.3002 10.013L26.7902 10V3.006H28.8052V5.242H30.5732ZM30.1182 8.57C30.5082 8.57867 30.8072 8.49633 31.0152 8.323C31.2232 8.14967 31.3272 7.88967 31.3272 7.543C31.3272 7.205 31.2232 6.958 31.0152 6.802C30.8158 6.646 30.5168 6.56367 30.1182 6.555L28.8052 6.542V8.57H30.1182ZM41.7203 6.529C41.7203 6.555 41.7073 6.737 41.6813 7.075H36.3903C36.4856 7.50833 36.7109 7.85067 37.0663 8.102C37.4216 8.35333 37.8636 8.479 38.3923 8.479C38.7563 8.479 39.0769 8.427 39.3543 8.323C39.6403 8.21033 39.9046 8.037 40.1473 7.803L41.2263 8.973C40.5676 9.727 39.6056 10.104 38.3403 10.104C37.5516 10.104 36.8539 9.95233 36.2473 9.649C35.6406 9.337 35.1726 8.908 34.8433 8.362C34.5139 7.816 34.3493 7.19633 34.3493 6.503C34.3493 5.81833 34.5096 5.203 34.8303 4.657C35.1596 4.10233 35.6059 3.67333 36.1693 3.37C36.7413 3.058 37.3783 2.902 38.0803 2.902C38.7649 2.902 39.3846 3.04933 39.9393 3.344C40.4939 3.63867 40.9273 4.06333 41.2393 4.618C41.5599 5.164 41.7203 5.801 41.7203 6.529ZM38.0933 4.436C37.6339 4.436 37.2483 4.566 36.9363 4.826C36.6243 5.086 36.4336 5.44133 36.3643 5.892H39.8093C39.7399 5.45 39.5493 5.099 39.2373 4.839C38.9253 4.57033 38.5439 4.436 38.0933 4.436ZM50.3598 10V5.814L48.2668 9.324H47.4088L45.3678 5.801V10H43.5348V3.006H45.6538L47.8898 7.049L50.2688 3.006H52.1668L52.1928 10H50.3598ZM61.418 7.348H60.365V10H58.337V3.006H60.365V5.723H61.457L63.355 3.006H65.513L63.069 6.36L65.682 10H63.29L61.418 7.348ZM71.0588 2.902C71.7088 2.902 72.2981 3.05367 72.8268 3.357C73.3641 3.65167 73.7845 4.072 74.0878 4.618C74.3911 5.15533 74.5428 5.78367 74.5428 6.503C74.5428 7.22233 74.3911 7.855 74.0878 8.401C73.7845 8.93833 73.3641 9.35867 72.8268 9.662C72.2981 9.95667 71.7088 10.104 71.0588 10.104C70.1661 10.104 69.4641 9.82233 68.9528 9.259V12.522H66.9248V3.006H68.8618V3.812C69.3645 3.20533 70.0968 2.902 71.0588 2.902ZM70.7078 8.44C71.2278 8.44 71.6525 8.26667 71.9818 7.92C72.3198 7.56467 72.4888 7.09233 72.4888 6.503C72.4888 5.91367 72.3198 5.44567 71.9818 5.099C71.6525 4.74367 71.2278 4.566 70.7078 4.566C70.1878 4.566 69.7588 4.74367 69.4208 5.099C69.0915 5.44567 68.9268 5.91367 68.9268 6.503C68.9268 7.09233 69.0915 7.56467 69.4208 7.92C69.7588 8.26667 70.1878 8.44 70.7078 8.44ZM83.0407 3.006L79.8817 10.429C79.5611 11.235 79.1624 11.8027 78.6857 12.132C78.2177 12.4613 77.6501 12.626 76.9827 12.626C76.6187 12.626 76.2591 12.5697 75.9037 12.457C75.5484 12.3443 75.2581 12.1883 75.0327 11.989L75.7737 10.546C75.9297 10.6847 76.1074 10.793 76.3067 10.871C76.5147 10.949 76.7184 10.988 76.9177 10.988C77.1951 10.988 77.4204 10.9187 77.5937 10.78C77.7671 10.65 77.9231 10.429 78.0617 10.117L78.0877 10.052L75.0587 3.006H77.1517L79.1147 7.751L81.0907 3.006H83.0407ZM89.8821 4.67H86.2941V10H84.2791V3.006H89.8821V4.67ZM93.0628 6.841C93.0628 6.39033 93.1625 6.01767 93.3618 5.723C93.5698 5.42833 93.8688 5.10333 94.2588 4.748C94.5448 4.488 94.7528 4.27133 94.8828 4.098C95.0215 3.916 95.0908 3.71233 95.0908 3.487C95.0908 3.16633 94.9608 2.915 94.7008 2.733C94.4495 2.54233 94.1115 2.447 93.6868 2.447C93.2795 2.447 92.9155 2.53367 92.5948 2.707C92.2828 2.87167 92.0185 3.10567 91.8018 3.409L90.2288 2.486C90.5928 1.93133 91.0825 1.50233 91.6978 1.199C92.3218 0.895666 93.0585 0.744 93.9078 0.744C94.9045 0.744 95.7018 0.956333 96.2998 1.381C96.9065 1.80567 97.2098 2.395 97.2098 3.149C97.2098 3.50433 97.1492 3.81633 97.0278 4.085C96.9152 4.35367 96.7722 4.58333 96.5988 4.774C96.4342 4.956 96.2175 5.16833 95.9488 5.411C95.6282 5.697 95.3942 5.93967 95.2468 6.139C95.0995 6.32967 95.0258 6.56367 95.0258 6.841H93.0628ZM94.0508 10.104C93.6955 10.104 93.3965 9.99133 93.1538 9.766C92.9198 9.532 92.8028 9.25033 92.8028 8.921C92.8028 8.59167 92.9198 8.31867 93.1538 8.102C93.3878 7.87667 93.6868 7.764 94.0508 7.764C94.4148 7.764 94.7138 7.87667 94.9478 8.102C95.1818 8.31867 95.2988 8.59167 95.2988 8.921C95.2988 9.25033 95.1775 9.532 94.9348 9.766C94.7008 9.99133 94.4062 10.104 94.0508 10.104Z" fill="white"/>
<path d="M192.473 157.156C191.528 157.156 190.675 156.952 189.912 156.545C189.158 156.138 188.564 155.579 188.131 154.868C187.706 154.149 187.494 153.343 187.494 152.45C187.494 151.557 187.706 150.756 188.131 150.045C188.564 149.326 189.158 148.762 189.912 148.355C190.675 147.948 191.528 147.744 192.473 147.744C193.418 147.744 194.267 147.948 195.021 148.355C195.775 148.762 196.369 149.326 196.802 150.045C197.235 150.756 197.452 151.557 197.452 152.45C197.452 153.343 197.235 154.149 196.802 154.868C196.369 155.579 195.775 156.138 195.021 156.545C194.267 156.952 193.418 157.156 192.473 157.156ZM192.473 155.362C193.01 155.362 193.496 155.241 193.929 154.998C194.362 154.747 194.7 154.4 194.943 153.958C195.194 153.516 195.32 153.013 195.32 152.45C195.32 151.887 195.194 151.384 194.943 150.942C194.7 150.5 194.362 150.158 193.929 149.915C193.496 149.664 193.01 149.538 192.473 149.538C191.936 149.538 191.45 149.664 191.017 149.915C190.584 150.158 190.241 150.5 189.99 150.942C189.747 151.384 189.626 151.887 189.626 152.45C189.626 153.013 189.747 153.516 189.99 153.958C190.241 154.4 190.584 154.747 191.017 154.998C191.45 155.241 191.936 155.362 192.473 155.362ZM202.506 157.104C201.761 157.104 201.089 156.952 200.491 156.649C199.902 156.337 199.438 155.908 199.1 155.362C198.771 154.816 198.606 154.196 198.606 153.503C198.606 152.81 198.771 152.19 199.1 151.644C199.438 151.098 199.902 150.673 200.491 150.37C201.089 150.058 201.761 149.902 202.506 149.902C203.243 149.902 203.884 150.058 204.43 150.37C204.985 150.673 205.388 151.111 205.639 151.683L204.066 152.528C203.702 151.887 203.178 151.566 202.493 151.566C201.965 151.566 201.527 151.739 201.18 152.086C200.834 152.433 200.66 152.905 200.66 153.503C200.66 154.101 200.834 154.573 201.18 154.92C201.527 155.267 201.965 155.44 202.493 155.44C203.187 155.44 203.711 155.119 204.066 154.478L205.639 155.336C205.388 155.891 204.985 156.324 204.43 156.636C203.884 156.948 203.243 157.104 202.506 157.104ZM212.982 151.67H210.616V157H208.601V151.67H206.235V150.006H212.982V151.67ZM218.444 149.902C219.094 149.902 219.684 150.054 220.212 150.357C220.75 150.652 221.17 151.072 221.473 151.618C221.777 152.155 221.928 152.784 221.928 153.503C221.928 154.222 221.777 154.855 221.473 155.401C221.17 155.938 220.75 156.359 220.212 156.662C219.684 156.957 219.094 157.104 218.444 157.104C217.552 157.104 216.85 156.822 216.338 156.259V159.522H214.31V150.006H216.247V150.812C216.75 150.205 217.482 149.902 218.444 149.902ZM218.093 155.44C218.613 155.44 219.038 155.267 219.367 154.92C219.705 154.565 219.874 154.092 219.874 153.503C219.874 152.914 219.705 152.446 219.367 152.099C219.038 151.744 218.613 151.566 218.093 151.566C217.573 151.566 217.144 151.744 216.806 152.099C216.477 152.446 216.312 152.914 216.312 153.503C216.312 154.092 216.477 154.565 216.806 154.92C217.144 155.267 217.573 155.44 218.093 155.44ZM227.289 152.242C228.199 152.251 228.888 152.454 229.356 152.853C229.824 153.252 230.058 153.824 230.058 154.569C230.058 155.349 229.793 155.951 229.265 156.376C228.736 156.801 227.986 157.013 227.016 157.013L223.61 157V150.006H225.625V152.242H227.289ZM230.812 150.006H232.827V157H230.812V150.006ZM226.834 155.57C227.224 155.579 227.523 155.496 227.731 155.323C227.939 155.15 228.043 154.89 228.043 154.543C228.043 154.205 227.939 153.958 227.731 153.802C227.531 153.646 227.232 153.564 226.834 153.555L225.625 153.542V155.57H226.834ZM235.042 150.006H237.057V154.166L240.463 150.006H242.322V157H240.307V152.84L236.914 157H235.042V150.006ZM238.552 149.252C237.026 149.252 236.259 148.58 236.251 147.237H237.577C237.585 147.54 237.668 147.779 237.824 147.952C237.988 148.117 238.227 148.199 238.539 148.199C238.851 148.199 239.089 148.117 239.254 147.952C239.427 147.779 239.514 147.54 239.514 147.237H240.866C240.857 148.58 240.086 149.252 238.552 149.252ZM255.48 150.006L252.321 157.429C252 158.235 251.601 158.803 251.125 159.132C250.657 159.461 250.089 159.626 249.422 159.626C249.058 159.626 248.698 159.57 248.343 159.457C247.987 159.344 247.697 159.188 247.472 158.989L248.213 157.546C248.369 157.685 248.546 157.793 248.746 157.871C248.954 157.949 249.157 157.988 249.357 157.988C249.634 157.988 249.859 157.919 250.033 157.78C250.206 157.65 250.362 157.429 250.501 157.117L250.527 157.052L247.498 150.006H249.591L251.554 154.751L253.53 150.006H255.48ZM262.321 151.67H258.733V157H256.718V150.006H262.321V151.67ZM266.64 157.104C265.903 157.104 265.24 156.952 264.651 156.649C264.07 156.337 263.615 155.908 263.286 155.362C262.956 154.816 262.792 154.196 262.792 153.503C262.792 152.81 262.956 152.19 263.286 151.644C263.615 151.098 264.07 150.673 264.651 150.37C265.24 150.058 265.903 149.902 266.64 149.902C267.376 149.902 268.035 150.058 268.616 150.37C269.196 150.673 269.651 151.098 269.981 151.644C270.31 152.19 270.475 152.81 270.475 153.503C270.475 154.196 270.31 154.816 269.981 155.362C269.651 155.908 269.196 156.337 268.616 156.649C268.035 156.952 267.376 157.104 266.64 157.104ZM266.64 155.44C267.16 155.44 267.584 155.267 267.914 154.92C268.252 154.565 268.421 154.092 268.421 153.503C268.421 152.914 268.252 152.446 267.914 152.099C267.584 151.744 267.16 151.566 266.64 151.566C266.12 151.566 265.691 151.744 265.353 152.099C265.015 152.446 264.846 152.914 264.846 153.503C264.846 154.092 265.015 154.565 265.353 154.92C265.691 155.267 266.12 155.44 266.64 155.44ZM278.736 150.006V157H276.708V151.67H274.498L274.433 152.905C274.398 153.824 274.312 154.586 274.173 155.193C274.034 155.8 273.809 156.276 273.497 156.623C273.185 156.97 272.752 157.143 272.197 157.143C271.902 157.143 271.551 157.091 271.144 156.987L271.248 155.323C271.387 155.34 271.486 155.349 271.547 155.349C271.85 155.349 272.076 155.241 272.223 155.024C272.379 154.799 272.483 154.517 272.535 154.179C272.587 153.832 272.626 153.377 272.652 152.814L272.756 150.006H278.736ZM283.135 153.841C283.135 153.39 283.235 153.018 283.434 152.723C283.642 152.428 283.941 152.103 284.331 151.748C284.617 151.488 284.825 151.271 284.955 151.098C285.094 150.916 285.163 150.712 285.163 150.487C285.163 150.166 285.033 149.915 284.773 149.733C284.522 149.542 284.184 149.447 283.759 149.447C283.352 149.447 282.988 149.534 282.667 149.707C282.355 149.872 282.091 150.106 281.874 150.409L280.301 149.486C280.665 148.931 281.155 148.502 281.77 148.199C282.394 147.896 283.131 147.744 283.98 147.744C284.977 147.744 285.774 147.956 286.372 148.381C286.979 148.806 287.282 149.395 287.282 150.149C287.282 150.504 287.221 150.816 287.1 151.085C286.987 151.354 286.844 151.583 286.671 151.774C286.506 151.956 286.29 152.168 286.021 152.411C285.7 152.697 285.466 152.94 285.319 153.139C285.172 153.33 285.098 153.564 285.098 153.841H283.135ZM284.123 157.104C283.768 157.104 283.469 156.991 283.226 156.766C282.992 156.532 282.875 156.25 282.875 155.921C282.875 155.592 282.992 155.319 283.226 155.102C283.46 154.877 283.759 154.764 284.123 154.764C284.487 154.764 284.786 154.877 285.02 155.102C285.254 155.319 285.371 155.592 285.371 155.921C285.371 156.25 285.25 156.532 285.007 156.766C284.773 156.991 284.478 157.104 284.123 157.104Z" fill="white"/>
</svg>
