<svg width="280" height="101" viewBox="0 0 280 101" fill="none" xmlns="http://www.w3.org/2000/svg">
<path d="M222 55C222 48.3726 227.373 43 234 43H266C272.627 43 278 48.3726 278 55V99H234C227.373 99 222 93.6274 222 87V55Z" stroke="white" stroke-width="4"/>
<path d="M113.236 99L140 45.4721L166.764 99H113.236Z" stroke="#3B4045" stroke-width="4"/>
<path fill-rule="evenodd" clip-rule="evenodd" d="M135.865 85.9934L132.561 82.4687C131.975 81.8438 131.025 81.8438 130.439 82.4687C129.854 83.0935 129.854 84.1066 130.439 84.7314L134.939 89.5313C135.575 90.2096 136.624 90.1428 137.179 89.3885L147.679 76.5886C148.191 75.8937 148.078 74.8879 147.427 74.342C146.775 73.796 145.832 73.9167 145.32 74.6116L135.865 85.9934Z" fill="#3B4045"/>
<circle cx="30" cy="71" r="28" stroke="#3B4045" stroke-width="4"/>
<path fill-rule="evenodd" clip-rule="evenodd" d="M26.8651 74.9934L23.5607 71.4687C22.9749 70.8438 22.0251 70.8438 21.4393 71.4687C20.8536 72.0935 20.8536 73.1066 21.4393 73.7314L25.9393 78.5313C26.5752 79.2096 27.6239 79.1428 28.1794 78.3885L38.6794 65.5886C39.1912 64.8937 39.0781 63.8879 38.4267 63.342C37.7753 62.796 36.8323 62.9167 36.3205 63.6116L26.8651 74.9934Z" fill="#3B4045"/>
<path d="M6.305 5.255C6.83367 5.437 7.24533 5.723 7.54 6.113C7.84333 6.49433 7.995 6.94067 7.995 7.452C7.995 8.00667 7.813 8.48767 7.449 8.895C7.085 9.30233 6.591 9.61433 5.967 9.831C5.35167 10.0477 4.67567 10.156 3.939 10.156C3.315 10.156 2.691 10.078 2.067 9.922C1.45167 9.766 0.866667 9.52767 0.312 9.207L0.962 7.699C1.36067 7.94167 1.79833 8.128 2.275 8.258C2.76033 8.37933 3.23267 8.44 3.692 8.44C4.316 8.44 4.83167 8.32733 5.239 8.102C5.655 7.87667 5.863 7.56033 5.863 7.153C5.863 6.815 5.72 6.55933 5.434 6.386C5.15667 6.21267 4.77533 6.126 4.29 6.126H2.067V4.54H4.134C4.55867 4.54 4.888 4.45333 5.122 4.28C5.36467 4.10667 5.486 3.86833 5.486 3.565C5.486 3.20967 5.31267 2.93233 4.966 2.733C4.628 2.53367 4.19033 2.434 3.653 2.434C3.25433 2.434 2.84267 2.49033 2.418 2.603C1.99333 2.707 1.59033 2.86733 1.209 3.084L0.572 1.446C1.534 0.951999 2.574 0.705 3.692 0.705C4.40267 0.705 5.057 0.809 5.655 1.017C6.253 1.225 6.72967 1.52833 7.085 1.927C7.44033 2.32567 7.618 2.78933 7.618 3.318C7.618 3.75133 7.501 4.137 7.267 4.475C7.033 4.813 6.71233 5.073 6.305 5.255ZM12.4833 2.902C13.5666 2.902 14.3986 3.162 14.9793 3.682C15.5599 4.19333 15.8503 4.969 15.8503 6.009V10H13.9523V9.129C13.5709 9.779 12.8603 10.104 11.8203 10.104C11.2829 10.104 10.8149 10.013 10.4163 9.831C10.0263 9.649 9.72725 9.39767 9.51925 9.077C9.31125 8.75633 9.20725 8.39233 9.20725 7.985C9.20725 7.335 9.44992 6.82367 9.93525 6.451C10.4293 6.07833 11.1876 5.892 12.2103 5.892H13.8223C13.8223 5.45 13.6879 5.112 13.4193 4.878C13.1506 4.63533 12.7476 4.514 12.2103 4.514C11.8376 4.514 11.4693 4.57467 11.1053 4.696C10.7499 4.80867 10.4466 4.96467 10.1953 5.164L9.46725 3.747C9.84858 3.47833 10.3036 3.27033 10.8323 3.123C11.3696 2.97567 11.9199 2.902 12.4833 2.902ZM12.3273 8.739C12.6739 8.739 12.9816 8.661 13.2503 8.505C13.5189 8.34033 13.7096 8.102 13.8223 7.79V7.075H12.4313C11.5993 7.075 11.1833 7.348 11.1833 7.894C11.1833 8.154 11.2829 8.362 11.4823 8.518C11.6903 8.66533 11.9719 8.739 12.3273 8.739ZM24.58 3.006V10H22.552V4.67H20.342L20.277 5.905C20.2423 6.82367 20.1556 7.58633 20.017 8.193C19.8783 8.79967 19.653 9.27633 19.341 9.623C19.029 9.96967 18.5956 10.143 18.041 10.143C17.7463 10.143 17.3953 10.091 16.988 9.987L17.092 8.323C17.2306 8.34033 17.3303 8.349 17.391 8.349C17.6943 8.349 17.9196 8.24067 18.067 8.024C18.223 7.79867 18.327 7.517 18.379 7.179C18.431 6.83233 18.47 6.37733 18.496 5.814L18.6 3.006H24.58ZM30.5732 5.242C31.4832 5.25067 32.1808 5.45867 32.6662 5.866C33.1515 6.26467 33.3942 6.83233 33.3942 7.569C33.3942 8.34033 33.1212 8.94267 32.5752 9.376C32.0378 9.80067 31.2795 10.013 30.3002 10.013L26.7902 10V3.006H28.8052V5.242H30.5732ZM30.1182 8.57C30.5082 8.57867 30.8072 8.49633 31.0152 8.323C31.2232 8.14967 31.3272 7.88967 31.3272 7.543C31.3272 7.205 31.2232 6.958 31.0152 6.802C30.8158 6.646 30.5168 6.56367 30.1182 6.555L28.8052 6.542V8.57H30.1182ZM41.7203 6.529C41.7203 6.555 41.7073 6.737 41.6813 7.075H36.3903C36.4856 7.50833 36.7109 7.85067 37.0663 8.102C37.4216 8.35333 37.8636 8.479 38.3923 8.479C38.7563 8.479 39.0769 8.427 39.3543 8.323C39.6403 8.21033 39.9046 8.037 40.1473 7.803L41.2263 8.973C40.5676 9.727 39.6056 10.104 38.3403 10.104C37.5516 10.104 36.8539 9.95233 36.2473 9.649C35.6406 9.337 35.1726 8.908 34.8433 8.362C34.5139 7.816 34.3493 7.19633 34.3493 6.503C34.3493 5.81833 34.5096 5.203 34.8303 4.657C35.1596 4.10233 35.6059 3.67333 36.1693 3.37C36.7413 3.058 37.3783 2.902 38.0803 2.902C38.7649 2.902 39.3846 3.04933 39.9393 3.344C40.4939 3.63867 40.9273 4.06333 41.2393 4.618C41.5599 5.164 41.7203 5.801 41.7203 6.529ZM38.0933 4.436C37.6339 4.436 37.2483 4.566 36.9363 4.826C36.6243 5.086 36.4336 5.44133 36.3643 5.892H39.8093C39.7399 5.45 39.5493 5.099 39.2373 4.839C38.9253 4.57033 38.5439 4.436 38.0933 4.436ZM50.3598 10V5.814L48.2668 9.324H47.4088L45.3678 5.801V10H43.5348V3.006H45.6538L47.8898 7.049L50.2688 3.006H52.1668L52.1928 10H50.3598ZM61.418 7.348H60.365V10H58.337V3.006H60.365V5.723H61.457L63.355 3.006H65.513L63.069 6.36L65.682 10H63.29L61.418 7.348ZM71.0588 2.902C71.7088 2.902 72.2981 3.05367 72.8268 3.357C73.3641 3.65167 73.7845 4.072 74.0878 4.618C74.3911 5.15533 74.5428 5.78367 74.5428 6.503C74.5428 7.22233 74.3911 7.855 74.0878 8.401C73.7845 8.93833 73.3641 9.35867 72.8268 9.662C72.2981 9.95667 71.7088 10.104 71.0588 10.104C70.1661 10.104 69.4641 9.82233 68.9528 9.259V12.522H66.9248V3.006H68.8618V3.812C69.3645 3.20533 70.0968 2.902 71.0588 2.902ZM70.7078 8.44C71.2278 8.44 71.6525 8.26667 71.9818 7.92C72.3198 7.56467 72.4888 7.09233 72.4888 6.503C72.4888 5.91367 72.3198 5.44567 71.9818 5.099C71.6525 4.74367 71.2278 4.566 70.7078 4.566C70.1878 4.566 69.7588 4.74367 69.4208 5.099C69.0915 5.44567 68.9268 5.91367 68.9268 6.503C68.9268 7.09233 69.0915 7.56467 69.4208 7.92C69.7588 8.26667 70.1878 8.44 70.7078 8.44ZM83.0407 3.006L79.8817 10.429C79.5611 11.235 79.1624 11.8027 78.6857 12.132C78.2177 12.4613 77.6501 12.626 76.9827 12.626C76.6187 12.626 76.2591 12.5697 75.9037 12.457C75.5484 12.3443 75.2581 12.1883 75.0327 11.989L75.7737 10.546C75.9297 10.6847 76.1074 10.793 76.3067 10.871C76.5147 10.949 76.7184 10.988 76.9177 10.988C77.1951 10.988 77.4204 10.9187 77.5937 10.78C77.7671 10.65 77.9231 10.429 78.0617 10.117L78.0877 10.052L75.0587 3.006H77.1517L79.1147 7.751L81.0907 3.006H83.0407ZM89.8821 4.67H86.2941V10H84.2791V3.006H89.8821V4.67ZM93.0628 6.841C93.0628 6.39033 93.1625 6.01767 93.3618 5.723C93.5698 5.42833 93.8688 5.10333 94.2588 4.748C94.5448 4.488 94.7528 4.27133 94.8828 4.098C95.0215 3.916 95.0908 3.71233 95.0908 3.487C95.0908 3.16633 94.9608 2.915 94.7008 2.733C94.4495 2.54233 94.1115 2.447 93.6868 2.447C93.2795 2.447 92.9155 2.53367 92.5948 2.707C92.2828 2.87167 92.0185 3.10567 91.8018 3.409L90.2288 2.486C90.5928 1.93133 91.0825 1.50233 91.6978 1.199C92.3218 0.895666 93.0585 0.744 93.9078 0.744C94.9045 0.744 95.7018 0.956333 96.2998 1.381C96.9065 1.80567 97.2098 2.395 97.2098 3.149C97.2098 3.50433 97.1492 3.81633 97.0278 4.085C96.9152 4.35367 96.7722 4.58333 96.5988 4.774C96.4342 4.956 96.2175 5.16833 95.9488 5.411C95.6282 5.697 95.3942 5.93967 95.2468 6.139C95.0995 6.32967 95.0258 6.56367 95.0258 6.841H93.0628ZM94.0508 10.104C93.6955 10.104 93.3965 9.99133 93.1538 9.766C92.9198 9.532 92.8028 9.25033 92.8028 8.921C92.8028 8.59167 92.9198 8.31867 93.1538 8.102C93.3878 7.87667 93.6868 7.764 94.0508 7.764C94.4148 7.764 94.7138 7.87667 94.9478 8.102C95.1818 8.31867 95.2988 8.59167 95.2988 8.921C95.2988 9.25033 95.1775 9.532 94.9348 9.766C94.7008 9.99133 94.4062 10.104 94.0508 10.104Z" fill="#3B4045"/>
</svg>
