<svg width="317" height="133" viewBox="0 0 317 133" fill="none" xmlns="http://www.w3.org/2000/svg">
<rect x="222" y="2" width="56" height="56" stroke="white" stroke-width="4"/>
<path d="M113.236 58L140 4.47214L166.764 58H113.236Z" stroke="#3B4045" stroke-width="4"/>
<path fill-rule="evenodd" clip-rule="evenodd" d="M135.865 44.9934L132.561 41.4687C131.975 40.8438 131.025 40.8438 130.439 41.4687C129.854 42.0935 129.854 43.1066 130.439 43.7314L134.939 48.5313C135.575 49.2096 136.624 49.1428 137.179 48.3885L147.679 35.5886C148.191 34.8937 148.078 33.8879 147.427 33.342C146.775 32.796 145.832 32.9167 145.32 33.6116L135.865 44.9934Z" fill="#3B4045"/>
<circle cx="30" cy="30" r="28" stroke="#3B4045" stroke-width="4"/>
<path fill-rule="evenodd" clip-rule="evenodd" d="M26.8651 33.9934L23.5607 30.4687C22.9749 29.8438 22.0251 29.8438 21.4393 30.4687C20.8536 31.0935 20.8536 32.1066 21.4393 32.7314L25.9393 37.5313C26.5752 38.2096 27.6239 38.1428 28.1794 37.3885L38.6794 24.5886C39.1912 23.8937 39.0781 22.8879 38.4267 22.342C37.7753 21.796 36.8323 21.9167 36.3205 22.6116L26.8651 33.9934Z" fill="#3B4045"/>
<path d="M310.688 84.6691L309.225 84.9994L309.236 85.0493L309.251 85.0983L310.688 84.6691ZM291.312 64.0516C290.577 64.4319 290.288 65.3369 290.669 66.0728L296.866 78.0661C297.247 78.8021 298.152 79.0904 298.887 78.71C299.623 78.3297 299.912 77.4248 299.531 76.6888L294.022 66.0282L304.683 60.5191C305.419 60.1387 305.707 59.2338 305.327 58.4978C304.947 57.7619 304.042 57.4736 303.306 57.8539L291.312 64.0516ZM305.191 110.845C306.177 111.976 306.178 111.975 306.178 111.975C306.179 111.975 306.18 111.974 306.18 111.973C306.181 111.972 306.183 111.971 306.184 111.97C306.187 111.967 306.191 111.964 306.195 111.96C306.203 111.953 306.214 111.943 306.228 111.931C306.255 111.907 306.291 111.873 306.336 111.831C306.427 111.745 306.553 111.624 306.707 111.466C307.016 111.15 307.441 110.688 307.93 110.084C308.906 108.875 310.14 107.086 311.205 104.74C313.347 100.021 314.772 93.1046 312.125 84.2399L309.251 85.0983C311.67 93.1999 310.347 99.3715 308.474 103.5C307.531 105.576 306.442 107.151 305.596 108.199C305.173 108.723 304.812 109.113 304.563 109.367C304.439 109.494 304.343 109.587 304.281 109.645C304.25 109.674 304.228 109.695 304.215 109.706C304.209 109.712 304.205 109.716 304.203 109.717C304.202 109.718 304.202 109.718 304.202 109.718C304.203 109.717 304.203 109.717 304.203 109.717C304.204 109.716 304.204 109.716 304.204 109.716C304.205 109.715 304.206 109.715 305.191 110.845ZM312.151 84.3387C310.419 76.6685 305.438 71.5665 300.996 68.4163C298.769 66.8373 296.652 65.7286 295.089 65.0134C294.306 64.6553 293.659 64.3943 293.203 64.2212C292.975 64.1346 292.794 64.0699 292.667 64.0259C292.604 64.0039 292.554 63.9871 292.519 63.9754C292.501 63.9695 292.487 63.9648 292.477 63.9615C292.471 63.9598 292.467 63.9584 292.464 63.9573C292.462 63.9568 292.461 63.9563 292.459 63.9559C292.459 63.9557 292.458 63.9555 292.458 63.9554C292.457 63.9552 292.456 63.955 292.001 65.3842C291.546 66.8134 291.545 66.8133 291.545 66.8131C291.545 66.8131 291.544 66.813 291.544 66.813C291.544 66.8129 291.544 66.8129 291.544 66.8129C291.545 66.813 291.546 66.8135 291.548 66.8142C291.553 66.8156 291.561 66.8183 291.572 66.8222C291.596 66.8299 291.633 66.8424 291.683 66.86C291.785 66.8951 291.939 66.9502 292.139 67.0262C292.54 67.1782 293.125 67.4138 293.841 67.7414C295.275 68.3976 297.221 69.4168 299.26 70.8634C303.351 73.7643 307.713 78.3048 309.225 84.9994L312.151 84.3387Z" fill="white"/>
<path d="M194.434 130.156C193.507 130.156 192.666 129.957 191.912 129.558C191.167 129.151 190.577 128.592 190.144 127.881C189.719 127.162 189.507 126.351 189.507 125.45C189.507 124.549 189.719 123.743 190.144 123.032C190.577 122.313 191.167 121.754 191.912 121.355C192.666 120.948 193.511 120.744 194.447 120.744C195.236 120.744 195.946 120.883 196.579 121.16C197.22 121.437 197.758 121.836 198.191 122.356L196.839 123.604C196.224 122.893 195.461 122.538 194.551 122.538C193.988 122.538 193.485 122.664 193.043 122.915C192.601 123.158 192.254 123.5 192.003 123.942C191.76 124.384 191.639 124.887 191.639 125.45C191.639 126.013 191.76 126.516 192.003 126.958C192.254 127.4 192.601 127.747 193.043 127.998C193.485 128.241 193.988 128.362 194.551 128.362C195.461 128.362 196.224 128.002 196.839 127.283L198.191 128.531C197.758 129.06 197.22 129.463 196.579 129.74C195.938 130.017 195.223 130.156 194.434 130.156ZM202.749 127.348H201.696V130H199.668V123.006H201.696V125.723H202.788L204.686 123.006H206.844L204.4 126.36L207.013 130H204.621L202.749 127.348ZM212.389 122.902C213.039 122.902 213.629 123.054 214.157 123.357C214.695 123.652 215.115 124.072 215.418 124.618C215.722 125.155 215.873 125.784 215.873 126.503C215.873 127.222 215.722 127.855 215.418 128.401C215.115 128.938 214.695 129.359 214.157 129.662C213.629 129.957 213.039 130.104 212.389 130.104C211.497 130.104 210.795 129.822 210.283 129.259V132.522H208.255V123.006H210.192V123.812C210.695 123.205 211.427 122.902 212.389 122.902ZM212.038 128.44C212.558 128.44 212.983 128.267 213.312 127.92C213.65 127.565 213.819 127.092 213.819 126.503C213.819 125.914 213.65 125.446 213.312 125.099C212.983 124.744 212.558 124.566 212.038 124.566C211.518 124.566 211.089 124.744 210.751 125.099C210.422 125.446 210.257 125.914 210.257 126.503C210.257 127.092 210.422 127.565 210.751 127.92C211.089 128.267 211.518 128.44 212.038 128.44ZM224.371 123.006L221.212 130.429C220.892 131.235 220.493 131.803 220.016 132.132C219.548 132.461 218.981 132.626 218.313 132.626C217.949 132.626 217.59 132.57 217.234 132.457C216.879 132.344 216.589 132.188 216.363 131.989L217.104 130.546C217.26 130.685 217.438 130.793 217.637 130.871C217.845 130.949 218.049 130.988 218.248 130.988C218.526 130.988 218.751 130.919 218.924 130.78C219.098 130.65 219.254 130.429 219.392 130.117L219.418 130.052L216.389 123.006H218.482L220.445 127.751L222.421 123.006H224.371ZM231.213 124.67H227.625V130H225.61V123.006H231.213V124.67ZM238.748 123.006V130H236.72V124.67H234.51L234.445 125.905C234.41 126.824 234.323 127.586 234.185 128.193C234.046 128.8 233.821 129.276 233.509 129.623C233.197 129.97 232.763 130.143 232.209 130.143C231.914 130.143 231.563 130.091 231.156 129.987L231.26 128.323C231.398 128.34 231.498 128.349 231.559 128.349C231.862 128.349 232.087 128.241 232.235 128.024C232.391 127.799 232.495 127.517 232.547 127.179C232.599 126.832 232.638 126.377 232.664 125.814L232.768 123.006H238.748ZM240.958 123.006H242.973V127.166L246.379 123.006H248.238V130H246.223V125.84L242.83 130H240.958V123.006ZM256.323 124.67H253.957V130H251.942V124.67H249.576V123.006H256.323V124.67ZM261.447 125.242C262.357 125.251 263.055 125.459 263.54 125.866C264.026 126.265 264.268 126.832 264.268 127.569C264.268 128.34 263.995 128.943 263.449 129.376C262.912 129.801 262.154 130.013 261.174 130.013L257.664 130V123.006H259.679V125.242H261.447ZM260.992 128.57C261.382 128.579 261.681 128.496 261.889 128.323C262.097 128.15 262.201 127.89 262.201 127.543C262.201 127.205 262.097 126.958 261.889 126.802C261.69 126.646 261.391 126.564 260.992 126.555L259.679 126.542V128.57H260.992ZM276.744 123.006L273.585 130.429C273.264 131.235 272.866 131.803 272.389 132.132C271.921 132.461 271.353 132.626 270.686 132.626C270.322 132.626 269.962 132.57 269.607 132.457C269.252 132.344 268.961 132.188 268.736 131.989L269.477 130.546C269.633 130.685 269.811 130.793 270.01 130.871C270.218 130.949 270.422 130.988 270.621 130.988C270.898 130.988 271.124 130.919 271.297 130.78C271.47 130.65 271.626 130.429 271.765 130.117L271.791 130.052L268.762 123.006H270.855L272.818 127.751L274.794 123.006H276.744ZM283.585 124.67H279.997V130H277.982V123.006H283.585V124.67ZM291.12 123.006V130H289.092V124.67H286.882L286.817 125.905C286.783 126.824 286.696 127.586 286.557 128.193C286.419 128.8 286.193 129.276 285.881 129.623C285.569 129.97 285.136 130.143 284.581 130.143C284.287 130.143 283.936 130.091 283.528 129.987L283.632 128.323C283.771 128.34 283.871 128.349 283.931 128.349C284.235 128.349 284.46 128.241 284.607 128.024C284.763 127.799 284.867 127.517 284.919 127.179C284.971 126.832 285.01 126.377 285.036 125.814L285.14 123.006H291.12ZM297.01 125.242C297.92 125.251 298.609 125.454 299.077 125.853C299.545 126.252 299.779 126.824 299.779 127.569C299.779 128.349 299.514 128.951 298.986 129.376C298.457 129.801 297.707 130.013 296.737 130.013L293.331 130V123.006H295.346V125.242H297.01ZM300.533 123.006H302.548V130H300.533V123.006ZM296.555 128.57C296.945 128.579 297.244 128.496 297.452 128.323C297.66 128.15 297.764 127.89 297.764 127.543C297.764 127.205 297.66 126.958 297.452 126.802C297.252 126.646 296.953 126.564 296.555 126.555L295.346 126.542V128.57H296.555Z" fill="white"/>
</svg>
