<svg width="280" height="60" viewBox="0 0 280 60" fill="none" xmlns="http://www.w3.org/2000/svg">
<path d="M222 14C222 7.37258 227.373 2 234 2H266C272.627 2 278 7.37258 278 14V58H234C227.373 58 222 52.6274 222 46V14Z" stroke="#3B4045" stroke-width="4"/>
<path d="M113.236 58L140 4.47214L166.764 58H113.236Z" stroke="#3B4045" stroke-width="4"/>
<path fill-rule="evenodd" clip-rule="evenodd" d="M135.865 44.9934L132.561 41.4687C131.975 40.8438 131.025 40.8438 130.439 41.4687C129.854 42.0935 129.854 43.1066 130.439 43.7314L134.939 48.5313C135.575 49.2096 136.624 49.1428 137.179 48.3885L147.679 35.5886C148.191 34.8937 148.078 33.8879 147.427 33.342C146.775 32.796 145.832 32.9167 145.32 33.6116L135.865 44.9934Z" fill="#3B4045"/>
<path fill-rule="evenodd" clip-rule="evenodd" d="M247.865 34.9934L244.561 31.4687C243.975 30.8438 243.025 30.8438 242.439 31.4687C241.854 32.0935 241.854 33.1066 242.439 33.7314L246.939 38.5313C247.575 39.2096 248.624 39.1428 249.179 38.3885L259.679 25.5886C260.191 24.8937 260.078 23.8879 259.427 23.342C258.775 22.796 257.832 22.9167 257.32 23.6116L247.865 34.9934Z" fill="#3B4045"/>
<circle cx="30" cy="30" r="28" stroke="#3B4045" stroke-width="4"/>
<path fill-rule="evenodd" clip-rule="evenodd" d="M26.8651 33.9934L23.5607 30.4687C22.9749 29.8438 22.0251 29.8438 21.4393 30.4687C20.8536 31.0935 20.8536 32.1066 21.4393 32.7314L25.9393 37.5313C26.5752 38.2096 27.6239 38.1428 28.1794 37.3885L38.6794 24.5886C39.1912 23.8937 39.0781 22.8879 38.4267 22.342C37.7753 21.796 36.8323 21.9167 36.3205 22.6116L26.8651 33.9934Z" fill="#3B4045"/>
</svg>
