<svg width="106" height="60" viewBox="0 0 106 60" fill="none" xmlns="http://www.w3.org/2000/svg">
<path d="M5.38125 53.6457L0 23.2051H14.2112L18.1764 53.6457H13.5998L9.89849 28.4051H5.92671L9.94796 53.6457H5.38125Z" fill="white"/>
<path d="M19.5703 53.6457L20.2291 23.2137L26.0944 23.2051L32.8058 53.6457H28.5862L27.2334 47.8082H24.0297L23.8927 53.6457H19.5703ZM24.0384 44.031L26.5298 44.0409L24.1588 32.163H24.0648L24.0384 44.031H24.0384Z" fill="white"/>
<path d="M47.6624 59.3376L47.659 53.6457H34.3409L32.2422 23.2051H37.448L38.7994 49.7551H42.5155L41.5296 23.2051H46.7211L47.2304 49.7551H50.0744L48.9972 59.3427L47.6624 59.3376Z" fill="white"/>
<path d="M51.4336 53.6457L55.7554 23.2051H61.6276L64.6268 53.6457H60.4082L59.8778 47.8041H56.6143L55.7785 53.6457H51.4336H51.4336ZM57.1032 44.0105H59.4367L58.619 32.163H58.4621L57.1032 44.0105H57.1032Z" fill="white"/>
<path d="M66.4609 53.6447L68.0294 23.2041H73.1918L72.2798 36.4689H75.8541L76.9247 23.1621L82.1599 23.2041L79.0669 53.6447H74.4369L75.4459 41.2641H71.9041L71.0802 53.6447H66.4609Z" fill="white"/>
<path d="M81.1289 53.6457L84.4235 23.2051H89.6362L87.9235 37.0229L89.2448 37.0231C93.6818 37.0238 95.0046 40.6546 94.5268 44.4123C94.0084 48.4908 93.1148 50.2452 92.229 51.3742C91.5118 52.2916 90.7226 52.8527 89.709 53.1869C89.189 53.3582 88.6664 53.4775 88.1417 53.5447C87.6165 53.6122 87.0371 53.6457 86.4037 53.6457H81.1289H81.1289ZM86.3846 49.7501L86.4065 49.7523C87.0755 49.8196 87.67 49.712 88.1561 49.5136C89.2935 49.0492 89.5969 47.5813 89.824 46.5025C90.051 45.4237 90.5115 42.2932 88.7996 41.7114C88.5201 41.6163 87.9875 41.5367 87.3629 41.5889L86.3627 49.7481L86.3846 49.7501ZM95.0159 53.6457L99.818 23.2051H105.002L99.6765 53.6457H95.0159H95.0159Z" fill="white"/>
<path fill-rule="evenodd" clip-rule="evenodd" d="M0 19.2278L20.4866 17.5123L22.7846 14.9661L20.9047 15.0963L32.5341 2.46191H22.3488L10.3013 12.8014C8.94915 13.9618 7.04601 15.5388 5.22604 16.2624L3.2282 16.3245L0 19.2278L0 19.2278ZM10.0838 15.8416L16.4247 15.395L27.2147 4.29099L23.9262 4.31632L16.8761 10.6624C14.7359 12.5888 12.4487 14.8572 10.0838 15.8416V15.8416Z" fill="white"/>
<path fill-rule="evenodd" clip-rule="evenodd" d="M24 17.2184L28.4696 16.8441L40.9128 6.14825H41.1646L33.3454 16.4358L36.6772 16.1568L46.4378 2.48052L43.2425 2.46208L32.9059 10.7705H32.7151L39.554 2.46208L36.7465 2.46191L24 17.2184Z" fill="white"/>
<path fill-rule="evenodd" clip-rule="evenodd" d="M49.221 6.07989L46.6353 6.12802C47.4585 4.70452 48.5037 3.50815 50.2339 2.86548C51.4638 2.40862 53.7427 2.30925 54.8562 2.74143C55.4747 2.98146 55.808 3.41752 55.7186 4.04396C55.6266 4.68926 54.989 5.73432 54.4405 6.41333C53.8921 7.09234 52.9931 7.56053 51.8815 7.90384L51.83 7.99189C52.5911 8.20278 52.9881 8.6896 52.7529 9.42777C52.332 10.7487 51.2101 12.7522 50.1098 13.5959C48.8161 14.5879 48.1777 14.8709 46.5927 15.2527C45.4228 15.5344 43.8977 15.6865 42.8568 15.407C41.3864 15.0122 41.5353 13.6897 42.3565 12.4307L43.5393 10.6174L46.4676 10.4924L45.2952 12.2624C44.9367 12.8035 44.874 13.4842 46.1203 13.4346C46.9995 13.3996 47.7964 13.2119 48.4934 12.2084C49.0619 11.39 49.5955 10.5516 49.8058 9.91778C49.9667 9.43287 49.6675 9.02322 49.0401 9.03381L47.8514 9.05387L48.9558 7.25853L50.1905 7.27552C51.0128 7.28682 51.8452 6.69117 52.2876 5.99158C52.5606 5.55979 53.0035 4.88204 52.9742 4.4578C52.953 4.1504 52.6282 3.98003 52.1263 3.95714C51.4666 3.92704 50.8614 4.12007 50.4341 4.43325C49.8942 4.82903 49.5415 5.56016 49.221 6.07989H49.221Z" fill="white"/>
<path fill-rule="evenodd" clip-rule="evenodd" d="M51.7812 14.8918L60.8734 2.46191H64.0656L61.6023 14.0694L58.9375 14.2925L59.5745 11.8215L56.2458 12.0094L54.4373 14.6694L51.7812 14.8918ZM57.3948 10.3194L59.991 10.2054L61.4675 4.45929H61.3791L57.3948 10.3194H57.3948Z" fill="white"/>
<path fill-rule="evenodd" clip-rule="evenodd" d="M67.8745 2.46191L63.3867 13.9199L65.8238 13.7158L71.3974 5.50759H71.486L68.9472 13.4543L70.9168 13.2894L74.1286 2.46191H72.1308L67.2913 9.14915H67.2125L69.6614 2.46191H67.8745Z" fill="white"/>
<path fill-rule="evenodd" clip-rule="evenodd" d="M75.9386 2.46191L73.1602 13.1014L75.1924 12.9312L76.3847 8.06854L78.6169 7.97323L77.6107 12.7287L79.5588 12.5655L81.442 2.46191H79.7836L78.8973 6.64966L76.7212 6.69626L77.7594 2.46191H75.9386Z" fill="white"/>
<path fill-rule="evenodd" clip-rule="evenodd" d="M83.6505 12.2773L84.1849 12.2431C85.6774 12.1478 86.7884 10.8365 86.8962 9.58845L87.3553 4.27286C87.4402 3.29046 86.4347 2.46213 85.6367 2.46046L84.929 2.45899C83.7266 2.45648 82.7123 3.45982 82.5527 4.45063L81.6886 9.81648C81.4223 11.4701 82.2904 12.3641 83.6505 12.2773L83.6505 12.2773ZM84.0643 10.8227L84.2556 10.8104C84.7901 10.7763 85.1714 10.3051 85.2265 9.85987L85.9136 4.30314C85.9569 3.95273 85.5839 3.65477 85.2982 3.65417L85.0448 3.65365C84.6143 3.65275 84.2469 4.01144 84.1939 4.36679L83.3618 9.94152C83.2732 10.5346 83.5773 10.8538 84.0643 10.8227L84.0643 10.8227Z" fill="white"/>
<path fill-rule="evenodd" clip-rule="evenodd" d="M88.8317 2.46191L88.1758 11.844L89.7269 11.7141C92.3374 11.4955 93.0842 10.6124 93.0859 9.41424L93.0877 8.12575C93.0884 7.63152 92.8922 6.69835 92.0238 6.55958L92.0334 6.47527C92.5779 6.31556 92.9195 5.65727 92.9376 5.21566L92.9774 4.24348C93.0213 3.17339 92.1966 2.46191 91.4872 2.46191H88.8317H88.8317ZM90.1719 3.80589L90.0426 6.10349L90.6851 6.09015C91.176 6.07996 91.6173 5.75997 91.6264 5.25635L91.6375 4.63379C91.6464 4.13873 91.5333 3.79542 90.8632 3.80057L90.1719 3.80589ZM89.9771 7.26861L89.8106 10.2263L91.0028 10.1423C91.3245 10.1197 91.6592 9.9028 91.6692 9.26082L91.687 8.12267C91.6968 7.49206 91.3733 7.28932 90.8915 7.28217L89.9771 7.26861L89.9771 7.26861Z" fill="white"/>
<path fill-rule="evenodd" clip-rule="evenodd" d="M94.2617 2.46191L94.3168 11.3299L95.5933 11.223C97.7663 11.041 98.4049 10.1887 98.3341 8.93844L98.245 7.36281C98.1746 6.11966 97.1562 5.60498 96.4334 5.63335L95.5556 5.66783L95.491 2.46191H94.2617H94.2617ZM95.5775 6.75165L95.6393 9.81587L96.5248 9.7535C96.7836 9.73527 97.0328 9.41453 97.0227 9.15534L96.9638 7.64811C96.9401 7.04185 96.6957 6.76812 96.0367 6.75842L95.5775 6.75165Z" fill="white"/>
<path fill-rule="evenodd" clip-rule="evenodd" d="M98.6172 2.46191L99.2758 10.9146L100.506 10.8116L99.7588 2.46191H98.6172Z" fill="white"/>
<path fill-rule="evenodd" clip-rule="evenodd" d="M100.809 2.46191L101.794 10.7038L105.001 10.4353L104.814 9.16977L102.815 9.31053L102.529 6.91013L104.08 6.83248L103.918 5.75318L102.401 5.83307L102.149 3.71363L104.007 3.69931L103.824 2.46191H100.809Z" fill="white"/>
<path fill-rule="evenodd" clip-rule="evenodd" d="M73.2613 0L72.8208 1.27773L69.3711 1.40178L69.7372 0.496213L73.2613 0Z" fill="white"/>
</svg>
