<svg width="40" height="40" viewBox="0 0 40 40" fill="none" xmlns="http://www.w3.org/2000/svg">
<rect width="40" height="40" rx="20" fill="white"/>
<path fill-rule="evenodd" clip-rule="evenodd" d="M14.7662 29.6855L20.5092 26.0961H27.9753C29.0175 26.0961 29.8624 25.2513 29.8624 24.2091V12.887C29.8624 11.8448 29.0175 11 27.9753 11H12.8792C11.837 11 10.9922 11.8448 10.9922 12.887V24.2091C10.9922 25.2513 11.837 26.0961 12.8792 26.0961H14.7662V29.6855ZM19.9679 24.2092L16.6532 26.2809V24.2092H12.8791V12.8871H27.9753V24.2092H19.9679ZM15.7098 21.3786V19.4916H22.3143V21.3786H15.7098ZM15.7098 15.7173V17.6043H24.2013V15.7173H15.7098Z" fill="#24282B"/>
</svg>
