<svg width="40" height="40" viewBox="0 0 40 40" fill="none" xmlns="http://www.w3.org/2000/svg">
<circle r="20" transform="matrix(-1 0 0 1 20 20)" fill="#7170FF"/>
<path d="M21.402 18.7C22.6287 18.9 23.5687 19.36 24.222 20.08C24.8754 20.7867 25.202 21.6667 25.202 22.72C25.202 23.5333 24.9887 24.2867 24.562 24.98C24.1354 25.66 23.482 26.2067 22.602 26.62C21.7354 27.0333 20.6687 27.24 19.402 27.24C18.4154 27.24 17.442 27.1133 16.482 26.86C15.5354 26.5933 14.7287 26.22 14.062 25.74L15.322 23.26C15.8554 23.66 16.4687 23.9733 17.162 24.2C17.8687 24.4133 18.5887 24.52 19.322 24.52C20.1354 24.52 20.7754 24.3667 21.242 24.06C21.7087 23.74 21.942 23.2933 21.942 22.72C21.942 21.5733 21.0687 21 19.322 21H17.842V18.86L20.722 15.6H14.762V13H24.562V15.1L21.402 18.7Z" fill="white"/>
</svg>
