<svg width="40" height="40" viewBox="0 0 40 40" fill="none" xmlns="http://www.w3.org/2000/svg">
<circle r="20" transform="matrix(-1 0 0 1 20 20)" fill="#7170FF"/>
<path d="M25.3416 24.36V27H14.7616V24.9L20.1616 19.8C20.7349 19.2533 21.1216 18.7867 21.3216 18.4C21.5216 18 21.6216 17.6067 21.6216 17.22C21.6216 16.66 21.4282 16.2333 21.0416 15.94C20.6682 15.6333 20.1149 15.48 19.3816 15.48C18.7682 15.48 18.2149 15.6 17.7216 15.84C17.2282 16.0667 16.8149 16.4133 16.4816 16.88L14.1216 15.36C14.6682 14.5467 15.4216 13.9133 16.3816 13.46C17.3416 12.9933 18.4416 12.76 19.6816 12.76C20.7216 12.76 21.6282 12.9333 22.4016 13.28C23.1882 13.6133 23.7949 14.0933 24.2216 14.72C24.6616 15.3333 24.8816 16.06 24.8816 16.9C24.8816 17.66 24.7216 18.3733 24.4016 19.04C24.0816 19.7067 23.4616 20.4667 22.5416 21.32L19.3216 24.36H25.3416Z" fill="white"/>
</svg>
