<svg width="50" height="50" viewBox="0 0 50 50" fill="none" xmlns="http://www.w3.org/2000/svg">
<path d="M1 5C1 2.79086 2.79086 1 5 1H45C47.2091 1 49 2.79086 49 5V45C49 47.2091 47.2091 49 45 49H5C2.79086 49 1 47.2091 1 45V5Z" stroke="white" stroke-width="2"/>
<path fill-rule="evenodd" clip-rule="evenodd" d="M25 33C24.4477 33 24 32.5523 24 32L24 20.415L21.7071 22.7071C21.3466 23.0676 20.7794 23.0953 20.3871 22.7903L20.2929 22.7071C19.9324 22.3466 19.9047 21.7794 20.2097 21.3871L20.2929 21.2929L24.2929 17.2929L24.3369 17.2515L24.4047 17.1963L24.5159 17.1247L24.6287 17.0712L24.734 17.0358L24.8825 17.0068L25 17L25.0752 17.0028L25.2007 17.0202L25.3121 17.0497L25.4232 17.0937L25.5207 17.146L25.6168 17.2128C25.6485 17.2377 25.6786 17.2644 25.7071 17.2929L29.7071 21.2929C30.0976 21.6834 30.0976 22.3166 29.7071 22.7071C29.3466 23.0676 28.7794 23.0953 28.3871 22.7903L28.2929 22.7071L26 20.415L26 32C26 32.5523 25.5523 33 25 33Z" fill="white"/>
</svg>
