<svg width="19" height="13" viewBox="0 0 19 13" fill="none" xmlns="http://www.w3.org/2000/svg">
<path fill-rule="evenodd" clip-rule="evenodd" d="M0 6.47727C1.49409 2.68591 5.18182 0 9.5 0C13.8182 0 17.5059 2.68591 19 6.47727C17.5059 10.2686 13.8182 12.9545 9.5 12.9545C5.18182 12.9545 1.49409 10.2686 0 6.47727ZM17.1174 6.47742C15.6924 3.56696 12.7733 1.72742 9.50008 1.72742C6.2269 1.72742 3.30781 3.56696 1.88281 6.47742C3.30781 9.38787 6.21827 11.2274 9.50008 11.2274C12.7819 11.2274 15.6924 9.38787 17.1174 6.47742ZM9.50028 4.31763C10.6921 4.31763 11.6594 5.2849 11.6594 6.47672C11.6594 7.66854 10.6921 8.63581 9.50028 8.63581C8.30846 8.63581 7.34119 7.66854 7.34119 6.47672C7.34119 5.2849 8.30846 4.31763 9.50028 4.31763ZM5.61371 6.47657C5.61371 4.33476 7.35825 2.59021 9.50007 2.59021C11.6419 2.59021 13.3864 4.33476 13.3864 6.47657C13.3864 8.61839 11.6419 10.3629 9.50007 10.3629C7.35825 10.3629 5.61371 8.61839 5.61371 6.47657Z" fill="white"/>
</svg>
