<svg width="40" height="40" viewBox="0 0 40 40" fill="none" xmlns="http://www.w3.org/2000/svg">
<rect width="40" height="40" rx="20" fill="white"/>
<path fill-rule="evenodd" clip-rule="evenodd" d="M18.2929 14.2929L20.2929 12.2929C20.6834 11.9024 21.3166 11.9024 21.7071 12.2929C22.0676 12.6534 22.0953 13.2206 21.7903 13.6129L21.7071 13.7071L21.295 14.1195C24.5423 14.7269 27 17.5765 27 21C27 24.866 23.866 28 20 28C16.134 28 13 24.866 13 21C13 19.9493 13.2323 18.9296 13.674 17.9997C13.911 17.5009 14.5075 17.2886 15.0063 17.5255C15.5052 17.7625 15.7175 18.359 15.4806 18.8579C15.1656 19.521 15 20.2478 15 21C15 23.7614 17.2386 26 20 26C22.7614 26 25 23.7614 25 21C25 18.8418 23.6326 17.0029 21.7168 16.3026C22.0976 16.6947 22.0942 17.3201 21.7071 17.7071C21.3466 18.0676 20.7794 18.0953 20.3871 17.7903L20.2929 17.7071L18.2929 15.7071C17.9324 15.3466 17.9047 14.7794 18.2097 14.3871L18.2929 14.2929L20.2929 12.2929L18.2929 14.2929Z" fill="#24282B"/>
</svg>
