<svg width="40" height="40" viewBox="0 0 40 40" fill="none" xmlns="http://www.w3.org/2000/svg">
<rect width="40" height="40" rx="20" fill="#7170FF"/>
<path fill-rule="evenodd" clip-rule="evenodd" d="M28 20C28 20.5523 27.5523 21 27 21H15.415L17.7071 23.2929C18.0676 23.6534 18.0953 24.2206 17.7903 24.6129L17.7071 24.7071C17.3466 25.0676 16.7794 25.0953 16.3871 24.7903L16.2929 24.7071L12.2929 20.7071L12.2515 20.6631L12.1963 20.5953L12.1247 20.4841L12.0712 20.3713L12.0358 20.266L12.0068 20.1175L12 20L12.0028 19.9248L12.0202 19.7993L12.0497 19.6879L12.0937 19.5768L12.146 19.4793L12.2128 19.3832C12.2377 19.3515 12.2644 19.3214 12.2929 19.2929L16.2929 15.2929C16.6834 14.9024 17.3166 14.9024 17.7071 15.2929C18.0676 15.6534 18.0953 16.2206 17.7903 16.6129L17.7071 16.7071L15.415 19H27C27.5523 19 28 19.4477 28 20Z" fill="white"/>
</svg>
