<svg width="40" height="40" viewBox="0 0 40 40" fill="none" xmlns="http://www.w3.org/2000/svg">
<rect width="40" height="40" rx="20" transform="matrix(-1 0 0 1 40 0)" fill="white"/>
<path fill-rule="evenodd" clip-rule="evenodd" d="M12 20C12 20.5523 12.4477 21 13 21H24.585L22.2929 23.2929C21.9324 23.6534 21.9047 24.2206 22.2097 24.6129L22.2929 24.7071C22.6534 25.0676 23.2206 25.0953 23.6129 24.7903L23.7071 24.7071L27.7071 20.7071L27.7485 20.6631L27.8037 20.5953L27.8753 20.4841L27.9288 20.3713L27.9642 20.266L27.9932 20.1175L28 20L27.9972 19.9248L27.9798 19.7993L27.9503 19.6879L27.9063 19.5768L27.854 19.4793L27.7872 19.3832C27.7623 19.3515 27.7356 19.3214 27.7071 19.2929L23.7071 15.2929C23.3166 14.9024 22.6834 14.9024 22.2929 15.2929C21.9324 15.6534 21.9047 16.2206 22.2097 16.6129L22.2929 16.7071L24.585 19H13C12.4477 19 12 19.4477 12 20Z" fill="#24282B"/>
</svg>
