<svg width="20" height="20" viewBox="0 0 20 20" fill="none" xmlns="http://www.w3.org/2000/svg">
<circle cx="10" cy="10" r="10" fill="#7170FF"/>
<path d="M8.99336 11.841C8.99336 11.3903 9.09303 11.0177 9.29236 10.723C9.50036 10.4283 9.79936 10.1033 10.1894 9.748C10.4754 9.488 10.6834 9.27133 10.8134 9.098C10.952 8.916 11.0214 8.71233 11.0214 8.487C11.0214 8.16633 10.8914 7.915 10.6314 7.733C10.38 7.54233 10.042 7.447 9.61736 7.447C9.21003 7.447 8.84603 7.53367 8.52536 7.707C8.21336 7.87167 7.94903 8.10567 7.73236 8.409L6.15936 7.486C6.52336 6.93133 7.01303 6.50233 7.62836 6.199C8.25236 5.89567 8.98903 5.744 9.83836 5.744C10.835 5.744 11.6324 5.95633 12.2304 6.381C12.837 6.80567 13.1404 7.395 13.1404 8.149C13.1404 8.50433 13.0797 8.81633 12.9584 9.085C12.8457 9.35367 12.7027 9.58333 12.5294 9.774C12.3647 9.956 12.148 10.1683 11.8794 10.411C11.5587 10.697 11.3247 10.9397 11.1774 11.139C11.03 11.3297 10.9564 11.5637 10.9564 11.841H8.99336ZM9.98136 15.104C9.62603 15.104 9.32703 14.9913 9.08436 14.766C8.85036 14.532 8.73336 14.2503 8.73336 13.921C8.73336 13.5917 8.85036 13.3187 9.08436 13.102C9.31836 12.8767 9.61736 12.764 9.98136 12.764C10.3454 12.764 10.6444 12.8767 10.8784 13.102C11.1124 13.3187 11.2294 13.5917 11.2294 13.921C11.2294 14.2503 11.108 14.532 10.8654 14.766C10.6314 14.9913 10.3367 15.104 9.98136 15.104Z" fill="white"/>
</svg>
